<?xml version="1.0" encoding="UTF-8"?>
<!DOCTYPE svg PUBLIC "-//W3C//DTD SVG 1.1//EN" "http://www.w3.org/Graphics/SVG/1.1/DTD/svg11.dtd">
<!-- Creator: CorelDRAW X7 -->
<svg xmlns="http://www.w3.org/2000/svg" xml:space="preserve" width="677.333mm" height="317.5mm" version="1.1" style="shape-rendering:geometricPrecision; text-rendering:geometricPrecision; image-rendering:optimizeQuality; fill-rule:evenodd; clip-rule:evenodd"
viewBox="0 0 67733 31750"
 xmlns:xlink="http://www.w3.org/1999/xlink"
 data-name="Layer 1">
 <defs>
  <style type="text/css">
   <![CDATA[
    .fil6 {fill:none}
    .fil12 {fill:#FBD7A3}
    .fil9 {fill:#FBD7A3}
    .fil0 {fill:#F08519}
    .fil3 {fill:#D87027}
    .fil15 {fill:#007BFF}
    .fil14 {fill:#3F3D56}
    .fil5 {fill:#454B69}
    .fil20 {fill:#939498}
    .fil19 {fill:#9C9CA1}
    .fil11 {fill:white}
    .fil16 {fill:#F08519;fill-opacity:0.011765}
    .fil18 {fill:black;fill-opacity:0.011765}
    .fil13 {fill:#F08519;fill-opacity:0.078431}
    .fil2 {fill:#FEFEFE;fill-opacity:0.101961}
    .fil10 {fill:#332C2B;fill-opacity:0.101961}
    .fil17 {fill:#F08519;fill-opacity:0.101961}
    .fil8 {fill:black;fill-opacity:0.101961}
    .fil4 {fill:#F08519;fill-opacity:0.250980}
    .fil1 {fill:#FEFEFE;fill-opacity:0.329412}
    .fil7 {fill:black;fill-opacity:0.400000}
   ]]>
  </style>
 </defs>
 <g id="Layer_x0020_1">
  <metadata id="CorelCorpID_0Corel-Layer"/>
  <rect class="fil0" x="-85287" y="260" width="67733" height="31750"/>
  <path class="fil1" d="M-85287 8379c0,0 34418,-1094 43901,-8119l-43901 0 0 8119z"/>
  <path class="fil2" d="M-85287 19186c0,0 51426,-947 67733,-18926l-23832 0c0,0 -6275,6355 -43901,8119l0 7756 0 3051z"/>
  <path class="fil0" d="M-85287 29294c0,0 43303,1912 67733,-13159l0 -15875c0,0 -10074,16463 -67733,18926l0 6286 0 3822z"/>
  <path class="fil3" d="M-17554 16135c-24430,15071 -67733,13159 -67733,13159l0 2716 67733 0 0 -15875z"/>
  <path class="fil4" d="M50446 21015c-117,291 -264,571 -434,835 -1,1 -2,2 -3,3l-29667 0 4 -3c26,-21 182,-146 423,-362 173,-154 391,-354 635,-596 1997,-1964 5834,-6614 2639,-10874 -2971,-3960 228,-4679 2337,-4763 77,-3 158,-4 236,-4 732,0 1458,133 2142,393 974,370 2756,938 5077,1198 76,9 153,17 231,25 745,77 1500,115 2251,115 481,0 969,-17 1447,-47l0 -1c36,-2 73,-4 110,-7 1216,-83 2431,-276 3617,-560 77,-19 153,-37 229,-55 3959,-916 7608,2206 6696,5734 -338,1305 -252,2696 873,3821 1841,2200 1618,4009 1157,5148z"/>
  <path class="fil5" d="M50446 21015c-117,291 -264,571 -434,835 -79,126 -168,247 -263,362l-29403 0c26,-21 182,-147 423,-362 173,-154 391,-355 635,-596l3099 -640c40,-9 81,-13 122,-13l3304 -5 3 0 1637 -2 3 0 1381 -1 905 0 0 0 926 0 3794 -5 6 0 294 0 517 0 645 0 171 0 652 -8 215 0 1896 -3 605 0 0 0 291 0 0 0 2189 -2 652 0 2074 -3 1751 -2c48,-1 97,5 144,17l1766 428z"/>
  <path class="fil6" d="M20769 21850l29243 0c-79,126 -168,247 -263,362l-29403 0c26,-22 181,-148 423,-362z"/>
  <path class="fil7" d="M20769 21850l29243 0c-79,126 -168,247 -263,362l-29403 0c26,-22 181,-148 423,-362z"/>
  <path class="fil5" d="M39742 13622l-59 11 -2655 510c-772,148 -1554,297 -2338,240 -567,-41 -1097,-209 -1643,-357 -308,-84 -635,-117 -739,-462 -144,-476 90,-1181 146,-1664 53,-473 84,-959 -10,-1427 -21,-105 -49,-209 -83,-311 -94,-280 -243,-571 -163,-856 64,-225 256,-386 437,-536 353,-291 714,-617 855,-1053 68,-212 81,-440 155,-650 141,-399 494,-698 886,-856 393,-158 825,-192 1248,-192 374,0 750,26 1119,74 404,53 812,140 1168,341 355,200 655,529 737,930 118,566 -208,1169 -33,1719 88,279 291,503 432,758 142,263 216,558 216,857 0,185 -28,369 -84,545 -169,523 -582,1052 -371,1559 135,323 479,495 719,751 21,23 41,46 60,69z"/>
  <path class="fil8" d="M39683 13555l0 78 -2655 510c-772,148 -1554,297 -2338,240 -567,-41 -1097,-209 -1643,-357 -308,-84 -635,-117 -739,-462 -144,-476 90,-1181 146,-1664 53,-473 867,-2202 773,-2671l4868 212c33,259 1320,1556 1240,1804 -169,523 -582,1052 -371,1560 135,322 479,494 719,750z"/>
  <path class="fil9" d="M34709 12246c29,164 44,344 -40,487 -111,191 -354,252 -571,296l-754 150c-52,11 -106,22 -144,58 -46,40 -61,104 -68,164 -30,273 66,543 155,803 178,526 327,1064 552,1573 225,508 534,993 976,1333 441,340 1024,521 1564,388 471,-116 856,-448 1189,-800 274,-291 531,-609 664,-986 92,-260 122,-536 151,-809 44,-420 89,-839 134,-1259 20,-197 34,-418 -94,-569 -56,-66 -132,-111 -210,-152 -289,-153 -594,-280 -863,-466 -270,-185 -508,-440 -590,-756 -49,-190 -40,-397 -124,-574 -93,-199 -291,-333 -503,-392 -211,-59 -434,-51 -653,-26 -218,24 -1058,87 -1148,333 -48,132 152,416 200,546 78,213 137,434 177,658l0 0z"/>
  <path class="fil10" d="M34709 12246c29,164 44,344 -40,487 -111,191 -354,252 -571,296l-754 150c-52,11 -106,22 -144,58 -46,40 -61,104 -68,164 -30,273 66,543 155,803 178,526 327,1064 552,1573 225,508 534,993 976,1333 441,340 1024,521 1564,388 471,-116 856,-448 1189,-800 274,-291 531,-609 664,-986 92,-260 122,-536 151,-809 44,-420 89,-839 134,-1259 20,-197 34,-418 -94,-569 -56,-66 -132,-111 -210,-152 -289,-153 -594,-280 -863,-466 -270,-185 -508,-440 -590,-756 -49,-190 -40,-397 -124,-574 -93,-199 -291,-333 -503,-392 -211,-59 -434,-51 -653,-26 -218,24 -1058,87 -1148,333 -48,132 152,416 200,546 78,213 137,434 177,658l0 0z"/>
  <path class="fil11" d="M36523 15123l443 -936c207,-439 418,-900 396,-1384 -4,-97 -5,-217 80,-261 464,24 925,118 1363,276 85,31 172,66 231,134 60,67 84,158 104,246 69,294 121,595 151,896 80,747 40,1500 0,2249l-117 2287c0,1 0,3 0,4 0,31 -6,62 -19,90 -29,53 -95,71 -154,81 -227,39 -459,31 -689,22 -1620,-61 -3247,-156 -4856,41 7,-238 3,-476 -11,-715 -64,-1029 -331,-2032 -593,-3029 -153,-582 -300,-1217 -55,-1766 37,-86 89,-166 154,-233 104,-103 247,-157 388,-195 211,-58 430,-87 649,-87 33,0 67,1 99,2l1669 3632c76,166 139,341 214,505 69,-283 -13,-615 69,-922 204,-334 343,-639 484,-937z"/>
  <path class="fil0" d="M36349 17622c299,19 589,-134 794,-351 205,-216 341,-490 455,-767 165,-394 296,-804 391,-1220 80,-355 136,-722 81,-1081 -76,-496 -356,-947 -404,-1447 -8,-87 -3,-189 67,-242 43,-32 101,-37 155,-40 499,-30 1047,-24 1433,293 118,96 214,216 329,316 274,238 661,359 837,675 61,110 91,235 134,353 101,281 276,527 450,770 -169,711 -363,1423 -531,2134 -99,417 -198,836 -353,1236 -102,262 -230,529 -199,809 13,111 50,216 82,323 103,346 157,706 157,1066 0,29 -1,58 -1,86l-7550 18c362,-518 468,-1154 431,-1785 -17,-303 -86,-607 -238,-869 -240,-410 -661,-677 -1077,-906 -291,-158 -603,735 -918,632 51,-359 74,-1746 53,-2108 -7,-118 -18,-240 19,-353 25,-78 71,-147 102,-222 124,-302 5,-688 206,-945 139,-179 382,-230 579,-340 203,-113 360,-291 537,-443 346,-294 771,-484 1221,-545 131,207 212,444 233,688 14,154 4,310 25,462 30,208 115,402 200,594 354,798 709,1600 1157,2350 127,211 265,423 449,588 183,165 448,282 694,271z"/>
  <path class="fil8" d="M36376 17634c299,19 589,-134 794,-350 205,-216 341,-491 455,-768 165,-394 296,-803 391,-1220 80,-355 136,-722 81,-1081 -75,-496 -356,-947 -404,-1446 -8,-88 -3,-190 67,-242 44,-33 101,-37 155,-41 499,-29 1047,-24 1433,293 118,96 214,217 329,316 274,238 661,359 837,675 62,110 91,235 134,354 101,280 276,527 450,769 -169,712 -363,1423 -531,2134 -99,418 -198,837 -353,1236 -102,262 -230,529 -199,810 13,110 50,216 82,322 104,346 157,706 157,1067 0,28 -1,58 -1,85l-7550 19c362,-519 468,-1155 431,-1786 -17,-302 -86,-607 -238,-868 -239,-410 -661,-678 -1077,-906 -291,-159 -603,734 -918,632 51,-360 74,-1747 53,-2108 -7,-119 -17,-241 19,-354 25,-77 71,-147 102,-222 124,-302 5,-688 206,-945 139,-178 382,-229 579,-339 203,-114 360,-291 537,-443 346,-295 771,-484 1221,-546 132,207 212,444 233,688 14,154 4,310 25,463 30,207 116,401 201,593 353,799 708,1600 1157,2350 126,212 264,423 448,588 183,165 448,283 694,271z"/>
  <circle class="fil12" cx="35950" cy="9918" r="2268"/>
  <path class="fil5" d="M34760 12940c62,-587 -182,-1161 -458,-1682 -132,-250 -274,-498 -341,-772 -66,-274 -47,-584 123,-809 144,-192 373,-295 585,-408 599,-317 1145,-784 1408,-1408 -148,81 -110,323 22,429 131,107 310,127 471,178 588,185 941,772 1225,1321 46,89 93,183 92,284 0,101 -46,190 -94,276 -140,249 -311,488 -374,766 -73,317 4,651 103,963 106,331 247,665 501,902 254,238 648,356 960,203 -312,-537 -635,-1136 -513,-1744 59,-291 216,-556 284,-845 128,-552 -86,-1120 -295,-1647l-625 -1573c-96,-241 -205,-497 -424,-634 -148,-92 -327,-115 -501,-132 -559,-50 -1137,-33 -1658,175 -947,378 -1542,1312 -2013,2217 -141,271 -281,559 -275,865 3,168 50,331 88,495 155,665 164,1355 172,2039 6,524 -22,1018 -251,1496 314,62 770,231 1081,108 406,-161 656,-655 707,-1063z"/>
  <g id="_868092875600">
   <path class="fil8" d="M33221 12388c1,-75 1,-150 0,-226 -8,-684 -16,-1374 -171,-2039 -5,40 -7,81 -7,122 0,5 0,10 0,15 3,168 50,331 88,495 73,268 83,953 90,1633z"/>
   <path class="fil8" d="M38754 10594c-5,78 -17,157 -35,233 -67,291 -225,554 -284,845 4,-51 12,-102 21,-153 72,-372 230,-635 298,-925z"/>
   <path class="fil8" d="M37867 9952c13,-38 20,-77 20,-117 0,-101 -46,-195 -92,-285 -284,-548 -635,-1134 -1225,-1320 -161,-51 -340,-71 -471,-178 -69,-59 -111,-143 -116,-233 -287,527 -780,929 -1314,1212 -211,113 -441,216 -585,408 -136,180 -175,414 -152,640 13,-145 66,-284 152,-402 144,-192 373,-295 585,-408 534,-282 1027,-685 1314,-1212 5,90 47,174 116,233 132,106 310,127 471,178 588,185 941,772 1225,1321 28,52 52,107 72,163l0 0z"/>
   <path class="fil8" d="M38023 12742c-254,-238 -394,-571 -501,-902 -63,-186 -106,-380 -127,-575 -24,272 43,550 127,813 106,331 247,665 501,903 254,237 648,355 960,202 -37,-65 -75,-130 -112,-196 -290,82 -623,-35 -848,-245z"/>
   <path class="fil8" d="M34760 12702c-51,408 -301,902 -708,1063 -282,112 -684,-16 -991,-87 -26,74 -56,147 -90,218 314,62 770,231 1081,108 407,-162 657,-656 708,-1064 6,-63 9,-126 9,-188 0,-40 -1,-80 -3,-119 -2,23 -4,46 -6,69z"/>
  </g>
  <path class="fil11" d="M37966 19262c-409,-65 -824,-190 -1229,-106 -235,49 -450,166 -645,307 107,86 233,163 301,282 42,83 74,171 95,261 42,159 86,321 92,486 7,165 -26,337 -125,470 516,51 1015,-76 1518,-200 57,-10 112,-32 160,-65 80,-62 103,-173 104,-275 0,-181 -51,-357 -103,-531 -61,-208 -107,-422 -168,-629z"/>
  <path class="fil0" d="M40726 14799c203,27 360,190 476,359 325,468 466,1036 622,1584 194,682 422,1354 684,2014 56,152 125,301 205,442 66,110 145,215 174,339 70,300 -178,582 -436,749 -137,92 -287,165 -445,215 -154,46 -315,63 -474,81l-1469 158c-676,74 -1358,148 -2034,77 -43,-149 41,-253 34,-408 -4,-110 -52,-213 -96,-314 -80,-181 -133,-373 -157,-569 -7,-73 -10,-147 -38,-214 -27,-67 -86,-127 -158,-132 397,-40 698,-114 1095,-154 147,-15 300,-32 426,-110 156,-97 243,-272 312,-442 172,-421 283,-884 193,-1330 -74,-365 -281,-705 -280,-1078 0,-222 76,-437 165,-641 95,-214 218,-434 426,-543 208,-109 540,-115 775,-83z"/>
  <path class="fil13" d="M40726 14843c203,26 360,190 476,358 325,469 466,1036 622,1585 194,682 422,1353 684,2014 56,152 125,301 205,442 66,109 145,214 174,338 70,300 -178,582 -436,750 -137,92 -287,165 -445,214 -154,46 -315,64 -474,81l-1469 159c-676,74 -1358,147 -2034,76 -43,-148 41,-253 34,-407 -4,-110 -52,-213 -96,-315 -80,-180 -133,-373 -157,-569 -7,-72 -10,-146 -38,-213 -27,-67 -86,-128 -158,-133 397,-39 698,-114 1095,-153 147,-15 300,-32 426,-110 156,-97 243,-273 312,-442 172,-421 283,-885 193,-1330 -74,-366 -281,-706 -280,-1079 0,-222 76,-437 165,-640 95,-215 218,-434 426,-543 208,-109 540,-115 775,-83z"/>
  <path class="fil9" d="M31529 14456c96,-229 193,-464 196,-711 3,-268 -106,-522 -189,-776 -2,-9 -3,-19 -3,-28 0,-22 6,-44 16,-64 22,-31 65,-37 102,-45 183,-42 321,-190 436,-339 170,-432 258,-895 258,-1360 0,-114 -6,-229 -16,-342 87,-195 206,-433 420,-435 -87,403 -193,804 -319,1197 223,-57 436,-141 659,-198 38,-11 78,-18 119,-18 5,0 11,0 16,1 134,14 216,195 138,305 110,128 291,162 434,250 143,88 246,305 119,416 -25,21 -57,36 -75,64 -61,94 89,203 77,315 -10,92 -128,135 -217,111 -89,-25 -159,-91 -238,-140 -80,-49 -183,-80 -260,-29 -21,249 -43,503 -151,730 -39,82 -90,160 -122,246 -30,94 -49,191 -56,289l-96 878c-458,92 -869,-45 -1248,-317z"/>
  <path class="fil11" d="M31417 15243l-85 -572c-8,-46 -12,-93 -13,-140 0,-133 58,-259 115,-379 466,218 971,295 1486,296 68,0 146,-7 188,-60 88,101 91,263 53,391 -37,128 -109,244 -156,368 -24,64 -44,133 -90,181 -72,77 -187,91 -293,90 -111,-1 -221,-11 -330,-31 -282,-53 -593,-195 -875,-144z"/>
  <path class="fil0" d="M33159 15219c-363,-41 -723,-99 -1081,-174 -175,-37 -352,-78 -531,-71 -116,5 -242,28 -344,-30 100,340 106,698 -13,1031 -71,198 -179,383 -231,587 -108,428 41,894 -94,1313 -15,55 -43,105 -82,146 -41,38 -98,58 -136,99 -56,60 -59,151 -59,233l-3 729c-1,464 5,956 250,1349 279,450 867,683 1379,547 136,-35 264,-98 375,-184 178,-141 291,-345 402,-544 132,-239 264,-482 307,-750 30,-190 13,-383 -8,-574 -120,-1058 -380,-2108 -324,-3170 9,-194 76,-381 193,-537l0 0z"/>
  <path class="fil9" d="M34674 19611c-184,11 -370,22 -553,0 -132,-15 -261,-48 -392,-70 -133,-21 -267,-32 -401,-32 -595,0 -1172,211 -1626,595 -101,86 -204,220 -148,341 60,131 245,127 387,103 -153,73 -289,179 -397,310 -40,49 -77,106 -69,169 16,131 193,154 325,143 -43,46 -14,128 40,159 55,31 123,25 184,13 136,-24 268,-70 391,-135 -25,65 18,141 79,173 61,33 136,30 204,19 323,-53 593,-278 909,-366 504,-141 1032,84 1556,100 164,5 332,-12 482,-80 183,-83 331,-239 524,-295 216,-61 462,9 659,-97 143,-77 14,-670 -22,-785 -67,-209 -134,-347 -357,-368 -565,-56 -1207,71 -1775,103z"/>
  <path class="fil11" d="M36081 19450c0,0 855,723 362,1512l952 -329 0 -691c0,-32 -361,-525 -361,-525l-428 -66 -525 99z"/>
  <path class="fil14" d="M27136 19405l320 0c366,0 662,296 662,661l0 982 -1643 0 0 -982c0,-365 296,-661 661,-661l0 0z"/>
  <path class="fil8" d="M27136 19405l320 0c366,0 662,296 662,661l0 982 -1643 0 0 -982c0,-365 296,-661 661,-661l0 0z"/>
  <circle class="fil14" cx="27231" cy="19635" r="131"/>
  <circle class="fil14" cx="27231" cy="19470" r="131"/>
  <circle class="fil14" cx="27231" cy="19306" r="131"/>
  <circle class="fil14" cx="27231" cy="19142" r="131"/>
  <circle class="fil14" cx="27231" cy="18978" r="131"/>
  <circle class="fil14" cx="27231" cy="18813" r="131"/>
  <circle class="fil14" cx="27231" cy="18649" r="131"/>
  <circle class="fil14" cx="27428" cy="18715" r="131"/>
  <circle class="fil14" cx="27559" cy="18649" r="131"/>
  <circle class="fil14" cx="27691" cy="18583" r="131"/>
  <circle class="fil14" cx="27231" cy="18484" r="131"/>
  <circle class="fil14" cx="27231" cy="18320" r="131"/>
  <circle class="fil14" cx="27231" cy="18156" r="131"/>
  <circle class="fil14" cx="27231" cy="17991" r="131"/>
  <path class="fil15" d="M27777 17567c-33,5 -66,8 -99,11 -32,18 -68,29 -106,33 -32,5 -65,8 -98,10 43,-35 84,-88 126,-132 0,0 0,0 0,0 0,-32 -3,-64 -9,-96l186 174z"/>
  <path class="fil0" d="M28215 18221c-33,20 -71,33 -111,36 -32,5 -65,9 -98,11 -27,-7 -55,-11 -83,-11 -181,0 -329,148 -329,329 0,182 148,330 329,330 182,0 329,-148 329,-330 0,-105 -50,-203 -134,-265l97 -100z"/>
  <circle class="fil14" cx="27033" cy="18715" r="131"/>
  <circle class="fil14" cx="26902" cy="18649" r="131"/>
  <circle class="fil14" cx="26770" cy="18583" r="131"/>
  <path class="fil0" d="M26246 18221c34,20 72,33 111,36 32,5 65,9 98,11 27,-7 55,-11 83,-11 182,0 329,148 329,329 0,182 -147,330 -329,330 -182,0 -329,-148 -329,-330 0,-105 50,-203 135,-265l-98 -100z"/>
  <path class="fil14" d="M27136 19502l320 0c366,0 662,296 662,662l0 869c0,62 -50,112 -112,112l-1420 1c-62,-1 -112,-51 -112,-113l0 -869c0,0 0,0 0,0 0,-366 296,-662 661,-662 1,0 1,0 1,0l0 0z"/>
  <g id="_868092863792">
   <path class="fil16" d="M27786 17603c-14,14 -28,28 -43,40 15,0 30,-2 45,-3 0,-13 -1,-25 -2,-37z"/>
   <path class="fil17" d="M27546 17446c33,-2 66,-5 98,-10 -16,10 -34,17 -53,22 -15,-3 -30,-7 -45,-12l0 0z"/>
   <path class="fil17" d="M26738 17728c0,0 0,0 0,-1 0,-308 249,-557 557,-557 107,0 212,30 302,89l9 -9c-102,-91 -234,-142 -371,-142 -308,0 -558,250 -558,559 0,162 70,316 193,422 -85,-100 -132,-228 -132,-360 0,0 0,0 0,-1l0 0z"/>
  </g>
  <g id="_868092864144">
   <path class="fil18" d="M28006 18334c33,-3 66,-6 98,-11 -33,21 -71,33 -110,37l-27 3c13,-10 26,-20 39,-29l0 0z"/>
   <path class="fil18" d="M28020 18221c10,0 21,1 32,3 18,-19 34,-38 52,-57 -28,-8 -56,-11 -85,-11 -181,0 -328,147 -328,328 0,0 0,0 0,0 0,11 0,22 2,33 16,-168 158,-296 326,-296 0,0 1,0 1,0l0 0z"/>
  </g>
  <g id="_868092862640">
   <path class="fil8" d="M26455 18334c-33,-3 -66,-6 -98,-11 33,21 71,33 111,37l26 3c-12,-10 -26,-20 -39,-30l0 1z"/>
   <path class="fil8" d="M26442 18221c-11,0 -22,1 -33,3 -17,-19 -34,-38 -51,-57 27,-8 56,-11 84,-11 182,0 328,147 328,328 0,0 0,0 0,0 0,11 0,22 -1,33 -17,-168 -158,-296 -327,-296 0,0 0,0 0,0l0 0z"/>
  </g>
  <path class="fil15" d="M25550 21464l-2585 0c-60,0 -110,-50 -110,-110l0 -1224c0,0 0,0 0,0 0,-60 50,-110 110,-110 16,0 33,4 47,11 743,353 1543,473 2487,6 16,-8 32,-12 49,-12 61,0 110,49 110,110l0 1217c0,0 0,1 0,2 0,60 -48,109 -108,110l0 0z"/>
  <path class="fil8" d="M25550 21464l-2585 0c-60,0 -110,-50 -110,-110l0 -1224c0,0 0,0 0,0 0,-60 50,-110 110,-110 16,0 33,4 47,11 743,353 1543,473 2487,6 16,-8 32,-12 49,-12 61,0 110,49 110,110l0 1217c0,0 0,1 0,2 0,60 -48,109 -108,110l0 0z"/>
  <ellipse class="fil14" cx="24240" cy="20333" rx="153" ry="200"/>
  <ellipse class="fil14" cx="24240" cy="20089" rx="153" ry="200"/>
  <ellipse class="fil14" cx="24240" cy="19844" rx="153" ry="200"/>
  <ellipse class="fil14" cx="24240" cy="19599" rx="153" ry="200"/>
  <ellipse class="fil14" cx="24240" cy="19354" rx="153" ry="200"/>
  <ellipse class="fil14" cx="24240" cy="19109" rx="153" ry="200"/>
  <ellipse class="fil14" cx="24240" cy="18864" rx="153" ry="200"/>
  <path class="fil0" d="M24813 17188c21,-27 40,-55 57,-84l-402 -66 435 3c44,-96 67,-201 67,-307 0,-94 -18,-188 -53,-275l-583 303 538 -397c-33,41 -61,86 -84,134l-689 1094 -556 -188c102,-129 157,-289 157,-453 0,-164 -55,-324 -157,-453l1270 689z"/>
  <path class="fil8" d="M23503 17641c-101,130 -157,289 -157,454 0,404 329,733 734,733 404,0 733,-329 733,-733 0,-165 -56,-324 -157,-454 255,329 -1153,-82 -1153,0z"/>
  <path class="fil0" d="M25550 21528l-2585 0c-60,0 -110,-49 -110,-109l0 -1289c0,0 0,0 0,0 0,-60 50,-110 110,-110 16,0 33,4 47,11 743,353 1332,763 2487,6 69,-45 159,16 159,98l0 1283c0,0 0,0 0,1 0,59 -48,108 -108,109l0 0z"/>
  <polygon class="fil19" points="44732,21164 40918,21669 40727,21694 38863,20698 38863,20465 44690,19829 "/>
  <polygon class="fil20" points="39943,20804 44075,20317 44033,21079 40814,21315 "/>
  <path class="fil7" d="M40918 21418l0 250 -191 27 -1864 -997 0 -233 1780 952c0,0 233,22 275,1z"/>
  <path class="fil14" d="M41650 17445l-856 3970c-4,18 -6,36 -6,54 0,140 114,254 254,254 11,0 22,-1 33,-3l5417 -717c96,-12 177,-79 207,-171l1169 -3524c8,-26 13,-53 13,-80 0,-140 -114,-254 -254,-254 -4,0 -8,0 -12,0l-5729 272c-114,6 -211,87 -236,199l0 0z"/>
  <ellipse class="fil11" transform="matrix(0.104528 -0.994522 0.994522 0.104528 44479.7 18894.5)" rx="230" ry="148"/>
 </g>
</svg>
