<?xml version="1.0" encoding="UTF-8"?>
<!DOCTYPE svg PUBLIC "-//W3C//DTD SVG 1.1//EN" "http://www.w3.org/Graphics/SVG/1.1/DTD/svg11.dtd">
<!-- Creator: CorelDRAW X7 -->
<svg xmlns="http://www.w3.org/2000/svg" xml:space="preserve" width="677.333mm" height="317.5mm" version="1.1" style="shape-rendering:geometricPrecision; text-rendering:geometricPrecision; image-rendering:optimizeQuality; fill-rule:evenodd; clip-rule:evenodd"
viewBox="0 0 67733 31750"
 xmlns:xlink="http://www.w3.org/1999/xlink"
 data-name="Layer 1">
 <defs>
  <style type="text/css">
   <![CDATA[
    .str0 {stroke:#3F2B3B;stroke-width:26.46}
    .fil6 {fill:none}
    .fil12 {fill:#FBD7A3}
    .fil9 {fill:#FBD7A3}
    .fil0 {fill:#F08519}
    .fil3 {fill:#D87027}
    .fil15 {fill:#007BFF}
    .fil48 {fill:#3F2B3B}
    .fil14 {fill:#3F3D56}
    .fil25 {fill:#444053}
    .fil5 {fill:#454B69}
    .fil28 {fill:#585268}
    .fil35 {fill:#65617D}
    .fil27 {fill:#67647E}
    .fil38 {fill:#7C5C5C}
    .fil42 {fill:#7E5659}
    .fil43 {fill:#865A61}
    .fil20 {fill:#939498}
    .fil19 {fill:#9C9CA1}
    .fil31 {fill:#A27772}
    .fil49 {fill:#A8A8A8}
    .fil26 {fill:#B07473}
    .fil32 {fill:#CC818C}
    .fil24 {fill:#D38884}
    .fil41 {fill:#D39999}
    .fil29 {fill:#E1E7EF}
    .fil33 {fill:#F6F8FB}
    .fil36 {fill:#FBBEBE}
    .fil40 {fill:#FDC2CC}
    .fil11 {fill:white}
    .fil44 {fill:black;fill-opacity:0.003922}
    .fil16 {fill:#F08519;fill-opacity:0.011765}
    .fil18 {fill:black;fill-opacity:0.011765}
    .fil37 {fill:black;fill-opacity:0.050980}
    .fil13 {fill:#F08519;fill-opacity:0.078431}
    .fil2 {fill:#FEFEFE;fill-opacity:0.101961}
    .fil10 {fill:#332C2B;fill-opacity:0.101961}
    .fil17 {fill:#F08519;fill-opacity:0.101961}
    .fil8 {fill:black;fill-opacity:0.101961}
    .fil22 {fill:#007BFF;fill-opacity:0.101961}
    .fil50 {fill:black;fill-opacity:0.200000}
    .fil4 {fill:#F08519;fill-opacity:0.250980}
    .fil1 {fill:#FEFEFE;fill-opacity:0.329412}
    .fil7 {fill:black;fill-opacity:0.400000}
    .fil21 {fill:#F08519;fill-opacity:0.419608}
    .fil46 {fill:#FEFEFE;fill-opacity:0.501961}
    .fil47 {fill:white;fill-opacity:0.501961}
    .fil23 {fill:url(#id0)}
    .fil45 {fill:url(#id1)}
    .fil34 {fill:url(#id2)}
    .fil30 {fill:url(#id3)}
    .fil39 {fill:url(#id4)}
   ]]>
  </style>
  <linearGradient id="id0" gradientUnits="userSpaceOnUse" x1="67393.2" y1="29893" x2="67393.2" y2="11805.1">
   <stop offset="0" style="stop-opacity:0.25098; stop-color:gray"/>
   <stop offset="0.541176" style="stop-opacity:0.121569; stop-color:gray"/>
   <stop offset="1" style="stop-opacity:0.101961; stop-color:gray"/>
  </linearGradient>
  <linearGradient id="id1" gradientUnits="userSpaceOnUse" xlink:href="#id0" x1="68688.4" y1="31310.6" x2="68688.4" y2="27667.3">
  </linearGradient>
  <linearGradient id="id2" gradientUnits="userSpaceOnUse" xlink:href="#id0" x1="77101.7" y1="30182.4" x2="77101.7" y2="15217.5">
  </linearGradient>
  <linearGradient id="id3" gradientUnits="userSpaceOnUse" xlink:href="#id0" x1="72445.5" y1="29122.9" x2="72445.5" y2="13072">
  </linearGradient>
  <linearGradient id="id4" gradientUnits="userSpaceOnUse" xlink:href="#id0" x1="63062.2" y1="29807.5" x2="63062.2" y2="14229.2">
  </linearGradient>
 </defs>
 <g id="Layer_x0020_1">
  <metadata id="CorelCorpID_0Corel-Layer"/>
  <rect class="fil0" x="-85287" y="260" width="67733" height="31750"/>
  <path class="fil1" d="M-85287 8379c0,0 34418,-1094 43901,-8119l-43901 0 0 8119z"/>
  <path class="fil2" d="M-85287 19186c0,0 51426,-947 67733,-18926l-23832 0c0,0 -6275,6355 -43901,8119l0 7756 0 3051z"/>
  <path class="fil0" d="M-85287 29294c0,0 43303,1912 67733,-13159l0 -15875c0,0 -10074,16463 -67733,18926l0 6286 0 3822z"/>
  <path class="fil3" d="M-17554 16135c-24430,15071 -67733,13159 -67733,13159l0 2716 67733 0 0 -15875z"/>
  <path class="fil4" d="M50446 21015c-117,291 -264,571 -434,835 -1,1 -2,2 -3,3l-29667 0 4 -3c26,-21 182,-146 423,-362 173,-154 391,-354 635,-596 1997,-1964 5834,-6614 2639,-10874 -2971,-3960 228,-4679 2337,-4763 77,-3 158,-4 236,-4 732,0 1458,133 2142,393 974,370 2756,938 5077,1198 76,9 153,17 231,25 745,77 1500,115 2251,115 481,0 969,-17 1447,-47l0 -1c36,-2 73,-4 110,-7 1216,-83 2431,-276 3617,-560 77,-19 153,-37 229,-55 3959,-916 7608,2206 6696,5734 -338,1305 -252,2696 873,3821 1841,2200 1618,4009 1157,5148z"/>
  <path class="fil5" d="M50446 21015c-117,291 -264,571 -434,835 -79,126 -168,247 -263,362l-29403 0c26,-21 182,-147 423,-362 173,-154 391,-355 635,-596l3099 -640c40,-9 81,-13 122,-13l3304 -5 3 0 1637 -2 3 0 1381 -1 905 0 0 0 926 0 3794 -5 6 0 294 0 517 0 645 0 171 0 652 -8 215 0 1896 -3 605 0 0 0 291 0 0 0 2189 -2 652 0 2074 -3 1751 -2c48,-1 97,5 144,17l1766 428z"/>
  <path class="fil6" d="M20769 21850l29243 0c-79,126 -168,247 -263,362l-29403 0c26,-22 181,-148 423,-362z"/>
  <path class="fil7" d="M20769 21850l29243 0c-79,126 -168,247 -263,362l-29403 0c26,-22 181,-148 423,-362z"/>
  <path class="fil5" d="M39742 13622l-59 11 -2655 510c-772,148 -1554,297 -2338,240 -567,-41 -1097,-209 -1643,-357 -308,-84 -635,-117 -739,-462 -144,-476 90,-1181 146,-1664 53,-473 84,-959 -10,-1427 -21,-105 -49,-209 -83,-311 -94,-280 -243,-571 -163,-856 64,-225 256,-386 437,-536 353,-291 714,-617 855,-1053 68,-212 81,-440 155,-650 141,-399 494,-698 886,-856 393,-158 825,-192 1248,-192 374,0 750,26 1119,74 404,53 812,140 1168,341 355,200 655,529 737,930 118,566 -208,1169 -33,1719 88,279 291,503 432,758 142,263 216,558 216,857 0,185 -28,369 -84,545 -169,523 -582,1052 -371,1559 135,323 479,495 719,751 21,23 41,46 60,69z"/>
  <path class="fil8" d="M39683 13555l0 78 -2655 510c-772,148 -1554,297 -2338,240 -567,-41 -1097,-209 -1643,-357 -308,-84 -635,-117 -739,-462 -144,-476 90,-1181 146,-1664 53,-473 867,-2202 773,-2671l4868 212c33,259 1320,1556 1240,1804 -169,523 -582,1052 -371,1560 135,322 479,494 719,750z"/>
  <path class="fil9" d="M34709 12246c29,164 44,344 -40,487 -111,191 -354,252 -571,296l-754 150c-52,11 -106,22 -144,58 -46,40 -61,104 -68,164 -30,273 66,543 155,803 178,526 327,1064 552,1573 225,508 534,993 976,1333 441,340 1024,521 1564,388 471,-116 856,-448 1189,-800 274,-291 531,-609 664,-986 92,-260 122,-536 151,-809 44,-420 89,-839 134,-1259 20,-197 34,-418 -94,-569 -56,-66 -132,-111 -210,-152 -289,-153 -594,-280 -863,-466 -270,-185 -508,-440 -590,-756 -49,-190 -40,-397 -124,-574 -93,-199 -291,-333 -503,-392 -211,-59 -434,-51 -653,-26 -218,24 -1058,87 -1148,333 -48,132 152,416 200,546 78,213 137,434 177,658l0 0z"/>
  <path class="fil10" d="M34709 12246c29,164 44,344 -40,487 -111,191 -354,252 -571,296l-754 150c-52,11 -106,22 -144,58 -46,40 -61,104 -68,164 -30,273 66,543 155,803 178,526 327,1064 552,1573 225,508 534,993 976,1333 441,340 1024,521 1564,388 471,-116 856,-448 1189,-800 274,-291 531,-609 664,-986 92,-260 122,-536 151,-809 44,-420 89,-839 134,-1259 20,-197 34,-418 -94,-569 -56,-66 -132,-111 -210,-152 -289,-153 -594,-280 -863,-466 -270,-185 -508,-440 -590,-756 -49,-190 -40,-397 -124,-574 -93,-199 -291,-333 -503,-392 -211,-59 -434,-51 -653,-26 -218,24 -1058,87 -1148,333 -48,132 152,416 200,546 78,213 137,434 177,658l0 0z"/>
  <path class="fil11" d="M36523 15123l443 -936c207,-439 418,-900 396,-1384 -4,-97 -5,-217 80,-261 464,24 925,118 1363,276 85,31 172,66 231,134 60,67 84,158 104,246 69,294 121,595 151,896 80,747 40,1500 0,2249l-117 2287c0,1 0,3 0,4 0,31 -6,62 -19,90 -29,53 -95,71 -154,81 -227,39 -459,31 -689,22 -1620,-61 -3247,-156 -4856,41 7,-238 3,-476 -11,-715 -64,-1029 -331,-2032 -593,-3029 -153,-582 -300,-1217 -55,-1766 37,-86 89,-166 154,-233 104,-103 247,-157 388,-195 211,-58 430,-87 649,-87 33,0 67,1 99,2l1669 3632c76,166 139,341 214,505 69,-283 -13,-615 69,-922 204,-334 343,-639 484,-937z"/>
  <path class="fil0" d="M36349 17622c299,19 589,-134 794,-351 205,-216 341,-490 455,-767 165,-394 296,-804 391,-1220 80,-355 136,-722 81,-1081 -76,-496 -356,-947 -404,-1447 -8,-87 -3,-189 67,-242 43,-32 101,-37 155,-40 499,-30 1047,-24 1433,293 118,96 214,216 329,316 274,238 661,359 837,675 61,110 91,235 134,353 101,281 276,527 450,770 -169,711 -363,1423 -531,2134 -99,417 -198,836 -353,1236 -102,262 -230,529 -199,809 13,111 50,216 82,323 103,346 157,706 157,1066 0,29 -1,58 -1,86l-7550 18c362,-518 468,-1154 431,-1785 -17,-303 -86,-607 -238,-869 -240,-410 -661,-677 -1077,-906 -291,-158 -603,735 -918,632 51,-359 74,-1746 53,-2108 -7,-118 -18,-240 19,-353 25,-78 71,-147 102,-222 124,-302 5,-688 206,-945 139,-179 382,-230 579,-340 203,-113 360,-291 537,-443 346,-294 771,-484 1221,-545 131,207 212,444 233,688 14,154 4,310 25,462 30,208 115,402 200,594 354,798 709,1600 1157,2350 127,211 265,423 449,588 183,165 448,282 694,271z"/>
  <path class="fil8" d="M36376 17634c299,19 589,-134 794,-350 205,-216 341,-491 455,-768 165,-394 296,-803 391,-1220 80,-355 136,-722 81,-1081 -75,-496 -356,-947 -404,-1446 -8,-88 -3,-190 67,-242 44,-33 101,-37 155,-41 499,-29 1047,-24 1433,293 118,96 214,217 329,316 274,238 661,359 837,675 62,110 91,235 134,354 101,280 276,527 450,769 -169,712 -363,1423 -531,2134 -99,418 -198,837 -353,1236 -102,262 -230,529 -199,810 13,110 50,216 82,322 104,346 157,706 157,1067 0,28 -1,58 -1,85l-7550 19c362,-519 468,-1155 431,-1786 -17,-302 -86,-607 -238,-868 -239,-410 -661,-678 -1077,-906 -291,-159 -603,734 -918,632 51,-360 74,-1747 53,-2108 -7,-119 -17,-241 19,-354 25,-77 71,-147 102,-222 124,-302 5,-688 206,-945 139,-178 382,-229 579,-339 203,-114 360,-291 537,-443 346,-295 771,-484 1221,-546 132,207 212,444 233,688 14,154 4,310 25,463 30,207 116,401 201,593 353,799 708,1600 1157,2350 126,212 264,423 448,588 183,165 448,283 694,271z"/>
  <circle class="fil12" cx="35950" cy="9918" r="2268"/>
  <path class="fil5" d="M34760 12940c62,-587 -182,-1161 -458,-1682 -132,-250 -274,-498 -341,-772 -66,-274 -47,-584 123,-809 144,-192 373,-295 585,-408 599,-317 1145,-784 1408,-1408 -148,81 -110,323 22,429 131,107 310,127 471,178 588,185 941,772 1225,1321 46,89 93,183 92,284 0,101 -46,190 -94,276 -140,249 -311,488 -374,766 -73,317 4,651 103,963 106,331 247,665 501,902 254,238 648,356 960,203 -312,-537 -635,-1136 -513,-1744 59,-291 216,-556 284,-845 128,-552 -86,-1120 -295,-1647l-625 -1573c-96,-241 -205,-497 -424,-634 -148,-92 -327,-115 -501,-132 -559,-50 -1137,-33 -1658,175 -947,378 -1542,1312 -2013,2217 -141,271 -281,559 -275,865 3,168 50,331 88,495 155,665 164,1355 172,2039 6,524 -22,1018 -251,1496 314,62 770,231 1081,108 406,-161 656,-655 707,-1063z"/>
  <g id="_868141125504">
   <path class="fil8" d="M33221 12388c1,-75 1,-150 0,-226 -8,-684 -16,-1374 -171,-2039 -5,40 -7,81 -7,122 0,5 0,10 0,15 3,168 50,331 88,495 73,268 83,953 90,1633z"/>
   <path class="fil8" d="M38754 10594c-5,78 -17,157 -35,233 -67,291 -225,554 -284,845 4,-51 12,-102 21,-153 72,-372 230,-635 298,-925z"/>
   <path class="fil8" d="M37867 9952c13,-38 20,-77 20,-117 0,-101 -46,-195 -92,-285 -284,-548 -635,-1134 -1225,-1320 -161,-51 -340,-71 -471,-178 -69,-59 -111,-143 -116,-233 -287,527 -780,929 -1314,1212 -211,113 -441,216 -585,408 -136,180 -175,414 -152,640 13,-145 66,-284 152,-402 144,-192 373,-295 585,-408 534,-282 1027,-685 1314,-1212 5,90 47,174 116,233 132,106 310,127 471,178 588,185 941,772 1225,1321 28,52 52,107 72,163l0 0z"/>
   <path class="fil8" d="M38023 12742c-254,-238 -394,-571 -501,-902 -63,-186 -106,-380 -127,-575 -24,272 43,550 127,813 106,331 247,665 501,903 254,237 648,355 960,202 -37,-65 -75,-130 -112,-196 -290,82 -623,-35 -848,-245z"/>
   <path class="fil8" d="M34760 12702c-51,408 -301,902 -708,1063 -282,112 -684,-16 -991,-87 -26,74 -56,147 -90,218 314,62 770,231 1081,108 407,-162 657,-656 708,-1064 6,-63 9,-126 9,-188 0,-40 -1,-80 -3,-119 -2,23 -4,46 -6,69z"/>
  </g>
  <path class="fil11" d="M37966 19262c-409,-65 -824,-190 -1229,-106 -235,49 -450,166 -645,307 107,86 233,163 301,282 42,83 74,171 95,261 42,159 86,321 92,486 7,165 -26,337 -125,470 516,51 1015,-76 1518,-200 57,-10 112,-32 160,-65 80,-62 103,-173 104,-275 0,-181 -51,-357 -103,-531 -61,-208 -107,-422 -168,-629z"/>
  <path class="fil0" d="M40726 14799c203,27 360,190 476,359 325,468 466,1036 622,1584 194,682 422,1354 684,2014 56,152 125,301 205,442 66,110 145,215 174,339 70,300 -178,582 -436,749 -137,92 -287,165 -445,215 -154,46 -315,63 -474,81l-1469 158c-676,74 -1358,148 -2034,77 -43,-149 41,-253 34,-408 -4,-110 -52,-213 -96,-314 -80,-181 -133,-373 -157,-569 -7,-73 -10,-147 -38,-214 -27,-67 -86,-127 -158,-132 397,-40 698,-114 1095,-154 147,-15 300,-32 426,-110 156,-97 243,-272 312,-442 172,-421 283,-884 193,-1330 -74,-365 -281,-705 -280,-1078 0,-222 76,-437 165,-641 95,-214 218,-434 426,-543 208,-109 540,-115 775,-83z"/>
  <path class="fil13" d="M40726 14843c203,26 360,190 476,358 325,469 466,1036 622,1585 194,682 422,1353 684,2014 56,152 125,301 205,442 66,109 145,214 174,338 70,300 -178,582 -436,750 -137,92 -287,165 -445,214 -154,46 -315,64 -474,81l-1469 159c-676,74 -1358,147 -2034,76 -43,-148 41,-253 34,-407 -4,-110 -52,-213 -96,-315 -80,-180 -133,-373 -157,-569 -7,-72 -10,-146 -38,-213 -27,-67 -86,-128 -158,-133 397,-39 698,-114 1095,-153 147,-15 300,-32 426,-110 156,-97 243,-273 312,-442 172,-421 283,-885 193,-1330 -74,-366 -281,-706 -280,-1079 0,-222 76,-437 165,-640 95,-215 218,-434 426,-543 208,-109 540,-115 775,-83z"/>
  <path class="fil9" d="M31529 14456c96,-229 193,-464 196,-711 3,-268 -106,-522 -189,-776 -2,-9 -3,-19 -3,-28 0,-22 6,-44 16,-64 22,-31 65,-37 102,-45 183,-42 321,-190 436,-339 170,-432 258,-895 258,-1360 0,-114 -6,-229 -16,-342 87,-195 206,-433 420,-435 -87,403 -193,804 -319,1197 223,-57 436,-141 659,-198 38,-11 78,-18 119,-18 5,0 11,0 16,1 134,14 216,195 138,305 110,128 291,162 434,250 143,88 246,305 119,416 -25,21 -57,36 -75,64 -61,94 89,203 77,315 -10,92 -128,135 -217,111 -89,-25 -159,-91 -238,-140 -80,-49 -183,-80 -260,-29 -21,249 -43,503 -151,730 -39,82 -90,160 -122,246 -30,94 -49,191 -56,289l-96 878c-458,92 -869,-45 -1248,-317z"/>
  <path class="fil11" d="M31417 15243l-85 -572c-8,-46 -12,-93 -13,-140 0,-133 58,-259 115,-379 466,218 971,295 1486,296 68,0 146,-7 188,-60 88,101 91,263 53,391 -37,128 -109,244 -156,368 -24,64 -44,133 -90,181 -72,77 -187,91 -293,90 -111,-1 -221,-11 -330,-31 -282,-53 -593,-195 -875,-144z"/>
  <path class="fil0" d="M33159 15219c-363,-41 -723,-99 -1081,-174 -175,-37 -352,-78 -531,-71 -116,5 -242,28 -344,-30 100,340 106,698 -13,1031 -71,198 -179,383 -231,587 -108,428 41,894 -94,1313 -15,55 -43,105 -82,146 -41,38 -98,58 -136,99 -56,60 -59,151 -59,233l-3 729c-1,464 5,956 250,1349 279,450 867,683 1379,547 136,-35 264,-98 375,-184 178,-141 291,-345 402,-544 132,-239 264,-482 307,-750 30,-190 13,-383 -8,-574 -120,-1058 -380,-2108 -324,-3170 9,-194 76,-381 193,-537l0 0z"/>
  <path class="fil9" d="M34674 19611c-184,11 -370,22 -553,0 -132,-15 -261,-48 -392,-70 -133,-21 -267,-32 -401,-32 -595,0 -1172,211 -1626,595 -101,86 -204,220 -148,341 60,131 245,127 387,103 -153,73 -289,179 -397,310 -40,49 -77,106 -69,169 16,131 193,154 325,143 -43,46 -14,128 40,159 55,31 123,25 184,13 136,-24 268,-70 391,-135 -25,65 18,141 79,173 61,33 136,30 204,19 323,-53 593,-278 909,-366 504,-141 1032,84 1556,100 164,5 332,-12 482,-80 183,-83 331,-239 524,-295 216,-61 462,9 659,-97 143,-77 14,-670 -22,-785 -67,-209 -134,-347 -357,-368 -565,-56 -1207,71 -1775,103z"/>
  <path class="fil11" d="M36081 19450c0,0 855,723 362,1512l952 -329 0 -691c0,-32 -361,-525 -361,-525l-428 -66 -525 99z"/>
  <path class="fil14" d="M27136 19405l320 0c366,0 662,296 662,661l0 982 -1643 0 0 -982c0,-365 296,-661 661,-661l0 0z"/>
  <path class="fil8" d="M27136 19405l320 0c366,0 662,296 662,661l0 982 -1643 0 0 -982c0,-365 296,-661 661,-661l0 0z"/>
  <circle class="fil14" cx="27231" cy="19635" r="131"/>
  <circle class="fil14" cx="27231" cy="19470" r="131"/>
  <circle class="fil14" cx="27231" cy="19306" r="131"/>
  <circle class="fil14" cx="27231" cy="19142" r="131"/>
  <circle class="fil14" cx="27231" cy="18978" r="131"/>
  <circle class="fil14" cx="27231" cy="18813" r="131"/>
  <circle class="fil14" cx="27231" cy="18649" r="131"/>
  <circle class="fil14" cx="27428" cy="18715" r="131"/>
  <circle class="fil14" cx="27559" cy="18649" r="131"/>
  <circle class="fil14" cx="27691" cy="18583" r="131"/>
  <circle class="fil14" cx="27231" cy="18484" r="131"/>
  <circle class="fil14" cx="27231" cy="18320" r="131"/>
  <circle class="fil14" cx="27231" cy="18156" r="131"/>
  <circle class="fil14" cx="27231" cy="17991" r="131"/>
  <path class="fil15" d="M27777 17567c-33,5 -66,8 -99,11 -32,18 -68,29 -106,33 -32,5 -65,8 -98,10 43,-35 84,-88 126,-132 0,0 0,0 0,0 0,-32 -3,-64 -9,-96l186 174z"/>
  <path class="fil0" d="M28215 18221c-33,20 -71,33 -111,36 -32,5 -65,9 -98,11 -27,-7 -55,-11 -83,-11 -181,0 -329,148 -329,329 0,182 148,330 329,330 182,0 329,-148 329,-330 0,-105 -50,-203 -134,-265l97 -100z"/>
  <circle class="fil14" cx="27033" cy="18715" r="131"/>
  <circle class="fil14" cx="26902" cy="18649" r="131"/>
  <circle class="fil14" cx="26770" cy="18583" r="131"/>
  <path class="fil0" d="M26246 18221c34,20 72,33 111,36 32,5 65,9 98,11 27,-7 55,-11 83,-11 182,0 329,148 329,329 0,182 -147,330 -329,330 -182,0 -329,-148 -329,-330 0,-105 50,-203 135,-265l-98 -100z"/>
  <path class="fil14" d="M27136 19502l320 0c366,0 662,296 662,662l0 869c0,62 -50,112 -112,112l-1420 1c-62,-1 -112,-51 -112,-113l0 -869c0,0 0,0 0,0 0,-366 296,-662 661,-662 1,0 1,0 1,0l0 0z"/>
  <g id="_868141113856">
   <path class="fil16" d="M27786 17603c-14,14 -28,28 -43,40 15,0 30,-2 45,-3 0,-13 -1,-25 -2,-37z"/>
   <path class="fil17" d="M27546 17446c33,-2 66,-5 98,-10 -16,10 -34,17 -53,22 -15,-3 -30,-7 -45,-12l0 0z"/>
   <path class="fil17" d="M26738 17728c0,0 0,0 0,-1 0,-308 249,-557 557,-557 107,0 212,30 302,89l9 -9c-102,-91 -234,-142 -371,-142 -308,0 -558,250 -558,559 0,162 70,316 193,422 -85,-100 -132,-228 -132,-360 0,0 0,0 0,-1l0 0z"/>
  </g>
  <g id="_868141115520">
   <path class="fil18" d="M28006 18334c33,-3 66,-6 98,-11 -33,21 -71,33 -110,37l-27 3c13,-10 26,-20 39,-29l0 0z"/>
   <path class="fil18" d="M28020 18221c10,0 21,1 32,3 18,-19 34,-38 52,-57 -28,-8 -56,-11 -85,-11 -181,0 -328,147 -328,328 0,0 0,0 0,0 0,11 0,22 2,33 16,-168 158,-296 326,-296 0,0 1,0 1,0l0 0z"/>
  </g>
  <g id="_868043511312">
   <path class="fil8" d="M26455 18334c-33,-3 -66,-6 -98,-11 33,21 71,33 111,37l26 3c-12,-10 -26,-20 -39,-30l0 1z"/>
   <path class="fil8" d="M26442 18221c-11,0 -22,1 -33,3 -17,-19 -34,-38 -51,-57 27,-8 56,-11 84,-11 182,0 328,147 328,328 0,0 0,0 0,0 0,11 0,22 -1,33 -17,-168 -158,-296 -327,-296 0,0 0,0 0,0l0 0z"/>
  </g>
  <path class="fil15" d="M25550 21464l-2585 0c-60,0 -110,-50 -110,-110l0 -1224c0,0 0,0 0,0 0,-60 50,-110 110,-110 16,0 33,4 47,11 743,353 1543,473 2487,6 16,-8 32,-12 49,-12 61,0 110,49 110,110l0 1217c0,0 0,1 0,2 0,60 -48,109 -108,110l0 0z"/>
  <path class="fil8" d="M25550 21464l-2585 0c-60,0 -110,-50 -110,-110l0 -1224c0,0 0,0 0,0 0,-60 50,-110 110,-110 16,0 33,4 47,11 743,353 1543,473 2487,6 16,-8 32,-12 49,-12 61,0 110,49 110,110l0 1217c0,0 0,1 0,2 0,60 -48,109 -108,110l0 0z"/>
  <ellipse class="fil14" cx="24240" cy="20333" rx="153" ry="200"/>
  <ellipse class="fil14" cx="24240" cy="20089" rx="153" ry="200"/>
  <ellipse class="fil14" cx="24240" cy="19844" rx="153" ry="200"/>
  <ellipse class="fil14" cx="24240" cy="19599" rx="153" ry="200"/>
  <ellipse class="fil14" cx="24240" cy="19354" rx="153" ry="200"/>
  <ellipse class="fil14" cx="24240" cy="19109" rx="153" ry="200"/>
  <ellipse class="fil14" cx="24240" cy="18864" rx="153" ry="200"/>
  <path class="fil0" d="M24813 17188c21,-27 40,-55 57,-84l-402 -66 435 3c44,-96 67,-201 67,-307 0,-94 -18,-188 -53,-275l-583 303 538 -397c-33,41 -61,86 -84,134l-689 1094 -556 -188c102,-129 157,-289 157,-453 0,-164 -55,-324 -157,-453l1270 689z"/>
  <path class="fil8" d="M23503 17641c-101,130 -157,289 -157,454 0,404 329,733 734,733 404,0 733,-329 733,-733 0,-165 -56,-324 -157,-454 255,329 -1153,-82 -1153,0z"/>
  <path class="fil0" d="M25550 21528l-2585 0c-60,0 -110,-49 -110,-109l0 -1289c0,0 0,0 0,0 0,-60 50,-110 110,-110 16,0 33,4 47,11 743,353 1332,763 2487,6 69,-45 159,16 159,98l0 1283c0,0 0,0 0,1 0,59 -48,108 -108,109l0 0z"/>
  <polygon class="fil19" points="44732,21164 40918,21669 40727,21694 38863,20698 38863,20465 44690,19829 "/>
  <polygon class="fil20" points="39943,20804 44075,20317 44033,21079 40814,21315 "/>
  <path class="fil7" d="M40918 21418l0 250 -191 27 -1864 -997 0 -233 1780 952c0,0 233,22 275,1z"/>
  <path class="fil14" d="M41650 17445l-856 3970c-4,18 -6,36 -6,54 0,140 114,254 254,254 11,0 22,-1 33,-3l5417 -717c96,-12 177,-79 207,-171l1169 -3524c8,-26 13,-53 13,-80 0,-140 -114,-254 -254,-254 -4,0 -8,0 -12,0l-5729 272c-114,6 -211,87 -236,199l0 0z"/>
  <ellipse class="fil11" transform="matrix(0.104528 -0.994522 0.994522 0.104528 44479.7 18894.5)" rx="230" ry="148"/>
  <g id="_868040163408">
   <path class="fil4" d="M54975 19435c476,1856 1485,3461 3078,4238 3313,1616 10781,783 16355,-174 2884,-495 5417,-1860 7258,-3783l-26691 -281z"/>
   <path class="fil4" d="M84205 10699l-3058 0c-145,0 -264,-109 -264,-241 0,-133 118,-241 264,-241l529 0c-145,0 -264,-109 -264,-241 0,-133 118,-241 264,-241l-377 0c-146,0 -265,-109 -265,-241 0,-133 119,-241 265,-241l1596 0c-354,-150 -767,-257 -1245,-313 -4353,-510 -5907,-173 -6456,174 -682,437 -1442,741 -2237,894 -2686,505 -7708,1113 -12260,-195 -2263,-649 -3944,450 -4952,2284l28991 0c-37,-533 -151,-1026 -359,-1457 -48,38 -108,59 -170,59 -1,0 -1,0 -2,0l0 0z"/>
   <path class="fil4" d="M54716 15561c-43,402 -66,808 -66,1212 0,679 63,1360 185,2027l26851 895c739,-771 1370,-1647 1866,-2593l-28836 -1541zm10619 2310l-529 0c145,0 265,109 265,241 0,133 -120,241 -265,241l-3057 0c-145,0 -265,-108 -265,-241 0,-132 119,-241 265,-241l529 0c-145,0 -264,-108 -264,-241 0,-132 119,-241 264,-241l-378 0c-145,0 -265,-108 -265,-241 0,-132 119,-241 265,-241l3058 0c146,0 265,109 265,241 0,133 -119,241 -265,241l377 0c146,0 265,109 265,241 0,133 -119,241 -265,241z"/>
   <path class="fil4" d="M84738 12114l-29316 650c-357,836 -594,1780 -703,2760l29505 0c190,-571 336,-1164 426,-1759 88,-576 123,-1133 88,-1651zm-24066 2130l-529 0c145,0 264,108 264,241 0,133 -119,241 -264,241l-3058 0c-146,0 -265,-108 -265,-241 0,-133 119,-241 265,-241l529 0c-146,0 -265,-108 -265,-241 0,-132 119,-241 265,-241l-378 0c-146,0 -265,-108 -265,-241 0,-132 119,-241 265,-241l3058 0c146,0 265,109 265,241 0,133 -119,241 -265,241l378 0c145,0 264,109 264,241 0,133 -119,241 -264,241z"/>
   <path class="fil21" d="M74218 28522c0,-247 -891,-447 -1991,-447 -1099,0 -1990,200 -1990,447 0,246 891,447 1990,447 1100,0 1991,-201 1991,-447z"/>
   <path class="fil21" d="M80444 29941c0,-163 -1608,-295 -3591,-295 -1984,0 -3591,132 -3591,295 0,163 1607,295 3591,295 1983,0 3591,-132 3591,-295z"/>
   <path class="fil21" d="M66026 29494c0,-247 -1608,-447 -3591,-447 -1983,0 -3591,200 -3591,447 0,247 1608,447 3591,447 1983,0 3591,-200 3591,-447z"/>
   <path class="fil21" d="M70612 27257c0,-247 -1210,-447 -2702,-447 -1492,0 -2702,200 -2702,447 0,247 1210,447 2702,447 1492,0 2702,-200 2702,-447z"/>
   <path class="fil22" d="M70827 30979c0,-247 -968,-447 -2163,-447 -1195,0 -2163,200 -2163,447 0,247 968,447 2163,447 1195,0 2163,-200 2163,-447z"/>
   <path class="fil23" d="M69929 16626c-57,-385 -407,-1283 -407,-1283l0 0c-6,-26 -13,-53 -21,-79 -247,-852 -591,-926 -591,-926l-1229 -265c-56,-66 -93,-147 -108,-233 -2,-12 -4,-26 -6,-39 167,-163 262,-386 262,-619 0,-266 -123,-517 -332,-681 -13,-10 -26,-20 -39,-29 58,-62 59,-147 16,-233 -97,-201 -307,-328 -524,-391 -165,-47 -344,-62 -508,-11 -94,30 -179,80 -267,124 -163,82 -344,146 -465,280 -29,31 -56,71 -47,113 6,30 31,54 46,81 35,62 27,139 3,205 -24,67 -60,129 -76,197 -17,68 -11,149 41,198 28,24 52,51 73,82 49,65 97,131 145,197 69,87 130,180 183,277 36,71 64,147 112,211 15,19 31,36 49,51l-14 -5c30,89 114,149 208,149 13,0 25,-1 37,-3l0 0c3,0 5,0 8,0 11,0 21,-5 29,-12 0,9 0,18 0,26 3,95 3,195 -4,290l-11 -6c-14,-7 -29,-11 -45,-11 -22,0 -44,8 -61,22l-1132 908c0,0 -246,337 -212,918l-198 871c0,0 -248,739 -57,1267 191,528 301,830 301,830 0,0 76,599 191,648 115,49 164,76 164,76l23 143 0 0c0,0 7,14 21,38 83,145 392,656 571,602 20,121 30,244 30,368 0,17 0,35 0,52l177 1192c0,0 124,324 116,494 -7,170 145,412 145,412 -63,116 -97,245 -97,377 0,60 7,119 21,177 72,318 164,1780 164,1780l132 355 -4 416c-11,67 -39,131 -82,185 -86,93 -79,201 -286,328 -207,127 -337,175 -337,344 -1,23 -3,47 -7,70 -19,124 -56,191 324,227 446,42 744,-249 744,-249 0,0 66,-119 375,-167 0,0 105,-5 111,-99 2,-32 2,-94 0,-162 -5,-129 -17,-280 -34,-288 -20,-9 -56,-139 -69,-186l86 0c0,0 79,-600 0,-988 -79,-389 -8,-664 -8,-664l-15 -1026c0,0 -106,-113 -23,-313 83,-200 0,-1188 0,-1188 0,0 31,-355 119,-438 87,-83 4,-519 0,-542l156 524c0,0 68,1040 213,1229l42 471c0,0 298,434 241,668 -58,233 61,1079 61,1079l0 863c0,0 -134,347 53,472l79 -3c-27,24 -47,61 -78,93 -36,37 -56,177 -67,298 -10,101 -13,189 -13,189 0,0 79,127 229,136 149,8 642,383 642,383 0,0 487,0 613,-26l7 -2c18,-31 27,-65 27,-101 0,-14 -1,-28 -4,-42 -16,-74 -75,-156 -206,-225 -230,-249 -278,-410 -278,-410l-214 -320 31 0c0,0 -19,-339 213,-720l-15 -1679c0,0 95,-577 -68,-890 0,0 -14,-332 96,-434 109,-102 -146,-1131 -146,-1131 0,0 -53,-553 -115,-1057l0 0c257,244 524,-635 569,-791l7 0 -3 -12c2,-7 3,-11 3,-11l0 0c0,0 -57,-203 -16,-162 42,41 145,-113 145,-113 0,0 -15,-841 164,-1265 180,-424 -79,-1456 -79,-1456zm-878 11354l1 -2c26,513 -5,1609 -5,1609 0,0 -36,141 -73,306l-27 -1041 0 0 -26 -981 130 109zm-3173 -11173c0,0 129,1622 0,1855 -37,67 -68,186 -94,321 -43,-113 -133,-377 -101,-517 42,-181 -84,-656 -84,-667 0,-11 -11,-265 80,-458 91,-194 31,-278 31,-278 0,0 76,-317 168,-256z"/>
   <path class="fil24" d="M66194 20459c-113,497 -563,-254 -665,-434 -13,-24 -21,-38 -21,-38l49 -228 258 -106c40,22 79,47 115,75 141,111 351,347 264,731z"/>
   <path class="fil24" d="M69679 19647c0,0 0,3 -3,11 0,3 -2,7 -3,12 -45,155 -306,1028 -559,785 -277,-264 -143,-876 -143,-876l2 0 582 -60 116 119c0,0 0,0 0,0l8 9z"/>
   <path class="fil25" d="M69342 23942l15 1667c-228,378 -210,714 -210,714l-752 30c-184,-123 -53,-468 -53,-468l0 -858c0,0 -116,-838 -60,-1071 56,-232 -236,-661 -236,-661l-41 -468c-142,-187 -210,-1221 -210,-1221l-152 -521c4,22 83,458 0,538 -84,80 -117,434 -117,434 0,0 83,981 0,1179 -82,198 23,311 23,311l15 1019c0,0 -71,273 7,658 79,386 0,981 0,981l-807 0 4 -415 -131 -352c0,0 -90,-1453 -161,-1767 -13,-58 -20,-117 -20,-176 0,-131 32,-260 94,-375 62,-115 -149,-239 -142,-408 8,-168 -115,-490 -115,-490l-174 -1183c0,-15 0,-32 0,-48 0,-211 -29,-422 -86,-625 -101,-337 -251,-779 -251,-779l169 15 853 76c0,0 2074,-140 2167,-24 19,38 33,79 39,121 93,418 216,1729 216,1729 0,0 251,1022 143,1123 -108,101 -94,430 -94,430 161,311 67,885 67,885z"/>
   <path class="fil26" d="M67589 26838c-6,92 -109,98 -109,98 -304,48 -368,166 -368,166 0,0 -291,289 -730,247 -373,-36 -337,-103 -318,-226 4,-23 6,-46 6,-69 0,-169 129,-216 332,-344 202,-128 196,-233 280,-326 84,-92 93,-272 93,-272 95,-166 337,26 337,26 11,59 370,51 370,51 0,0 48,191 73,202 16,8 28,157 33,286 2,67 3,129 1,161z"/>
   <path class="fil8" d="M67589 26838c-6,92 -109,98 -109,98 -304,48 -368,166 -368,166 0,0 -291,289 -730,247 -373,-36 -337,-103 -318,-226 167,42 486,99 672,-2 258,-140 444,-238 444,-238l408 -206c2,67 3,129 1,161z"/>
   <path class="fil26" d="M69874 27337c-20,37 -53,65 -93,77l-7 2c-124,27 -601,27 -601,27 0,0 -483,-374 -629,-382 -146,-9 -225,-135 -225,-135 0,0 3,-87 12,-188 12,-120 31,-258 67,-295 64,-67 79,-159 224,-101 0,0 208,-366 452,-83l253 384c0,0 48,158 368,331 128,68 185,149 202,223 2,14 4,27 4,41 0,35 -9,69 -27,99l0 0z"/>
   <path class="fil8" d="M69874 27337c-29,24 -60,50 -93,77l-7 2c-124,27 -601,27 -601,27 0,0 -483,-374 -629,-382 -146,-9 -225,-135 -225,-135 0,0 3,-87 12,-188 149,45 374,123 434,208 93,129 374,309 374,309 0,0 525,-51 758,-58 2,14 4,27 4,41 0,35 -9,69 -27,99l0 0z"/>
   <path class="fil24" d="M67833 14273l-690 729c0,0 -837,-61 -691,-308 74,-126 86,-390 79,-619 -6,-221 -29,-409 -29,-409 0,0 1174,-584 1085,-39 -10,54 -15,109 -15,164 0,49 4,98 12,147 50,275 249,335 249,335z"/>
   <path class="fil8" d="M67586 13627c-162,164 -383,256 -613,256 0,0 -1,0 -1,0 -159,0 -331,-130 -459,-206 -6,-221 -7,-322 -7,-322 0,0 1170,-273 1080,272z"/>
   <path class="fil24" d="M67833 13284c0,0 0,0 0,0 0,478 -387,865 -865,865 -477,0 -865,-387 -865,-865 0,-477 388,-865 865,-865 196,0 387,67 540,189 205,164 325,413 325,676l0 0z"/>
   <path class="fil8" d="M69010 19775c-215,513 -1601,523 -1601,523l0 -559 -84 -5c37,160 -51,550 -51,550 -1094,155 -1361,-469 -1361,-469l38 -214 853 76c0,0 2074,-139 2167,-23 19,38 33,79 39,121l0 0z"/>
   <path class="fil0" d="M67409 20231l0 -559 -84 -5c37,158 -51,550 -51,550 -823,116 -1178,-208 -1304,-376 -22,-29 -41,-60 -57,-93l334 -1881 80 -2769 119 -486 28 -233 0 -3 3 0 85 37 510 220 579 -437 9 -6 29 -22 47 38 119 96 382 2465c0,0 662,1899 786,2665 5,31 9,59 12,86 82,700 -1626,713 -1626,713z"/>
   <circle class="fil27" cx="67134" cy="14688" r="49"/>
   <circle class="fil27" cx="67157" cy="15137" r="49"/>
   <circle class="fil27" cx="67206" cy="15865" r="49"/>
   <circle class="fil27" cx="67287" cy="16648" r="49"/>
   <circle class="fil27" cx="67336" cy="17383" r="49"/>
   <circle class="fil27" cx="67386" cy="18167" r="49"/>
   <circle class="fil27" cx="67366" cy="18942" r="49"/>
   <path class="fil8" d="M66507 18140c0,0 -55,721 -156,930 -101,210 -146,798 -146,798l-235 -27c-22,-29 -42,-60 -58,-93l335 -1881 79 -2769 120 -486 28 -233 3 -1c13,-6 27,-9 41,-9 15,0 30,3 43,10l11 6c-3,9 -7,19 -10,29 -91,287 -125,815 -125,815 0,0 132,966 146,1415 14,450 -76,1496 -76,1496z"/>
   <path class="fil8" d="M65930 19729c-3,6 -6,12 -9,18 -91,153 -322,251 -392,278 -13,-24 -21,-38 -21,-38l49 -228 258 -106c40,22 79,47 115,76l0 0z"/>
   <path class="fil27" d="M65306 16053l-213 127 -195 865c0,0 -243,733 -56,1258 187,524 296,824 296,824 0,0 75,595 187,644 112,49 161,75 161,75l22 142c0,0 305,-103 413,-286 108,-182 -79,-635 -79,-635 0,0 -161,-385 -120,-565 41,-180 -83,-652 -83,-662 0,-10 -11,-262 80,-455 90,-193 30,-275 30,-275l-56 -550 -387 -507z"/>
   <path class="fil8" d="M69028 19613c0,0 -566,213 -745,27 -180,-187 -162,-1064 -162,-1064 0,0 -172,-1617 -280,-1883 -109,-265 -53,-2183 -53,-2183 0,0 -73,-248 -137,-312 -4,-5 -9,-8 -14,-11l22 5 77 16 119 95 382 2466c0,0 661,1898 785,2665l6 179z"/>
   <path class="fil8" d="M69679 19669l-6 0c-72,9 -700,85 -702,-45 0,-1 0,-2 0,-3 0,-14 1,-28 2,-43l582 -59 116 118c0,0 0,0 0,0 2,8 3,15 5,20l3 12z"/>
   <path class="fil27" d="M69076 15186l413 216c0,0 344,890 399,1272 0,0 255,1023 79,1444 -175,420 -160,1255 -160,1255 0,0 -102,154 -143,113 -41,-41 15,161 15,161 0,0 -705,93 -708,-45 -3,-139 162,-801 162,-801 0,0 45,-1577 -19,-1824 -64,-247 -38,-1791 -38,-1791z"/>
   <path class="fil8" d="M67845 16865c0,0 -233,569 -308,607 -74,37 16,187 16,187 0,0 423,-592 292,-794z"/>
   <path class="fil8" d="M67706 14870c3,-11 -277,274 -352,317 -75,43 273,-2 352,-317z"/>
   <path class="fil8" d="M66927 16820c0,0 -426,276 -370,385 56,110 370,-385 370,-385z"/>
   <path class="fil8" d="M67702 20848c0,0 364,234 929,291l-929 -291z"/>
   <path class="fil8" d="M66830 21410c0,0 337,423 491,434 153,11 -491,-434 -491,-434z"/>
   <path class="fil8" d="M67302 23069c-15,8 -191,382 -371,393 -179,12 371,-393 371,-393z"/>
   <path class="fil8" d="M68863 23889c0,0 334,-75 408,165 0,-1 -22,-76 -408,-165z"/>
   <path class="fil8" d="M68638 25259c0,0 405,-83 491,30 86,112 -491,-30 -491,-30z"/>
   <path class="fil8" d="M67494 25450c0,4 -412,83 -397,135 15,53 439,45 454,-37 2,-7 3,-14 3,-21 0,-36 -25,-68 -60,-77l0 0z"/>
   <path class="fil8" d="M68503 25805c0,0 677,-82 635,60 -41,143 -635,-60 -635,-60z"/>
   <path class="fil8" d="M64962 17472c3,11 445,71 505,213 0,0 -434,-202 -503,-202m-2 -11l0 0 0 0z"/>
   <path class="fil8" d="M65583 18628c0,0 -367,116 -341,291 27,175 -37,-81 341,-291z"/>
   <path class="fil8" d="M65412 19519c0,0 134,-183 261,-149 127,33 -261,149 -261,149z"/>
   <path class="fil8" d="M67508 12608c-13,13 -27,24 -43,32 -106,62 -135,157 -185,266 -47,101 -99,207 -193,264 -122,73 -283,46 -409,110 -293,-146 -479,-446 -479,-773 0,-478 388,-865 865,-865 196,0 387,67 540,189l-96 777z"/>
   <path class="fil28" d="M67485 12348c-95,-200 -301,-326 -514,-388 -162,-47 -338,-62 -499,-10 -92,29 -175,79 -261,122 -160,81 -337,145 -457,278 -29,31 -53,71 -46,112 6,30 30,53 45,81 35,61 27,137 3,203 -25,67 -59,128 -75,196 -17,68 -10,148 40,196 23,21 51,35 76,53 27,24 51,51 72,81l142 196c67,86 127,179 179,275 36,70 63,146 111,209 47,64 122,114 200,108 3,-6 4,-12 4,-18 0,-1 0,-2 0,-2 7,-48 11,-96 11,-144 0,-61 -6,-122 -17,-182 -1,-10 -1,-20 -1,-30 0,-119 66,-228 171,-283 127,-64 287,-37 409,-110 95,-57 146,-163 193,-265 51,-109 79,-204 185,-266 106,-62 82,-307 29,-412z"/>
   <path class="fil8" d="M67098 26484c0,0 132,168 98,264 -34,96 -98,-264 -98,-264z"/>
   <path class="fil8" d="M68888 26906c0,0 29,-226 147,-229 118,-2 124,-12 214,23 89,35 174,88 147,96 -27,8 -155,-129 -286,-59 -82,45 -157,102 -222,169l0 0z"/>
   <path class="fil8" d="M66703 14917l371 -260c0,0 -542,-320 -607,-275 -64,45 -109,450 -109,450l345 85z"/>
   <path class="fil29" d="M66702 14900l370 -264c0,0 -542,-321 -606,-276 -65,45 -109,472 -109,472l345 68z"/>
   <path class="fil3" d="M66702 14900l370 -264c0,0 -542,-321 -606,-276 -65,45 -109,472 -109,472l345 68z"/>
   <path class="fil27" d="M66527 14362l-11 -5c-14,-7 -29,-11 -44,-11 -22,0 -43,8 -60,22l-1111 901c0,0 -242,334 -208,911l655 928c0,0 75,-314 165,-254 0,0 127,1610 0,1842 -128,232 -184,1100 -184,1100l431 49c0,0 45,-588 146,-797 101,-210 156,-930 156,-930 0,0 91,-1047 76,-1496 -15,-450 -146,-1416 -146,-1416 0,0 37,-566 135,-844z"/>
   <path class="fil8" d="M67634 14753l-462 -171c0,0 588,-644 662,-287l-200 458z"/>
   <path class="fil29" d="M67634 14730l-462 -171c0,0 588,-644 662,-286l-200 457z"/>
   <path class="fil3" d="M67634 14730l-462 -171c0,0 588,-644 662,-286l-200 457z"/>
   <path class="fil8" d="M67619 14182c1,0 3,0 4,0 5,0 11,2 15,5l-19 -5z"/>
   <path class="fil27" d="M67663 14138l1225 264c0,0 338,75 581,921 243,846 -333,1883 -333,1883l-128 -108 64 2471c0,0 -565,213 -745,26 -180,-187 -161,-1064 -161,-1064 0,0 -172,-1617 -281,-1883 -109,-266 -53,-2183 -53,-2183 0,0 -100,-342 -169,-327z"/>
   <path class="fil8" d="M68784 15712c-17,16 -37,764 38,1333 45,346 116,689 211,1025l-111 -2280c0,0 -85,-127 -138,-78z"/>
   <path class="fil8" d="M68634 15068c30,19 162,330 102,457 -61,127 -102,-457 -102,-457z"/>
   <path class="fil8" d="M67478 12348c86,61 155,143 202,238 53,106 37,212 -66,270 -102,58 -134,156 -185,266 -47,100 -98,206 -193,264 -122,74 -282,47 -409,111 -1,-10 -2,-21 -2,-31 0,-118 66,-227 171,-282 127,-64 288,-37 409,-111 95,-57 147,-163 193,-264 51,-110 80,-205 186,-266 105,-62 -253,-90 -306,-195z"/>
   <path class="fil30" d="M75015 15671c-364,-8 -686,-265 -868,-580 0,-6 1,-12 1,-18 0,-6 -1,-13 -1,-19 -1,-6 0,0 0,-2 8,-67 -31,-132 -80,-178 -48,-46 -109,-79 -160,-125 -157,-137 -204,-358 -207,-568l0 -11c1,-90 9,-180 8,-270 0,-9 0,-19 0,-28 0,-42 -2,-84 -7,-125 -15,-128 -63,-257 -163,-338 -261,-212 -700,8 -970,-192 -66,-49 -119,-121 -198,-140 -60,-14 -123,5 -182,25 -199,65 -421,152 -498,344 -45,110 -32,236 -73,348 -27,74 -77,139 -114,210 -10,22 -23,43 -39,62 -50,62 -128,105 -181,167 -98,114 -95,268 -46,401 48,134 135,255 195,385 26,57 46,119 20,176 -19,38 -58,68 -88,102 -44,49 -72,111 -79,177 -596,136 -597,615 -597,615l0 0 -321 809c0,0 -52,136 -113,316l-380 -68 264 443c-50,180 -85,347 -73,431 0,0 -119,556 92,653l464 209c20,12 41,22 64,29l19 8c6,3 14,5 21,5 8,0 15,-2 22,-5l-14 0 5 0c0,0 -1,-1 -1,-1 0,-1 1,-1 1,-2l139 -40 117 140c53,37 106,69 156,98l-182 1811c0,0 -30,2407 -118,2956 -33,203 -34,342 -21,436l-4 6c22,155 80,185 80,185l0 -2c27,-70 58,-139 95,-204 0,13 0,26 0,40 -2,204 -8,490 -29,676 -36,317 92,1364 92,1364l44 952c1,13 1,26 1,39 0,149 -38,295 -110,425 -105,190 -241,458 -250,577 -1,3 -1,6 -1,10 0,3 0,6 1,9l0 0 -174 210c0,0 -89,137 111,193 108,29 294,0 443,-36 38,-131 102,-253 187,-359l38 219 250 62 32 -601c11,-30 17,-62 17,-95 0,-3 0,-7 0,-11l0 0c49,-428 -116,-389 -116,-389 4,4 7,9 8,15l-8 -15 0 0c-101,-200 -53,-529 -53,-529 0,0 132,-953 177,-1204 33,-178 20,-760 9,-1085 0,-13 0,-26 -2,-39 388,-5 862,-18 1195,-51l0 40 -61 2250c-4,143 -33,285 -86,418 0,3 -2,5 -3,8 -73,188 -114,388 -122,590l-29 714 0 20 0 0c-49,19 -128,74 -130,235 -4,235 411,156 411,156 413,0 417,-430 417,-430 0,0 13,-395 33,-660 19,-264 -63,-206 -63,-206l-6 752c0,2 0,4 0,6l0 -947 6 -96 0 -2 0 0 0 -21 282 -775c0,0 381,-1292 440,-1540 42,-176 25,-707 11,-1001 0,-13 0,-26 -2,-38 118,-11 222,-12 264,-12l20 0c0,0 -20,-2076 -69,-2858 -50,-782 -129,-1497 -326,-1713 -119,-130 -285,-532 -397,-830 235,102 481,182 730,238 624,131 539,-411 539,-411l-63 -1024 4 0c-2,-268 -26,-538 -69,-802 -33,-203 -84,-413 -161,-582 68,-26 135,-55 200,-84 170,-75 361,-181 385,-363l-8 0c3,-13 5,-27 6,-40l0 0zm-3875 1521l0 0c1,106 -3,290 -9,493l-198 -265 199 -322 8 94zm2662 498zm82 400l-330 -106c59,-91 127,-176 204,-252l29 -27 -11 2 16 -14 10 -2 -15 14 18 -3c19,82 58,160 112,226 119,129 -32,162 -32,162l-1 0z"/>
   <polygon class="fil31" points="71878,27615 71840,28347 71594,28285 71542,27981 "/>
   <polygon class="fil8" points="71878,27615 71840,28347 71594,28285 71542,27981 "/>
   <path class="fil32" d="M72783 28444l375 78 279 -246 0 -694 6 -94 0 -3 0 0 0 -20 52 -771c0,0 376,-1283 435,-1529 41,-175 24,-702 10,-993 -6,-120 -10,-200 -10,-200l-830 -200 -17 637 -61 2234c-4,142 -33,284 -85,416l-3 8c-72,187 -113,385 -120,585l-28 710 0 20 -3 62z"/>
   <polygon class="fil8" points="73443,27465 73443,27485 73443,27485 73443,27465 "/>
   <path class="fil8" d="M72783 28444l375 78 279 -246 0 -59c-2,26 -17,50 -40,63l-4 3c-108,57 -228,86 -350,86 -24,0 -48,-1 -72,-3l-146 -12c-14,1 -27,4 -39,9l0 20 -3 61z"/>
   <path class="fil26" d="M73393 28302l4 -2c25,-14 40,-40 40,-69l7 -746c0,0 80,-58 61,204 -20,263 -32,655 -32,655 0,0 -4,427 -412,427 0,0 -408,78 -405,-155 3,-234 169,-243 169,-243l146 13c24,2 48,3 72,3 122,0 242,-30 350,-87l0 0z"/>
   <path class="fil32" d="M70826 28285c9,169 505,72 505,72l334 -648c0,0 278,-214 139,-402 -8,-10 -14,-21 -21,-32 -6,-11 0,0 -1,-2l0 0c-3,-4 -5,-9 -8,-15l0 0c-100,-198 -51,-524 -51,-524 0,0 130,-946 175,-1195 32,-176 19,-755 8,-1078 -4,-134 -8,-225 -8,-225l-823 -220c0,0 0,103 0,246 -2,203 -8,486 -29,671 -36,314 91,1354 91,1354l43 947c1,13 1,27 1,41 0,146 -37,291 -107,419 -103,189 -238,455 -247,573 -1,6 -1,12 -1,18 0,0 0,0 0,0l0 0z"/>
   <path class="fil8" d="M70826 28285c9,169 505,72 505,72l334 -648c0,0 278,-214 139,-402 -8,-10 -14,-21 -21,-32 -4,98 -112,344 -112,344 0,0 -275,551 -363,677 -87,126 -468,-23 -482,-29 0,4 -1,7 -1,11 0,2 1,5 1,7l0 0z"/>
   <path class="fil26" d="M71774 27257c0,0 163,-37 114,387l0 0c0,3 0,7 0,10 0,95 -48,183 -129,233 -116,73 -296,231 -387,537l0 0c0,0 0,0 0,1 0,136 -94,254 -226,285 -148,34 -331,65 -437,35 -198,-55 -110,-191 -110,-191l227 -269c0,0 395,155 482,29 88,-127 363,-677 363,-677 0,0 151,-344 103,-380z"/>
   <path class="fil8" d="M73100 23850l-17 638c221,-22 379,-52 406,-94 58,-90 270,-128 451,-144 -6,-119 -10,-199 -10,-199l-830 -201z"/>
   <path class="fil8" d="M71075 24339c21,-43 52,-81 91,-109 87,-49 77,311 77,311 0,0 292,2 663,-2 -4,-135 -8,-225 -8,-225l-823 -220c0,0 2,102 0,245z"/>
   <path class="fil25" d="M70981 24424c0,0 97,-264 185,-311 88,-47 78,311 78,311 0,0 2138,19 2245,-146 107,-166 729,-156 729,-156 0,0 -19,-2060 -68,-2838 -48,-777 -126,-1487 -320,-1701 -126,-138 -305,-586 -416,-884 -60,-163 -100,-282 -100,-282l-2041 116 -16 166 -217 2167c0,0 -29,2391 -117,2935 -87,545 58,623 58,623z"/>
   <g>
    <path class="fil8" d="M73323 24278c106,-165 729,-156 729,-156 0,0 -19,-2060 -68,-2838 -49,-777 -126,-1487 -321,-1701 -126,-139 -304,-586 -415,-884 -50,-137 -87,-243 -97,-273l159 -9c0,0 40,119 100,282 111,298 290,746 415,884 195,214 273,924 321,1701 48,778 68,2838 68,2838 0,0 -622,-9 -729,156 -91,141 -1665,147 -2121,146 586,-1 1877,-19 1959,-146z"/>
    <path class="fil8" d="M71000 24113c39,-22 59,39 69,112 -35,64 -66,131 -92,199 -26,68 -56,-30 -79,-185 32,-55 68,-107 102,-126z"/>
   </g>
   <path class="fil28" d="M71612 13431c-142,193 1,467 -150,654 -50,62 -127,106 -179,167 -97,113 -93,266 -46,398 47,132 132,253 193,382 26,56 46,119 19,174 -18,39 -57,68 -86,102 -98,108 -100,259 -48,387 52,129 152,239 251,347 39,43 88,90 153,88 327,-167 534,-504 534,-871 0,-140 -31,-279 -88,-406 -83,-197 -219,-385 -221,-593 0,-165 85,-322 100,-486 18,-200 -100,-516 -340,-604 112,97 -21,162 -92,261z"/>
   <path class="fil8" d="M71612 13431c-142,193 1,467 -150,654 -50,62 -127,106 -179,167 -97,113 -93,266 -46,398 47,132 132,253 193,382 26,56 46,119 19,174 -18,39 -57,68 -86,102 -98,108 -100,259 -48,387 52,129 152,239 251,347 39,43 88,90 153,88 327,-167 534,-504 534,-871 0,-140 -31,-279 -88,-406 -83,-197 -219,-385 -221,-593 0,-165 85,-322 100,-486 18,-200 -100,-516 -340,-604 112,97 -21,162 -92,261z"/>
   <path class="fil8" d="M73179 20438c-283,15 -549,136 -797,274 -248,138 -487,293 -754,391m1551 -665l0 0 0 0z"/>
   <path class="fil8" d="M73003 21104c-280,27 -541,154 -734,357 -69,73 -128,155 -200,225 -110,107 -246,184 -394,223m1328 -805l0 0 0 0z"/>
   <path class="fil8" d="M73061 21612c-226,62 -430,185 -591,356 -43,47 -82,97 -126,143 -234,252 -565,385 -884,511m1601 -1010l0 0 0 0z"/>
   <path class="fil32" d="M73037 14578c5,224 26,453 58,675 26,159 63,302 117,365 155,185 -758,433 -758,433l-540 -418c0,0 428,-394 228,-778 -199,-384 895,-277 895,-277z"/>
   <path class="fil8" d="M71256 18699l2158 0c-60,-163 -100,-282 -100,-282l-2041 116 -17 166z"/>
   <path class="fil0" d="M71117 18660l2307 0c-65,-232 0,-447 93,-612 64,-115 146,-221 241,-313l16 -15 805 -178 44 -10c0,0 6,-1464 -512,-1665 -519,-201 -830,-473 -830,-473l-712 220 -525 -264c-169,181 -616,110 -616,110 -732,84 -732,635 -732,635 0,0 428,997 460,997 33,0 -39,1568 -39,1568z"/>
   <path class="fil8" d="M71914 17729c0,0 -471,-104 -631,-287m631 287l0 0 0 0z"/>
   <path class="fil8" d="M74286 17182l-546 448c4,35 10,71 18,105l16 -14 805 -178 -293 -361z"/>
   <path class="fil8" d="M72809 18504c0,0 119,67 302,156l313 0c-65,-232 0,-447 93,-612l-553 -179c188,175 -155,635 -155,635z"/>
   <path class="fil0" d="M71020 15919l-324 175 -317 803c0,0 -331,881 -299,1115 0,0 -116,551 91,648l540 244c6,3 13,5 20,5 28,0 50,-23 50,-51 0,-8 -2,-16 -5,-23 -77,-146 -162,-374 -27,-499l-155 -324 562 -920 188 -318 -324 -855z"/>
   <path class="fil8" d="M71740 17545c28,114 123,291 437,357l344 282 366 165 149 68 63 -457 -144 -79 -167 -92c0,0 -378,-684 -976,-397 -46,22 -76,69 -76,120 0,11 2,22 4,33l0 0z"/>
   <path class="fil32" d="M71760 17506c28,115 122,291 436,357l344 282 366 166 149 67 63 -457 -143 -79 -166 -91c0,0 -379,-684 -977,-396 -46,22 -76,69 -76,120 0,10 2,21 4,31l0 0z"/>
   <path class="fil8" d="M73270 14334c0,-461 -374,-835 -836,-835 -461,0 -836,374 -836,835 0,462 375,836 836,836 462,0 836,-374 836,-836z"/>
   <circle class="fil32" cx="72434" cy="14315" r="836"/>
   <path class="fil8" d="M72952 16101l-251 -488c0,0 367,-149 394,-321 27,-173 352,202 282,326 -70,124 -425,483 -425,483z"/>
   <path class="fil0" d="M72952 16062l-251 -488c0,0 367,-149 394,-321 27,-172 352,202 282,326 -70,124 -425,483 -425,483z"/>
   <path class="fil33" d="M70895 17324l1389 1867c0,0 -512,279 -1218,-220l-304 -363 -869 -1466 1002 182z"/>
   <path class="fil32" d="M70621 18339l127 -3c0,0 773,-750 962,-371 190,380 -481,734 -481,734l-204 110 -266 80 -170 -229 32 -321z"/>
   <path class="fil8" d="M70808 18744c12,43 23,91 3,131 -44,-50 -82,-105 -113,-164 -34,-60 -70,-126 -58,-194 14,-75 80,-126 144,-168 128,-85 132,14 160,123 28,109 -165,162 -136,272z"/>
   <path class="fil0" d="M70789 18744c11,43 22,91 3,131 -45,-49 -83,-105 -113,-164 -35,-60 -71,-126 -58,-194 13,-75 79,-126 143,-168 129,-85 133,14 161,123 28,109 -166,162 -136,272z"/>
   <polygon class="fil8" points="71156,17092 71221,16982 71164,17185 "/>
   <path class="fil8" d="M72907 18311l149 67 63 -457 -143 -79c99,114 12,324 -69,469z"/>
   <path class="fil8" d="M73505 17780c0,0 -481,29 -685,-102m685 102l0 0 0 0z"/>
   <g>
    <path class="fil8" d="M73445 18087c23,-14 47,-27 72,-39l749 -154 44 -9c0,0 6,-1465 -512,-1666 -290,-110 -563,-264 -809,-455l57 -17c0,0 311,272 830,472 518,201 511,1666 511,1666l-77 0 -768 147c0,0 -33,32 -43,41 -96,96 -179,206 -245,324 36,112 97,215 177,302l-79 0c-64,-232 2,-447 93,-612z"/>
    <path class="fil8" d="M71397 15502c13,-2 25,-4 38,-5 52,7 106,12 159,13 -13,0 -27,1 -40,1 -52,0 -105,-3 -157,-9l0 0z"/>
    <path class="fil8" d="M72497 15653l-474 -240c9,-8 18,-16 26,-25l495 250 -47 15z"/>
   </g>
   <path class="fil0" d="M74304 17142l318 389 65 1057c0,0 84,537 -532,408 -615,-130 -1327,-531 -1327,-531 0,0 344,-460 155,-635l882 286c0,0 149,-33 32,-162 -117,-130 -137,-363 -137,-363l544 -449z"/>
   <path class="fil8" d="M74448 18258l175 201c-92,-28 -160,-106 -175,-201l0 0z"/>
   <polygon class="fil8" points="74150,18226 74422,18575 74286,18608 "/>
   <path class="fil8" d="M71436 13931c-30,-73 -7,-158 29,-227 36,-69 85,-135 112,-209 40,-111 28,-236 72,-344 77,-192 296,-278 492,-344 58,-19 119,-39 179,-24 79,18 131,90 195,139 267,198 699,-20 957,190 98,79 146,209 161,335 15,126 0,255 -2,382 -4,223 38,466 205,614 50,44 109,78 158,124 50,46 88,110 80,177 -7,30 -16,61 -27,90 -33,116 17,238 77,344 180,311 497,568 857,575 -24,181 -212,287 -380,361 -212,95 -437,188 -670,176 -233,-12 -476,-161 -517,-391 -14,-79 -12,-174 -79,-216 -42,-25 -95,-19 -140,-37 -64,-27 -96,-99 -117,-165 -43,-137 -67,-280 -69,-424 -3,-170 20,-356 -77,-496 -89,-130 -248,-196 -351,-316 -96,-110 -199,-243 -355,-264 -216,-30 -663,263 -790,-50z"/>
   <path class="fil28" d="M71436 13893c-30,-74 -7,-159 29,-228 36,-69 85,-135 112,-209 40,-111 28,-236 72,-344 77,-192 296,-278 492,-344 58,-19 119,-39 179,-24 79,19 131,90 195,139 267,198 699,-20 957,190 98,79 146,209 161,336 15,126 0,254 -2,381 -4,223 38,466 205,614 50,44 109,78 158,124 50,46 88,110 80,177 -7,30 -16,61 -27,90 -33,116 17,238 77,344 180,310 496,568 856,575 -24,181 -212,287 -380,361 -211,95 -437,188 -670,176 -233,-12 -476,-161 -517,-391 -14,-79 -12,-175 -79,-216 -42,-25 -95,-19 -139,-37 -65,-27 -97,-99 -118,-166 -43,-137 -66,-279 -69,-423 -3,-170 20,-356 -77,-496 -89,-130 -248,-196 -351,-316 -95,-110 -199,-244 -355,-264 -215,-30 -662,264 -789,-49z"/>
   <path class="fil8" d="M72029 16040l479 -388c0,0 -328,-178 -367,-330 -39,-152 -302,72 -275,208 27,136 163,510 163,510z"/>
   <path class="fil0" d="M72048 15982l479 -389c0,0 -328,-177 -366,-329 -37,-152 -301,72 -275,208 27,136 162,510 162,510z"/>
   <path class="fil8" d="M72584 15919c0,-21 -17,-38 -38,-38 -21,0 -38,17 -38,38 0,21 17,38 38,38 21,0 38,-17 38,-38z"/>
   <path class="fil8" d="M72584 16130c0,-21 -17,-38 -38,-38 -21,0 -38,17 -38,38 0,21 17,39 38,39 21,0 38,-18 38,-39z"/>
   <path class="fil8" d="M72584 16342c0,-21 -17,-38 -38,-38 -21,0 -38,17 -38,38 0,21 17,38 38,38 21,0 38,-17 38,-38z"/>
   <g>
    <path class="fil8" d="M71629 13352c38,-104 30,-220 65,-325 -16,23 -30,48 -40,74 -44,110 -32,235 -72,344l-2 7c19,-32 36,-65 49,-100l0 0z"/>
    <path class="fil18" d="M74652 15971c-212,95 -437,188 -670,176 -233,-12 -476,-161 -517,-390 -14,-80 -12,-175 -79,-217 -42,-25 -95,-18 -140,-37 -64,-27 -96,-99 -117,-165 -43,-137 -67,-280 -69,-424 -3,-170 20,-356 -77,-496 -89,-130 -248,-196 -351,-315 -96,-111 -199,-244 -355,-265 -214,-29 -662,265 -788,-48 -9,-26 -13,-53 -13,-80 0,-35 7,-69 21,-101 -9,16 -18,31 -26,47 -36,71 -59,155 -29,228 127,313 574,19 788,49 156,21 259,154 355,264 103,120 262,185 351,315 97,141 74,327 77,497 2,143 26,286 69,423 21,67 53,138 117,165 45,19 98,13 139,38 69,41 67,138 80,216 41,230 284,379 517,391 233,12 457,-81 670,-176 153,-68 324,-163 370,-318 -73,101 -203,170 -323,223z"/>
   </g>
   <path class="fil34" d="M79328 17465c-560,-323 -772,-402 -773,-402l-11 -8c0,0 -1,1 -1,2 0,0 1,1 1,2 8,-171 130,-326 245,-462l294 -346c6,-22 8,-44 8,-66 0,-3 0,-6 0,-8 0,-10 0,-20 0,-30 -1,-86 -4,-172 -7,-258 -2,-76 -22,-170 -97,-186 -39,-8 -91,6 -112,-26 0,1 0,1 0,2 0,0 0,1 0,2l0 -5c1,-4 1,-8 1,-13 0,-26 -5,-52 -13,-76 -43,-125 -193,-176 -326,-200 -132,-23 -281,-43 -364,-147 -60,-15 -122,-22 -184,-22 -106,0 -212,22 -309,65 -64,28 -128,67 -199,63 -70,-5 -135,-55 -207,-68 -117,-19 -228,66 -285,167 -34,60 -53,128 -53,197l0 12 0 0c0,2 0,4 0,6 0,72 27,142 75,195 51,53 125,88 146,156 9,28 7,58 14,87 1,3 2,7 3,10l-3 5c2,389 256,731 627,847 0,8 0,17 0,26 0,106 -30,216 -121,296l-1229 130c0,0 -479,-57 -651,642 -22,91 -33,183 -33,276 0,26 1,53 3,79 6,106 -8,291 -132,531 -196,384 -152,1266 250,1353 378,83 526,49 542,45l0 15c-6,166 -66,1593 -285,1765 -60,48 -49,80 0,102 0,0 0,9 -1,27 -7,105 -40,502 -185,728 -170,262 -152,1772 -152,1772l-116 891c0,0 71,550 0,646 -64,86 -148,2120 -166,2562l-7 0c-72,4 -136,44 -172,106 -93,152 -422,433 -422,433 -71,101 -334,198 -473,243 -12,21 -18,44 -18,68 0,13 2,26 5,38 36,87 776,149 963,61 147,-68 730,-159 972,-194 -46,-58 -70,-214 -79,-318 -3,-49 -5,-98 -5,-148 0,-268 47,-534 137,-786 179,-471 232,-1345 188,-1912 0,0 543,-2340 971,-2558l0 0c7,8 215,275 241,1100 27,838 330,1388 330,1388 0,0 -134,1423 0,1956l-175 840c-13,-11 -21,-19 -21,-19 0,0 5,23 12,60l-4 18 8 2c20,106 49,288 37,397 -7,61 -24,145 -36,227 -18,129 -23,255 45,282 112,45 767,106 878,-38 -8,-20 -19,-38 -32,-55 -13,-16 -174,-284 -125,-485 3,-11 4,-22 4,-33 0,-29 -9,-58 -25,-82 8,-98 48,-554 150,-941 112,-420 347,-1341 174,-1947l0 0c-6,-24 -14,-47 -22,-70 -32,-146 -48,-295 -48,-445 0,-150 16,-299 48,-445 107,-489 182,-970 182,-970 0,0 59,-646 7,-1042 0,-8 -2,-17 -3,-26l28 -7c0,0 -152,-672 -205,-1100 -13,-101 -29,-229 -47,-365 49,-8 98,-20 145,-36 481,-166 633,-1667 633,-1667l0 -476c0,0 129,-2112 -433,-2435zm-3587 11595c-14,-8 -23,-13 -23,-13l0 0 23 13z"/>
   <path class="fil35" d="M79038 26131c208,600 -35,1574 -149,2010 -113,436 -147,958 -147,958 -444,69 -766,-18 -766,-18l183 -896c-131,-531 0,-1949 0,-1949 0,0 -296,-548 -322,-1384 -27,-822 -229,-1088 -235,-1096l0 0c-418,218 -948,2550 -948,2550 43,565 -9,1435 -183,1905 -89,251 -135,518 -135,785 0,49 2,98 5,146 -61,52 -146,60 -239,45 -248,-40 -546,-254 -546,-254 0,0 96,-2540 165,-2637 70,-96 0,-644 0,-644l113 -887c0,0 -17,-1505 148,-1766 143,-226 176,-622 182,-726 0,-16 0,-27 0,-27l252 -301c0,0 2436,-183 2620,0 44,45 72,147 88,275 51,395 -7,1039 -7,1039 0,0 -73,478 -177,965 -32,146 -48,295 -48,444 0,149 16,298 48,444 -9,86 -13,173 -13,259 0,257 37,514 111,760l0 0z"/>
   <path class="fil31" d="M78885 29946c-109,144 -748,83 -857,38 -66,-26 -61,-153 -43,-282 11,-81 28,-165 34,-226 18,-156 -52,-474 -52,-474 0,0 143,152 178,0 15,-67 68,-101 124,-118 30,-9 62,-14 94,-14 45,0 90,9 132,28 113,49 301,154 268,295 -48,200 121,483 121,483 13,17 24,35 32,55 11,26 17,54 17,82 0,48 -17,95 -48,133l0 0z"/>
   <path class="fil8" d="M78885 29946c-109,144 -748,83 -857,38 -66,-26 -61,-153 -43,-282 68,33 185,59 380,41 47,3 95,4 143,4 91,0 182,-4 272,-12 66,37 107,107 107,182 0,10 -1,19 -2,29l0 0z"/>
   <path class="fil8" d="M76653 26305c44,565 -9,1435 -182,1905 -90,251 -135,518 -135,785 0,49 1,97 4,145 -61,53 -145,61 -238,46 53,-367 276,-1948 420,-3198 163,-1422 926,-2401 926,-2401l152 168c-416,218 -947,2550 -947,2550z"/>
   <path class="fil36" d="M78624 17160l-106 522 -520 874 -642 -274c0,0 -873,-914 -324,-1044 66,-14 128,-42 182,-81 108,-81 142,-199 142,-315 -4,-129 -34,-257 -88,-374l1122 -352c-46,147 -72,300 -79,454 -9,306 106,457 198,529 34,28 73,48 115,61l0 0z"/>
   <path class="fil8" d="M78389 16116c-165,157 -385,245 -613,245 -93,0 -186,-14 -274,-43 -85,38 -164,89 -234,150l1121 -352z"/>
   <path class="fil36" d="M78518 15972c0,0 0,0 0,0 0,490 -398,888 -888,888 -490,0 -887,-398 -887,-888 0,-490 397,-887 887,-887 2,0 3,0 5,0 487,0 883,395 883,883 0,1 0,3 0,4l0 0z"/>
   <path class="fil8" d="M78624 17160l-106 522 -520 874 -642 -274c0,0 -873,-914 -324,-1044 66,-14 128,-42 182,-81 -99,272 310,838 310,838 47,70 156,26 156,26 264,-40 748,-797 827,-922 35,27 74,48 117,61l0 0z"/>
   <path class="fil8" d="M79126 22221c-154,35 -1009,224 -1333,177 -357,-53 -1050,-87 -1050,-87 0,0 -442,24 -578,-39 0,-16 0,-26 0,-26l252 -302c0,0 2436,-182 2620,0 45,46 73,148 89,277z"/>
   <path class="fil0" d="M77523 18021c0,0 -459,-635 -286,-884l-775 318c0,0 -467,-57 -635,640 -21,90 -32,182 -32,274 0,27 1,53 3,79 6,106 -8,292 -128,530 -191,383 -148,1261 244,1349 392,88 530,43 530,43 0,0 -53,1593 -278,1775 -225,183 577,140 577,140 0,0 693,35 1050,87 357,52 1358,-183 1358,-183 0,0 -148,-670 -201,-1096 -52,-427 -174,-1335 -174,-1335l887 -1202c0,0 157,-726 -391,-1048 -548,-322 -755,-401 -755,-401 0,0 -550,897 -838,940 1,0 -108,44 -156,-26z"/>
   <path class="fil8" d="M76505 18273c0,0 -8,288 44,401 52,113 244,740 244,740l-436 0c0,0 235,-252 218,-374 -17,-122 -70,-767 -70,-767z"/>
   <path class="fil36" d="M77793 20440c0,0 -961,-235 -1050,-435 -90,-200 -336,-648 -336,-648l101 -137 467 367c0,0 556,444 818,488 263,43 0,365 0,365z"/>
   <path class="fil37" d="M77793 20440c0,0 -961,-235 -1050,-435 -90,-200 -336,-648 -336,-648l101 -137 467 367c0,0 556,444 818,488 263,43 0,365 0,365z"/>
   <path class="fil36" d="M78624 19309l0 521 -84 0c1,0 0,0 0,0 -414,0 -821,106 -1183,306l-157 87 -42 24 -270 -609 252 -226 13 0c62,6 329,29 442,-10 108,-36 241,-152 557,-71 156,40 290,215 441,160l31 -182z"/>
   <path class="fil8" d="M79464 18360l174 195 0 475c0,0 -148,1496 -618,1662 -470,165 -1309,-96 -1309,-96 0,0 -216,-574 -115,-609 101,-34 896,-244 896,-244 0,0 -11,-878 162,-1139 0,0 -113,-818 279,-836 392,-17 531,592 531,592z"/>
   <path class="fil0" d="M79490 18360l174 195 0 475c0,0 -148,1496 -617,1662 -470,165 -1309,-96 -1309,-96 0,0 -217,-574 -115,-609 101,-34 895,-244 895,-244 0,0 -11,-878 163,-1139 0,0 -113,-818 279,-836 391,-17 530,592 530,592z"/>
   <path class="fil8" d="M78275 16349c1,-15 2,-31 2,-46 0,-42 -7,-84 -22,-124 -25,-53 -82,-93 -138,-79 -75,17 -106,114 -180,137 -61,20 -129,-24 -159,-81 -29,-58 -30,-125 -30,-190 0,-72 0,-145 0,-218 0,-79 -2,-164 -51,-226 -61,-78 -203,-112 -299,-108 -63,0 -124,25 -170,68 -51,44 -110,75 -179,64 -59,-9 -108,-51 -125,-108l0 -3c329,453 808,777 1350,914l1 0z"/>
   <path class="fil38" d="M77049 15520c-59,-9 -108,-51 -125,-108 -7,-28 -5,-58 -14,-86 -20,-68 -93,-104 -142,-156 -98,-104 -92,-275 -22,-400 56,-101 164,-185 278,-166 70,12 132,62 203,67 70,5 132,-34 194,-63 95,-43 198,-65 302,-65 60,0 121,7 180,22 25,32 49,65 70,100 81,103 227,123 356,146 129,24 276,75 317,199 29,83 0,172 -15,258 -2,7 -3,15 -3,22 0,11 2,21 7,31 20,33 71,19 109,27 73,15 92,110 95,185 3,85 5,171 6,257 -15,45 -41,86 -73,120l-288 345c-127,153 -262,332 -238,529 -60,27 -132,-25 -152,-88 -19,-63 -4,-132 10,-196 59,-56 117,-116 170,-178 2,-15 3,-30 3,-45 0,-42 -7,-85 -22,-124 -25,-53 -82,-93 -138,-79 -75,17 -106,114 -180,137 -61,20 -129,-24 -159,-81 -29,-58 -30,-125 -30,-190l0 -218c0,-79 -2,-164 -51,-227 -61,-77 -203,-111 -299,-108 -63,1 -124,26 -170,69 -51,44 -110,76 -179,64z"/>
   <path class="fil8" d="M77249 18252l273 1119c0,0 215,-1 -273,-1119z"/>
   <path class="fil8" d="M78180 18065c0,0 -356,584 -217,1188l66 5c0,0 -118,-280 151,-1193z"/>
   <path class="fil8" d="M78405 21371c0,0 439,-145 470,191 1,0 -81,-230 -470,-191z"/>
   <path class="fil8" d="M77141 19439c0,0 -88,609 69,853 0,0 -317,130 -766,105l-53 -958 750 0z"/>
   <path class="fil8" d="M77200 20224l-42 23 -270 -608 253 -227 12 0 0 0c-3,30 -74,554 47,812z"/>
   <path class="fil0" d="M77141 19413c0,0 -88,609 69,853 0,0 -317,131 -766,104l-304 -957 1001 0z"/>
   <path class="fil31" d="M76388 29575c-10,90 -80,161 -169,173 -236,35 -805,125 -949,194 -183,87 -905,26 -940,-61 17,-10 35,-17 53,-24 136,-45 393,-141 462,-242 0,0 321,-280 412,-432 35,-60 98,-99 167,-104 76,-3 161,35 196,202 0,0 417,238 529,29 0,0 18,321 87,409l0 0c-3,-11 -5,-23 -5,-34 0,-65 52,-117 116,-117 14,0 28,3 41,7l0 0z"/>
   <path class="fil8" d="M76388 29575c-10,90 -80,161 -169,173 -236,35 -805,125 -949,194 -183,87 -905,26 -940,-61 25,-53 66,-97 117,-126 118,80 379,155 954,65 548,-86 820,-169 952,-227l0 0c11,-7 23,-14 35,-18l0 0z"/>
   <g>
    <path class="fil8" d="M78762 15347l0 -4c13,-65 31,-132 27,-198 -6,54 -15,107 -27,159 -1,7 -2,14 -2,22 0,7 1,14 2,21l0 0z"/>
    <path class="fil8" d="M78254 16162c1,-9 1,-17 1,-25 0,-39 -7,-78 -22,-114 -24,-53 -82,-93 -138,-79 -74,17 -106,114 -180,137 -61,20 -128,-24 -158,-81 -30,-58 -30,-125 -30,-190 0,-72 0,-145 0,-218 0,-79 -3,-164 -52,-227 -61,-77 -203,-111 -298,-108 -64,1 -124,26 -171,69 -51,43 -109,75 -179,64 -59,-9 -107,-51 -125,-108 -7,-28 -5,-58 -13,-86 -21,-68 -94,-104 -143,-156 0,9 -1,18 -1,27 0,72 27,142 75,196 49,53 122,88 142,156 8,26 6,58 13,86 18,57 66,99 125,108 70,11 129,-20 180,-64 46,-43 107,-68 170,-69 95,-3 238,31 299,109 48,62 51,147 51,226 0,73 0,146 0,218 0,65 0,133 30,189 30,57 97,102 159,82 73,-23 106,-120 179,-137 5,-98 62,-56 86,-5z"/>
    <path class="fil8" d="M78970 15922c-16,45 -42,86 -75,120l-287 345c-121,145 -249,314 -238,499 9,-170 127,-325 238,-460l287 -345c6,-24 9,-49 9,-74 0,-7 0,-14 -1,-22 18,-25 41,-46 67,-63l0 0z"/>
    <path class="fil18" d="M78220 16828c0,6 -1,13 -1,19 0,23 4,45 10,67 20,63 91,115 152,88 -2,-13 -3,-26 -3,-38 -69,-23 -139,-74 -158,-136z"/>
   </g>
   <path class="fil8" d="M75328 29032c0,0 91,158 421,19m-421 -19l0 0 0 0z"/>
   <path class="fil8" d="M78114 29070c0,0 285,335 643,110m-643 -110l0 0 0 0z"/>
   <path class="fil8" d="M78942 25112c0,0 -201,126 -208,198 -6,71 104,-53 104,-53l104 -145z"/>
   <path class="fil8" d="M79021 26074c-70,59 -157,93 -247,97 -151,7 -138,202 -40,144 98,-59 287,-241 287,-241z"/>
   <path class="fil8" d="M79059 26200c0,0 -96,474 -175,382m175 -382l0 0 0 0z"/>
   <path class="fil39" d="M60453 29748c0,0 605,166 896,-55 291,-221 417,-150 417,-150 0,0 694,-38 751,-202 57,-164 -266,-760 -266,-760 -23,-53 -57,-120 -72,-120l3 -252 0 0 101 -1051c232,-595 4,-1364 4,-1364l-41 -191c-8,-34 -11,-68 -11,-103 0,-74 17,-148 50,-215l421 -846c23,-56 50,-111 80,-163 26,-48 62,-108 106,-180 13,-20 26,-42 41,-64 51,-80 113,-169 188,-273 186,-259 285,-582 335,-820l23 74 1 0 4 0 0 0 6 2 0 0 8 0 2 0 11 1 4 0 129 1650c8,644 245,1000 245,1000l-33 1421c45,342 -53,798 -98,980l-102 230c-81,41 -138,119 -150,210 -20,170 -199,537 -199,537 -70,87 -220,325 -220,325 0,0 -71,229 -27,315 44,85 411,77 411,77 419,93 741,-133 720,-288 -20,-155 66,-194 66,-194 166,-53 150,-166 150,-166 8,-52 12,-105 12,-158 0,-182 -47,-360 -138,-518l-26 61c-1,-18 -2,-36 -2,-54 0,-104 18,-208 52,-306l-16 10 -4 3 -2 0c27,-232 270,-661 270,-661 448,-786 285,-1850 285,-1850l-69 -331 -4 -126c-1,-43 -2,-88 -2,-132 0,-255 23,-510 69,-759 24,-131 49,-288 68,-461 40,-366 170,-744 230,-904l18 -3 2 0c24,-4 49,-9 74,-13l4 0c0,0 15,-78 27,-209 7,-84 13,-190 13,-313 0,-5 0,-11 0,-17 0,-363 -57,-725 -167,-1071l13 -19c0,0 32,-43 91,-118l0 0c107,-137 275,-344 481,-578 369,-421 260,-847 260,-847 0,0 -267,-979 -386,-1567 -68,-335 -196,-563 -293,-697 22,-92 34,-188 37,-283 8,-174 2,-355 -77,-512 -78,-156 -245,-279 -419,-259 -20,-9 -37,-24 -49,-43 -102,-140 -109,-329 -77,-499 32,-171 97,-334 126,-505 29,-171 16,-360 -93,-496 -128,-159 -350,-203 -517,-323 -116,-84 -204,-204 -327,-278 -123,-75 -238,-46 -372,-18 -224,47 -438,69 -650,165 -57,57 -100,125 -127,200 -53,175 51,361 29,542 -15,128 -91,240 -151,355 -60,114 -106,250 -59,370 74,187 316,227 492,327 23,11 43,29 58,50 43,76 -45,155 -101,222 -148,60 -256,190 -288,347 -59,266 32,603 113,825 -88,495 26,690 111,765 85,73 138,177 147,289l0 10c5,90 15,179 28,269l0 0c-3,-21 -6,-43 -8,-53 -69,128 -200,454 -274,1003 -41,157 -62,319 -62,481 0,48 2,97 6,144l13 178c-1,0 -1,0 -2,0 -12,0 -24,-4 -34,-11l93 170 0 1183c0,129 -24,258 -71,379 -6,17 -14,35 -21,53 -21,42 -32,89 -32,136 0,6 0,13 1,20 -200,306 -658,2021 -658,2021 -249,563 20,926 20,926 0,0 130,1566 155,1647 24,81 -697,1036 -697,1036l0 0c0,25 0,51 0,76 -15,-7 -30,-11 -45,-13 -218,-12 -277,332 -277,332l-446 425c0,0 -203,-34 -502,190 -300,225 193,430 193,430zm4449 -9051l-1 -5 -13 7 0 0 -5 3 -2 1 0 0 -205 -724c-30,-107 -46,-217 -46,-328 0,-90 11,-180 31,-268l158 -696 0 0 0 -167 505 1345c32,181 -268,620 -422,832z"/>
   <path class="fil40" d="M65123 22884c0,0 -203,495 -255,971 -19,171 -43,326 -67,455 -45,246 -67,495 -67,745 0,45 1,91 2,135l4 124 66 327c0,0 159,1051 -280,1826 0,0 -260,464 -267,683l-176 68 -356 -100c0,0 172,-615 116,-1047l32 -1402c0,0 -231,-351 -239,-986l-136 -1742 1623 -57z"/>
   <path class="fil40" d="M63500 22636c0,0 -43,679 -379,1147 -336,469 -408,672 -408,672l-414 837c-32,66 -49,138 -49,212 0,34 3,68 10,101l41 188c0,0 224,759 -4,1347l-108 1135 -631 0c0,0 -53,-943 -76,-1023 -23,-80 -152,-1627 -152,-1627 0,0 -264,-360 -20,-915 0,0 552,-2078 699,-2042 148,36 1491,-32 1491,-32z"/>
   <g>
    <path class="fil18" d="M62237 25794l-40 -188c-8,-34 -12,-68 -12,-102 0,-74 18,-147 50,-212l414 -838c0,0 72,-204 408,-671 322,-450 375,-1095 379,-1144l64 -3c0,0 -43,679 -379,1147 -336,469 -408,672 -408,672l-414 837c-32,66 -49,138 -49,212 0,34 3,68 10,101l41 188c0,0 224,759 -4,1347l-108 1135 -64 0 108 -1135c228,-588 4,-1346 4,-1346z"/>
   </g>
   <path class="fil8" d="M64196 28151c7,-220 267,-683 267,-683 440,-776 280,-1826 280,-1826l-68 -328 -4 -123c-1,-45 -2,-91 -2,-135 0,-250 23,-500 68,-745 23,-129 47,-284 66,-455 50,-458 241,-934 255,-969l65 -3c0,0 -203,495 -255,971 -19,171 -43,326 -67,455 -45,246 -67,495 -67,745 0,45 1,91 2,135l4 124 66 327c0,0 159,1051 -280,1826 0,0 -260,464 -267,683l-176 68 -37 -10 150 -57z"/>
   <path class="fil41" d="M63992 28143c-34,98 -51,201 -51,304 0,76 9,151 27,224 72,287 -671,-232 -671,-232l158 -363c0,0 353,79 537,67z"/>
   <path class="fil8" d="M64047 28159c-33,98 -51,201 -51,305 0,75 10,150 27,223 72,288 -671,-232 -671,-232l159 -363c0,0 46,89 181,102 277,-48 316,-42 355,-35z"/>
   <polygon class="fil40" points="62305,21419 62616,21419 62616,19657 62383,19615 "/>
   <polygon class="fil37" points="62305,21419 62616,21419 62616,19657 62383,19615 "/>
   <path class="fil42" d="M63816 28279c0,0 196,-12 283,164l108 84 53 -124c88,155 135,331 135,509 0,53 -4,106 -12,158 -8,53 15,112 -148,164 0,0 -84,40 -64,192 20,152 -296,376 -708,284 0,0 -359,8 -403,-76 -44,-85 28,-308 28,-308 0,0 148,-234 215,-321 0,0 176,-362 196,-529 21,-167 213,-289 317,-197z"/>
   <path class="fil41" d="M62195 28427l3 -249c0,0 -357,103 -646,-13 0,0 24,250 -16,284 -41,34 134,355 134,355l194 204 334 -122 91 -285c0,0 -70,-174 -94,-174z"/>
   <path class="fil8" d="M62195 28427l3 -249c0,0 -357,103 -646,-13 0,0 24,250 -16,284 -41,34 134,355 134,355l194 204 334 -122 91 -285c0,0 -70,-174 -94,-174z"/>
   <path class="fil42" d="M61514 28337c0,0 190,22 166,265 -24,242 10,0 10,0 0,0 202,81 273,195 72,114 202,-102 212,-163 10,-62 91,-88 91,-88 0,0 317,589 261,751 -56,162 -737,199 -737,199 0,0 -124,-70 -410,148 -286,217 -879,53 -879,53 0,0 -484,-202 -190,-424 294,-221 493,-188 493,-188l438 -421c0,0 58,-339 272,-327z"/>
   <path class="fil43" d="M63783 14420c120,73 206,192 321,275 163,118 382,161 507,319 106,133 120,321 91,489 -28,169 -92,330 -123,499 -31,168 -25,354 75,493 12,3 25,4 37,4 12,0 25,-1 37,-4 171,-21 335,102 412,256 76,154 82,334 74,505 -6,142 -22,285 -84,412 -106,216 -326,350 -543,452 -141,66 -287,125 -434,175 -101,35 -208,65 -314,48 -181,-32 -309,-196 -480,-260 -141,-53 -297,-34 -446,-21 -128,11 -273,11 -361,-82 -113,-120 -62,-313 -4,-467 -175,-11 -312,-156 -312,-331 0,-77 27,-152 76,-212 55,-66 142,-144 99,-219 -14,-21 -34,-38 -57,-49 -172,-99 -409,-138 -482,-323 -46,-119 -1,-253 58,-366 59,-113 132,-224 148,-350 21,-179 -79,-363 -28,-535 155,-173 344,-311 555,-408 209,-95 419,-117 639,-163 305,-183 414,-213 539,-137z"/>
   <path class="fil40" d="M62615 17083c0,0 -506,-26 -601,405 -96,432 207,1050 207,1050l394 -1455z"/>
   <path class="fil37" d="M62615 17083c0,0 -506,-26 -601,405 -96,432 207,1050 207,1050l394 -1455z"/>
   <path class="fil40" d="M62292 18367l192 152 895 40 559 -383 568 -976c-347,-88 -487,-328 -540,-553 -19,-85 -28,-172 -28,-259 0,-68 6,-136 17,-203 11,-66 -911,-471 -799,265 9,55 14,111 14,167 0,36 -2,71 -6,107 -53,431 -471,350 -471,350l-161 247 -184 609 -56 437z"/>
   <path class="fil8" d="M63157 16449c-19,-85 -29,-172 -29,-260 0,-67 6,-135 17,-202 12,-67 -100,-273 12,462z"/>
   <circle class="fil40" cx="63501" cy="15956" r="807"/>
   <path class="fil0" d="M62960 18213c19,0 39,3 58,5 106,11 548,35 800,-266 282,-337 657,-752 672,-769l382 115c0,0 -302,-107 -503,455 0,0 0,0 0,0 0,0 0,1 0,1l0 246 0 0 450 520c-19,87 -69,383 -69,472 0,110 -127,416 -112,524l92 655c-35,28 -453,618 -2114,532 0,0 0,193 0,193 3,-31 -171,-1171 -256,-1654 -27,-157 -1,-704 -112,-802 -90,-79 257,-396 78,-1031 30,-138 220,-306 103,-227l-64 44c0,0 262,-179 262,-179l288 18c-27,32 -194,145 -232,429 408,1046 -243,686 277,719z"/>
   <path class="fil40" d="M65099 17430c0,0 298,255 415,836 118,581 379,1546 379,1546 0,0 106,421 -256,836 -362,416 -602,741 -602,741l-238 351c-41,60 -102,103 -172,121 -108,29 -275,49 -419,-30 -78,-43 -126,-125 -126,-213 0,-33 7,-66 20,-96l53 -122c0,0 -491,309 -533,138 -43,-170 570,-341 570,-341 0,0 506,-85 609,-325 0,0 543,-698 500,-938l-525 -1406c0,0 -656,-87 -432,-825 224,-737 757,-273 757,-273z"/>
   <path class="fil35" d="M61960 22737c0,0 1199,240 1482,208l30 101c0,0 455,102 1484,-61 67,-11 137,-23 209,-36l25 -4c0,0 14,-76 25,-206 24,-295 33,-867 -175,-1451l-310 -1117c0,0 -315,325 -1023,266 -63,-5 -443,113 -506,111 -146,-5 -581,75 -728,-42l-396 754 0 873c0,128 -24,255 -69,374 -7,17 -14,34 -22,53 -20,39 -30,83 -30,127 0,17 1,34 4,50l0 0z"/>
   <path class="fil8" d="M63472 22774l0 272c0,0 524,117 1717,-101 0,0 14,-76 25,-206 -366,58 -1376,200 -1742,35z"/>
   <path class="fil8" d="M61960 22737c0,0 1199,240 1482,208l30 101 0 -272c-136,57 -1111,-178 -1464,-266 -7,17 -14,35 -21,53 -21,39 -31,83 -31,127 0,16 1,33 4,49l0 0z"/>
   <path class="fil35" d="M64867 22434l89 551c67,-10 137,-22 209,-35 -28,-161 -88,-529 -71,-591l-112 -95 -115 170z"/>
   <path class="fil8" d="M64879 22422l89 552c68,-11 137,-23 210,-36 -28,-161 -89,-529 -72,-590l-112 -96 -115 170z"/>
   <g>
    <path class="fil44" d="M63026 21337c-63,-6 -126,-11 -190,-13 -141,-5 -357,0 -504,-108l52 -9c147,117 370,112 516,117 64,2 126,7 190,13 20,1 41,3 63,3 -10,0 -21,0 -32,0 -32,0 -64,-1 -95,-3l0 0z"/>
    <path class="fil37" d="M64892 22985c67,-11 137,-23 209,-36l25 -4c0,0 14,-76 24,-206 25,-295 34,-867 -174,-1451l-163 -503c35,-20 53,-31 53,-31l173 533c208,585 199,1156 174,1451 -11,130 -25,206 -25,206l-24 4c-72,13 -142,25 -209,36 -481,76 -836,95 -1078,93 338,-6 680,-37 1015,-93l0 1z"/>
    <path class="fil44" d="M63377 22945l0 3 -34 0c13,-1 24,-2 34,-3z"/>
   </g>
   <ellipse class="fil41" cx="65016" cy="22444" rx="45" ry="93"/>
   <path class="fil40" d="M62128 20558c73,-542 202,-865 270,-991 3,17 10,73 13,90 14,80 2,180 6,280l-68 1227 91 384c85,303 -231,64 -231,64 -65,143 -185,128 -185,128l-16 -221c-4,-47 -6,-94 -6,-142 0,-160 21,-320 61,-475 28,-113 51,-228 65,-344l0 0z"/>
   <path class="fil37" d="M62128 20558c73,-542 202,-865 270,-991 3,17 10,73 13,90 14,80 2,180 6,280l-68 1227 91 384c85,303 -231,64 -231,64 -65,143 -185,128 -185,128l-16 -221c-4,-47 -6,-94 -6,-142 0,-160 21,-320 61,-475 28,-113 51,-228 65,-344l0 0z"/>
   <g>
    <path class="fil40" d="M65165 21220c-57,74 -89,117 -89,117l-238 350c-40,60 -101,103 -171,121 -109,29 -275,50 -420,-30 -77,-43 -125,-124 -125,-213 0,-32 6,-65 19,-95l53 -123c0,0 -490,309 -533,139 -42,-171 571,-341 571,-341 0,0 506,-85 608,-325 0,0 44,-57 106,-144l219 544zm0 0l0 0 0 0z"/>
   </g>
   <path class="fil35" d="M64867 21807c0,0 -580,-56 -763,-388l-84 274c0,0 608,420 747,366l100 -252z"/>
   <path class="fil8" d="M64846 21805c0,0 -579,-57 -763,-388l-84 273c0,0 609,420 747,365l100 -250z"/>
   <path class="fil35" d="M62228 21653c0,0 -203,71 -243,32l92 168 172 -133 -21 -67z"/>
   <path class="fil8" d="M62228 21653c0,0 -203,71 -243,32l92 168 172 -133 -21 -67z"/>
   <polygon class="fil8" points="63472,22774 63472,22424 63389,22783 "/>
   <path class="fil8" d="M64294 15530c-49,69 -134,104 -218,115 -83,10 -168,1 -252,0 -133,-2 -273,18 -381,96 -70,49 -121,119 -175,185 -164,200 -391,387 -649,366 -3,-56 -5,-112 -5,-168 0,-109 7,-218 21,-326 -52,-125 -78,-260 -78,-396 0,-19 1,-39 2,-59 81,-43 171,-65 263,-65 43,0 86,5 128,15 154,42 275,162 422,225 660,-437 1106,-248 922,12z"/>
   <path class="fil43" d="M64294 15498c-49,69 -134,104 -218,115 631,1245 204,-480 -252,-815 -133,-2 -451,11 -560,88 -69,50 -260,341 -314,407 -666,132 -426,940 -331,967 81,-43 -91,32 0,32 532,0 2174,-1500 1675,-794z"/>
   <polygon class="fil40" points="62384,21207 62382,21303 62360,21211 "/>
   <polygon class="fil37" points="62384,21207 62382,21303 62360,21211 "/>
   <g id="_868040156944">
    <path class="fil44" d="M64424 17653c-224,737 430,824 430,824l524 1407c43,239 -501,937 -501,937 -37,90 -132,158 -235,208 60,-37 109,-90 140,-153 30,-64 543,-698 500,-938l-524 -1407c0,0 -653,-87 -430,-824 75,-246 186,-358 297,-399 -77,62 -147,169 -201,345z"/>
   </g>
   <g id="_868040224400">
    <path class="fil18" d="M64436 18323c74,54 159,90 249,106 90,15 0,0 0,1l0 26c-81,-17 -159,-51 -226,-100 -8,-11 -16,-22 -23,-33l0 0z"/>
    <path class="fil18" d="M62406 19378c0,3 0,6 0,9 8,125 24,251 45,375 80,456 -24,1362 -39,1487 -9,-6 -17,-11 -27,-17 4,-30 126,-1018 42,-1501 -22,-123 -37,-249 -44,-374 0,-3 0,-6 0,-9 -6,-73 -30,-143 -72,-202 55,65 88,146 95,232l0 0z"/>
    <path class="fil18" d="M62893 17095l-259 -5c0,0 0,0 -1,0 0,0 0,0 0,0l-331 748c-58,129 -102,264 -132,402 -97,453 -36,678 37,790 -82,-98 -168,-320 -61,-821 29,-138 73,-273 131,-403l333 -747c0,0 0,0 0,0l305 6 0 2c-2,3 -11,13 -22,28z"/>
    <polygon class="fil18" points="64843,17298 64847,17299 "/>
    <path class="fil18" d="M64748 17294l-260 -79 -1 0c-15,17 -390,433 -672,770 -252,300 -693,277 -800,266 -19,-2 -39,-3 -58,-5 -289,-18 -403,-53 -441,-126 54,53 174,80 417,95 20,0 39,2 58,4 106,11 548,34 800,-266 282,-337 657,-753 672,-770l2 0 377 115c-19,-5 -38,-7 -58,-7 -12,0 -24,1 -36,3l0 0z"/>
   </g>
   <path class="fil8" d="M61678 28721c0,0 -365,100 -436,-56m436 56l0 0 0 0z"/>
   <path class="fil8" d="M63996 28647c0,0 -424,109 -521,-60m521 60l0 0 0 0z"/>
   <path class="fil45" d="M70100 28410c6,-53 15,-106 25,-159 41,-229 -22,-447 -53,-537l0 0c-10,-27 -17,-43 -17,-43 -169,-46 -833,469 -1075,664 -84,0 -175,3 -275,10 -43,3 -86,4 -130,3 -39,0 -94,0 -159,0 -224,-181 -920,-725 -1093,-678 0,0 -7,16 -16,44l-1 0c-32,90 -96,308 -54,536 10,53 19,106 25,159 13,116 61,339 238,490 38,275 179,637 288,856 8,42 21,82 37,121 -45,174 -97,400 -82,476 0,0 -235,-57 -259,226 0,3 0,6 0,9 -85,39 -191,128 -71,315 14,23 36,40 61,50 21,7 42,7 40,-22l147 165c0,0 266,31 269,-124l16 2c35,6 73,10 111,14l18 61c0,0 -199,-4 -145,119 0,0 50,47 68,30 0,0 -27,81 77,81 0,0 112,59 156,16 44,-42 134,-105 143,-132 2,-7 3,-70 4,-156l17 0c223,5 460,-2 675,-14l18 0c0,94 1,163 3,171 9,26 100,89 143,132 43,43 155,-17 155,-17 104,0 78,-81 78,-81 18,17 68,-29 68,-29 54,-123 -146,-119 -146,-119l24 -79 111 -10 17 -1c-11,168 269,135 269,135l147 -165c-2,30 18,30 40,22 24,-10 45,-27 59,-50 180,-282 -153,-342 -153,-342 -10,-3 -20,-4 -31,-5 0,-5 0,-10 1,-14l0 0c3,-22 4,-45 4,-67 0,-15 0,-30 -2,-45 -12,-51 -94,-132 -198,-144 -68,-9 -69,-320 -62,-536 0,-4 0,-8 0,-12 0,-63 -9,-125 -26,-184 132,-224 238,-460 250,-529 185,-275 233,-497 246,-613z"/>
   <path class="fil0" d="M69844 30554l0 0c-10,147 -39,382 -39,382 0,0 -118,14 -300,31l-123 10c-95,8 -201,15 -314,22 -207,11 -435,18 -651,13 -107,-3 -211,-8 -308,-18 -43,-4 -85,-9 -124,-15 -247,-36 -424,-107 -439,-230 -5,-35 -7,-70 -7,-105 0,-18 0,-36 2,-54 23,-278 249,-222 249,-222 -15,-77 40,-315 85,-487 28,-109 52,-192 52,-192l1591 -106 5 0c0,0 1,0 1,0 42,0 77,35 77,78 0,1 0,3 0,4 -9,191 -23,628 55,638 100,12 179,91 192,141 0,12 1,24 1,37 0,24 -2,49 -5,73l0 0z"/>
   <path class="fil0" d="M68493 28460c0,0 -600,722 -889,522 -6,-4 -13,-9 -19,-14 -195,-147 -246,-384 -259,-505 -6,-53 -14,-104 -24,-155 -40,-225 21,-439 53,-527l0 0c10,-27 16,-43 16,-43 200,-55 1122,722 1122,722z"/>
   <path class="fil15" d="M68171 28527c0,0 -189,132 -455,350 -42,33 -86,64 -133,91 -194,-147 -245,-384 -259,-505 -5,-53 -14,-104 -23,-155 -40,-225 21,-439 53,-527l0 0c373,26 817,746 817,746z"/>
   <path class="fil46" d="M68171 28527c0,0 -189,132 -455,350 -42,33 -86,64 -133,91 -194,-147 -245,-384 -259,-505 -5,-53 -14,-104 -23,-155 -40,-225 21,-439 53,-527l0 0c373,26 817,746 817,746z"/>
   <path class="fil8" d="M67965 28456c0,0 -101,71 -243,187 -22,18 -45,34 -70,48 -103,-79 -132,-205 -138,-269 -3,-28 -7,-56 -12,-83 -4,-28 -6,-55 -6,-83 0,-67 12,-135 35,-198l0 0c198,13 434,398 434,398z"/>
   <path class="fil0" d="M68882 28460c0,0 600,722 889,522 6,-4 13,-9 19,-14 195,-147 246,-384 259,-505 6,-53 14,-104 23,-155 41,-225 -21,-439 -52,-527l0 0c-10,-27 -17,-43 -17,-43 -199,-55 -1121,722 -1121,722z"/>
   <path class="fil15" d="M69204 28527c0,0 189,132 455,350 41,34 85,64 131,91 195,-147 246,-384 259,-505 6,-53 14,-104 23,-155 41,-225 -21,-439 -53,-527l1 0c-372,26 -816,746 -816,746z"/>
   <path class="fil47" d="M69204 28527c0,0 189,132 455,350 41,34 85,64 131,91 195,-147 246,-384 259,-505 6,-53 14,-104 23,-155 41,-225 -21,-439 -53,-527l1 0c-372,26 -816,746 -816,746z"/>
   <path class="fil8" d="M69411 28455c0,0 100,71 242,185 21,18 45,35 69,49 103,-78 130,-204 137,-268 3,-26 8,-55 13,-83 4,-27 6,-56 6,-84 0,-66 -11,-133 -34,-195l0 0c-198,14 -433,396 -433,396z"/>
   <path class="fil8" d="M69517 29584c-76,120 -156,227 -230,293 -238,211 -1266,127 -1333,116 -14,-2 -43,-44 -79,-111 28,-109 53,-191 53,-191l1589 -107z"/>
   <path class="fil0" d="M68703 28400c-42,3 -83,4 -125,3 -215,-4 -938,6 -1018,297 -95,344 328,1265 394,1277 67,11 1095,94 1333,-117 239,-211 550,-873 534,-933 0,0 296,-625 -1118,-527z"/>
   <path class="fil8" d="M68680 28957c0,0 -529,-81 -777,440 -43,87 -65,183 -65,280 0,128 39,254 112,360 83,116 204,202 372,132 375,-154 358,-1212 358,-1212z"/>
   <path class="fil8" d="M68664 28924c0,0 -529,-81 -778,439 -42,87 -65,183 -65,280 0,129 39,254 112,360 83,116 204,203 373,133 374,-155 358,-1212 358,-1212z"/>
   <path class="fil15" d="M68664 28941c0,0 -529,-82 -778,439 -42,87 -65,183 -65,280 0,128 39,254 112,360 83,116 204,203 373,132 374,-154 358,-1211 358,-1211z"/>
   <path class="fil47" d="M68664 28941c0,0 -529,-82 -778,439 -42,87 -65,183 -65,280 0,128 39,254 112,360 83,116 204,203 373,132 374,-154 358,-1211 358,-1211z"/>
   <path class="fil48" d="M68093 29396c0,0 -72,67 -44,83 27,17 44,-83 44,-83z"/>
   <path class="fil48" d="M68171 29481c0,0 -40,87 -11,97 28,9 44,-63 44,-63l-33 -34z"/>
   <path class="fil48" d="M67997 29613c0,0 -39,102 0,102 38,0 0,-102 0,-102z"/>
   <path class="fil6 str0" d="M67949 29888c0,0 77,197 278,183"/>
   <path class="fil6 str0" d="M68129 29946c0,0 80,78 167,22"/>
   <path class="fil8" d="M68748 28957c0,0 529,-81 778,440 42,87 65,183 65,280 0,128 -39,254 -112,360 -83,116 -204,202 -373,132 -375,-154 -358,-1212 -358,-1212z"/>
   <path class="fil8" d="M68764 28924c0,0 529,-81 777,439 43,87 65,183 65,280 0,129 -39,254 -112,360 -82,116 -203,203 -372,133 -374,-155 -358,-1212 -358,-1212z"/>
   <path class="fil15" d="M68764 28941c0,0 529,-82 777,439 43,87 65,183 65,280 0,128 -39,254 -112,360 -82,116 -203,203 -372,132 -374,-154 -358,-1211 -358,-1211z"/>
   <path class="fil47" d="M68764 28941c0,0 529,-82 777,439 43,87 65,183 65,280 0,128 -39,254 -112,360 -82,116 -203,203 -372,132 -374,-154 -358,-1211 -358,-1211z"/>
   <path class="fil48" d="M69335 29396c0,0 72,67 44,83 -28,17 -44,-83 -44,-83z"/>
   <path class="fil48" d="M69257 29481c0,0 39,87 11,97 -28,9 -45,-63 -45,-63l34 -34z"/>
   <path class="fil48" d="M69431 29613c0,0 39,102 0,102 -38,0 0,-102 0,-102z"/>
   <path class="fil6 str0" d="M69479 29888c0,0 -77,197 -278,183"/>
   <path class="fil6 str0" d="M69299 29946c0,0 -80,78 -167,22"/>
   <path class="fil48" d="M68462 30449c14,-3 278,-117 550,0l-550 0z"/>
   <path class="fil8" d="M67985 30980c-247,-37 -424,-107 -439,-231 30,-15 62,-27 94,-34 45,-12 100,-4 217,29 117,34 108,171 132,350 -9,-19 -14,-41 -14,-63 0,-17 4,-34 10,-51l0 0z"/>
   <path class="fil0" d="M67618 30573c0,0 -321,59 -147,336 14,22 35,40 59,49 21,7 40,7 38,-22l142 162c0,0 283,34 258,-145 -25,-180 -16,-318 -132,-350 -116,-32 -173,-42 -218,-30z"/>
   <path class="fil6 str0" d="M67695 30760c0,0 68,155 162,25"/>
   <path class="fil6 str0" d="M67539 30821c0,0 35,147 168,38"/>
   <path class="fil8" d="M69844 30554l0 0c-10,147 -39,382 -39,382 0,0 -118,14 -300,31 0,-5 0,-11 0,-16 0,-5 0,-10 0,-15 25,-179 17,-318 133,-350 108,-29 164,-40 206,-32z"/>
   <path class="fil0" d="M69873 30573c0,0 321,59 148,336 -14,22 -35,40 -60,49 -20,7 -40,7 -38,-22l-141 162c0,0 -284,34 -259,-145 26,-180 17,-318 133,-350 115,-32 173,-42 217,-30z"/>
   <path class="fil6 str0" d="M69797 30760c0,0 -68,155 -162,25"/>
   <path class="fil6 str0" d="M69953 30821c0,0 -35,147 -169,38"/>
   <path class="fil8" d="M68417 31012c-107,-2 -211,-8 -308,-18l-96 -323c4,-111 95,-199 206,-199 110,0 201,87 206,198 -8,67 -7,226 -8,342z"/>
   <path class="fil0" d="M67997 30671l113 382c0,0 -193,-5 -140,116 0,0 48,46 65,29 0,0 -25,80 75,80 0,0 108,58 150,16 41,-41 129,-104 137,-129 6,-16 4,-335 2,-555 -1,-113 -92,-204 -205,-204 0,0 0,0 0,0l0 0c0,0 -1,0 -1,0 -113,0 -205,92 -205,206 0,20 3,40 9,59l0 0z"/>
   <path class="fil6 str0" d="M68149 31151c0,0 -84,80 -39,127"/>
   <path class="fil6 str0" d="M68113 31101c0,0 -78,26 -78,97"/>
   <path class="fil8" d="M69481 30612c0,0 0,0 0,0 0,20 -2,40 -8,59l-90 306c-95,8 -201,15 -313,22 0,-115 0,-267 2,-388 0,-113 92,-205 205,-205 114,0 206,92 206,205 0,1 0,1 0,1l-2 0z"/>
   <path class="fil0" d="M69489 30671l-113 382c0,0 193,-5 140,116 0,0 -48,46 -65,29 0,0 25,80 -75,80 0,0 -108,58 -150,16 -42,-41 -129,-104 -138,-129 -5,-16 -3,-335 -1,-555 0,-113 92,-204 205,-204 0,0 0,0 0,0l0 0c0,0 0,0 0,0 114,0 206,92 206,206 0,20 -3,40 -9,59l0 0z"/>
   <path class="fil6 str0" d="M69336 31151c0,0 85,80 40,127"/>
   <path class="fil6 str0" d="M69373 31101c0,0 78,26 78,97"/>
   <path class="fil8" d="M68664 28857c0,0 -392,-12 -404,291 -13,304 612,175 612,175 0,0 263,-35 217,-219 -46,-185 -142,-230 -425,-247z"/>
   <path class="fil8" d="M68664 28824c0,0 -392,-12 -404,291 -13,304 612,175 612,175 0,0 263,-35 217,-220 -46,-184 -142,-229 -425,-246z"/>
   <path class="fil48" d="M68664 28841c0,0 -392,-13 -404,291 -13,303 612,175 612,175 0,0 263,-36 217,-220 -46,-184 -142,-230 -425,-246z"/>
   <path class="fil8" d="M67790 30369c0,0 132,48 159,138m-159 -138l0 0 0 0z"/>
   <path class="fil8" d="M69655 30303c0,0 -94,39 -87,204m87 -204l0 0 0 0z"/>
   <ellipse class="fil15" transform="matrix(0.87 -0.5 0.5 0.87 67845.6 31057.3)" rx="61" ry="101"/>
   <ellipse class="fil15" transform="matrix(0.5 -0.866025 0.866025 0.5 69707.4 30966.5)" rx="101" ry="61"/>
   <path class="fil47" d="M67899 31027c-28,-49 -75,-75 -104,-58 -29,17 -31,70 -3,119 28,49 75,74 104,57 30,-16 31,-70 3,-118z"/>
   <path class="fil47" d="M69758 30879c-29,-17 -76,8 -104,57 -28,48 -26,101 3,118 29,17 75,-9 103,-57 28,-48 27,-101 -2,-118z"/>
   <path class="fil21" d="M60459 27625c0,-66 -319,-120 -713,-120 -393,0 -712,54 -712,120 0,67 319,121 712,121 394,0 713,-54 713,-121z"/>
   <path class="fil21" d="M57652 29333c0,-67 -319,-121 -713,-121 -393,0 -712,54 -712,121 0,66 319,120 712,120 394,0 713,-54 713,-120z"/>
   <ellipse class="fil0" cx="56197" cy="27805" rx="1064" ry="180"/>
   <path class="fil0" d="M55757 27511c-48,-40 -84,-93 -101,-153 -13,-61 13,-134 70,-156 66,-25 135,20 188,66 52,45 113,97 182,88 3,-20 11,-38 24,-53 36,-39 102,-22 145,8 137,97 176,284 176,452 14,-61 3,-124 3,-185 0,-61 18,-132 70,-164 31,-18 67,-27 102,-27 1,0 3,0 4,0 62,-2 130,4 173,49 53,56 39,151 -7,212 -46,61 -115,100 -179,143 -4,7 -7,15 -10,22l-600 0c-97,-85 -179,-188 -240,-302l0 0z"/>
   <path class="fil21" d="M82610 28632c0,-66 -319,-120 -712,-120 -394,0 -713,54 -713,120 0,67 319,121 713,121 393,0 712,-54 712,-121z"/>
   <path class="fil49" d="M81419 28073c0,0 407,-13 530,-100 122,-87 624,-191 655,-51 30,140 611,695 152,699 -459,4 -1066,-72 -1188,-146 -123,-75 -149,-402 -149,-402z"/>
   <path class="fil50" d="M82764 28572c-459,4 -1066,-71 -1189,-146 -93,-56 -130,-260 -142,-354l-14 0c0,0 27,328 148,403 122,74 730,149 1189,146 132,0 178,-49 175,-118 -18,43 -69,69 -167,69z"/>
  </g>
 </g>
</svg>
