<?xml version="1.0" encoding="UTF-8"?>
<!DOCTYPE svg PUBLIC "-//W3C//DTD SVG 1.1//EN" "http://www.w3.org/Graphics/SVG/1.1/DTD/svg11.dtd">
<!-- Creator: CorelDRAW X7 -->
<svg xmlns="http://www.w3.org/2000/svg" xml:space="preserve" width="114.582mm" height="86.2492mm" version="1.1" style="shape-rendering:geometricPrecision; text-rendering:geometricPrecision; image-rendering:optimizeQuality; fill-rule:evenodd; clip-rule:evenodd"
viewBox="0 0 1064 801"
 xmlns:xlink="http://www.w3.org/1999/xlink">
 <defs>
  <style type="text/css">
   <![CDATA[
    .str0 {stroke:#7BB8F4;stroke-width:3.27481;stroke-opacity:0.239216}
    .str1 {stroke:#272E39;stroke-width:1.63741}
    .fil19 {fill:none;fill-rule:nonzero}
    .fil3 {fill:none;fill-rule:nonzero}
    .fil27 {fill:#02073C;fill-rule:nonzero}
    .fil20 {fill:#093B56;fill-rule:nonzero}
    .fil10 {fill:#0B3B56;fill-rule:nonzero}
    .fil11 {fill:#1354C5;fill-rule:nonzero}
    .fil13 {fill:#272E39;fill-rule:nonzero}
    .fil15 {fill:#71B3E9;fill-rule:nonzero}
    .fil2 {fill:#7BB8F4;fill-rule:nonzero}
    .fil18 {fill:#C1C9D3;fill-rule:nonzero}
    .fil17 {fill:#D6DDE8;fill-rule:nonzero}
    .fil12 {fill:#DB907D;fill-rule:nonzero}
    .fil21 {fill:#DD9884;fill-rule:nonzero}
    .fil9 {fill:#EBAB94;fill-rule:nonzero}
    .fil23 {fill:#EE8E06;fill-rule:nonzero}
    .fil25 {fill:#FE4810;fill-rule:nonzero}
    .fil22 {fill:#FEB101;fill-rule:nonzero}
    .fil16 {fill:#FF4810;fill-rule:nonzero}
    .fil14 {fill:#FF6139;fill-rule:nonzero}
    .fil24 {fill:#FFA000;fill-rule:nonzero}
    .fil6 {fill:#7BB8F4;fill-rule:nonzero;fill-opacity:0.231373}
    .fil1 {fill:#F08519;fill-rule:nonzero;fill-opacity:0.239216}
    .fil4 {fill:#7BB8F4;fill-rule:nonzero;fill-opacity:0.239216}
    .fil0 {fill:#FF6139;fill-rule:nonzero;fill-opacity:0.239216}
    .fil26 {fill:#FE4810;fill-rule:nonzero;fill-opacity:0.419608}
    .fil5 {fill:#7BB8F4;fill-rule:nonzero;fill-opacity:0.431373}
    .fil7 {fill:#7BB8F4;fill-rule:nonzero;fill-opacity:0.529412}
    .fil8 {fill:white;fill-rule:nonzero;fill-opacity:0.529412}
   ]]>
  </style>
 </defs>
 <g id="Layer_x0020_1">
  <metadata id="CorelCorpID_0Corel-Layer"/>
  <g id="_868039258288">
   <g>
    <path class="fil0" d="M384 749c-7,-29 -4,-60 6,-88 1,-1 -1,-1 -1,0 -11,28 -13,59 -7,88 1,2 2,1 2,0l0 0z"/>
   </g>
   <g>
    <path class="fil0" d="M390 662c3,-24 14,-46 32,-62 5,-4 11,-8 18,-9 4,0 9,1 11,6 0,4 -1,7 -3,10 -5,11 -17,18 -26,26 -11,9 -22,19 -33,28 -1,1 0,2 1,2 12,-11 24,-21 36,-31 9,-8 24,-17 26,-30 2,-13 -11,-15 -20,-10 -12,6 -22,17 -29,28 -8,13 -13,27 -14,42 0,1 1,1 1,0l0 0z"/>
   </g>
   <g>
    <path class="fil0" d="M389 662c-2,-16 -6,-32 -12,-47 -7,-15 -17,-28 -23,-43 -4,-8 -8,-19 -4,-27 6,-11 18,-3 22,5 4,6 6,13 8,21 2,9 4,18 6,27 4,21 5,43 1,64 0,1 2,1 2,0 3,-20 3,-40 -1,-60 -1,-10 -4,-20 -6,-30 -2,-8 -4,-16 -8,-23 -3,-5 -9,-11 -16,-11 -6,0 -10,5 -11,11 -1,8 2,17 5,24 4,9 9,16 14,24 11,20 19,42 21,65 0,1 2,1 2,0z"/>
   </g>
   <g>
    <path class="fil0" d="M383 681c-22,-14 -41,-41 -43,-68 -1,-7 -1,-14 1,-21 1,-4 3,-10 9,-7 3,2 6,6 8,9 3,6 5,13 7,20 3,7 4,14 6,21 4,16 7,31 11,47 0,1 2,1 1,0 -4,-17 -7,-34 -11,-51 -2,-8 -4,-17 -7,-25 -3,-7 -5,-13 -10,-19 -3,-3 -8,-7 -12,-3 -4,4 -5,12 -5,18 -2,15 3,30 10,43 8,15 20,28 34,38 1,0 2,-1 1,-2l0 0z"/>
   </g>
   <g>
    <path class="fil0" d="M412 749c9,-43 10,-86 5,-129 0,-2 -2,-2 -1,0 5,42 3,86 -5,128 0,1 1,2 1,1l0 0z"/>
   </g>
   <g>
    <path class="fil0" d="M420 651c-21,-24 -33,-55 -33,-87 0,-8 0,-16 2,-24 0,-3 1,-7 4,-10 5,-5 10,3 11,8 6,16 8,35 9,52 3,20 4,41 6,61 0,1 2,1 2,0 -3,-21 -4,-42 -6,-63 -1,-10 -3,-20 -4,-30 -2,-9 -3,-19 -7,-27 -3,-4 -9,-6 -13,-2 -4,5 -5,14 -5,20 -2,18 0,35 5,52 5,19 15,36 28,51 1,1 2,-1 1,-1l0 0z"/>
   </g>
   <g>
    <path class="fil0" d="M420 672c9,-14 12,-31 13,-47 1,-20 -1,-40 2,-60 1,-4 3,-9 8,-11 6,-1 10,4 13,8 4,8 6,18 7,26 4,18 1,35 -5,52 -4,7 -8,17 -14,23 -7,5 -16,8 -25,8 -1,0 -1,2 0,2 8,-1 15,-3 22,-6 7,-4 10,-11 14,-18 8,-16 13,-35 11,-53 -1,-10 -3,-20 -6,-29 -3,-7 -7,-14 -15,-14 -8,-1 -11,6 -12,13 -1,11 -1,23 -1,34 0,24 0,50 -13,71 -1,1 1,2 1,1l0 0z"/>
   </g>
   <g>
    <path class="fil0" d="M419 641c14,-41 -1,-83 0,-125 0,-7 1,-32 15,-23 8,5 12,18 14,28 5,20 5,42 1,62 -1,11 -3,24 -8,34 -6,9 -15,16 -23,23 -1,0 0,2 1,1 7,-5 15,-11 20,-19 6,-9 9,-20 11,-30 4,-22 5,-45 1,-68 -2,-9 -5,-20 -12,-28 -4,-5 -12,-10 -17,-3 -2,3 -3,6 -4,10 0,6 -1,12 -1,18 0,13 2,26 3,39 3,26 7,54 -3,80 0,1 2,2 2,1l0 0z"/>
   </g>
  </g>
  <g id="_868039259728">
   <g>
    <path class="fil0" d="M142 754c4,-41 -21,-77 -35,-113 -17,-41 -27,-85 -30,-130 -1,-19 0,-41 13,-56 8,-9 19,-11 27,-1 8,8 7,19 7,30 -1,44 -2,89 9,133 7,24 14,48 17,73 3,21 4,45 -9,63 -1,1 0,2 1,1 12,-15 13,-35 11,-54 -2,-23 -7,-45 -14,-67 -6,-24 -11,-47 -13,-72 -2,-24 -1,-48 0,-72 0,-10 1,-21 -3,-30 -3,-7 -9,-13 -17,-14 -19,-1 -28,24 -30,38 -3,21 1,43 4,63 3,23 8,46 15,69 8,23 18,45 28,67 11,23 20,47 18,72 -1,1 1,1 1,0l0 0z"/>
   </g>
   <g>
    <path class="fil0" d="M143 752c5,-15 4,-32 2,-49 -3,-17 -8,-35 -14,-51 -7,-18 -14,-36 -19,-54 -6,-18 -9,-37 -11,-57 -2,-21 -1,-43 2,-65 0,-1 -1,-2 -2,-1 -5,37 -3,74 6,110 9,37 25,70 34,106 4,20 7,41 1,61 -1,1 1,1 1,0l0 0z"/>
   </g>
   <g>
    <path class="fil0" d="M143 750c21,-36 26,-78 21,-119 -2,-21 -7,-41 -11,-62 -5,-22 -9,-43 -3,-65 5,-18 17,-42 40,-39 9,2 15,10 18,19 2,9 0,18 -3,27 -3,10 -7,19 -9,29 -1,10 0,20 0,30 2,22 2,44 1,66 -1,23 -4,47 -14,68 -8,19 -21,37 -41,45 -1,0 0,2 1,2 36,-15 50,-57 54,-93 2,-23 4,-47 2,-70 0,-12 -2,-23 -2,-34 0,-12 3,-23 7,-34 5,-15 11,-34 0,-48 -11,-14 -31,-9 -41,3 -13,14 -18,36 -18,55 0,23 8,45 12,67 5,26 9,52 7,79 -2,26 -9,51 -22,73 -1,1 1,2 1,1l0 0z"/>
   </g>
   <g>
    <path class="fil0" d="M144 750c19,-24 33,-54 37,-84 2,-19 0,-38 -1,-57 -1,-19 -2,-38 -2,-57 -1,-19 -1,-38 11,-53 0,-1 -1,-2 -2,-1 -9,12 -11,27 -11,41 -1,19 1,37 2,55 0,19 2,38 2,57 0,17 -4,33 -10,49 -6,17 -15,34 -27,49 -1,0 0,2 1,1l0 0z"/>
   </g>
   <g>
    <path class="fil0" d="M133 756c-2,-13 -9,-24 -17,-35 -8,-11 -17,-21 -27,-31 -10,-11 -19,-24 -26,-37 -7,-13 -15,-27 -18,-42 -1,-8 -1,-16 -1,-24 1,-8 0,-16 5,-23 4,-7 13,-11 19,-5 7,5 7,14 8,21 2,29 13,55 26,81 15,29 36,61 29,95 0,1 1,1 2,0 6,-30 -10,-59 -24,-85 -15,-29 -29,-58 -31,-91 -1,-11 -5,-27 -18,-26 -14,1 -17,17 -17,28 -1,15 -1,31 5,46 6,14 14,29 23,41 9,15 22,27 34,41 11,13 24,28 26,46 0,1 2,1 2,0l0 0z"/>
   </g>
   <g>
    <path class="fil0" d="M133 755c-3,-24 -11,-48 -24,-69 -14,-22 -33,-40 -41,-64 -5,-15 -7,-31 -5,-46 1,-1 -1,-1 -1,0 -4,25 2,49 16,70 7,11 15,20 22,30 8,11 15,23 20,35 5,14 9,29 11,44 0,1 2,1 2,0z"/>
   </g>
  </g>
  <g id="_868039265552">
   <g>
    <g>
     <path class="fil0" d="M951 770c-11,-41 -8,-85 8,-124 0,-1 -1,-1 -2,0 -15,39 -18,83 -7,124 0,1 2,1 1,0z"/>
    </g>
    <g>
     <path class="fil0" d="M950 671c-5,-9 -9,-19 -11,-30 0,-1 -1,-3 0,-5 0,-3 2,-3 4,-4 2,0 4,0 5,-1 2,-1 4,-3 4,-5 -1,-3 -4,-5 -6,-6 -5,-3 -8,-6 -8,-12 0,-5 3,-10 6,-14 1,-2 2,-3 4,-4 3,-1 4,0 6,0 3,0 6,1 9,1 0,0 1,0 1,0 2,-7 -8,-10 -10,-15 -2,-4 1,-6 3,-9 3,-2 6,-5 8,-8 5,-4 10,-9 14,-14 9,-8 21,-17 34,-18 19,-1 13,21 9,31 -2,8 -5,15 -8,22 -1,3 -2,5 -3,7 0,2 -1,5 -4,6 -2,0 -4,-1 -6,-1 -2,-1 -4,-1 -7,-1 0,0 0,0 0,0 -1,4 1,6 4,9 1,1 3,3 4,5 0,3 -5,6 -7,8 -4,5 -6,11 -9,16 -4,7 -11,2 -17,5 0,0 0,1 0,1 4,2 9,5 10,9 1,4 -7,8 -9,10 -7,6 -14,11 -21,17 -1,1 0,2 1,1 10,-9 21,-16 31,-26 0,0 0,0 0,0 -2,-6 -6,-10 -11,-12 0,0 0,1 0,1 5,-3 12,2 16,-3 5,-6 6,-13 11,-19 2,-3 8,-5 6,-9 -2,-5 -9,-7 -8,-12 0,0 -1,0 -1,0 3,1 6,1 9,1 2,1 5,2 6,1 2,-1 3,-4 3,-6 2,-3 3,-6 4,-9 5,-11 10,-24 12,-36 1,-9 -3,-17 -13,-17 -11,-1 -21,6 -29,12 -10,8 -18,17 -27,26 -3,3 -8,6 -7,10 0,3 3,5 5,7 1,1 2,2 3,3 1,1 2,2 2,3 0,0 1,1 1,1 0,2 0,1 -1,1 -2,1 -4,0 -5,0 -2,0 -4,-1 -5,-1 -3,0 -5,0 -6,2 -4,3 -7,9 -9,14 -1,4 -1,8 1,12 2,2 3,3 5,4 1,1 2,2 3,2 1,1 2,1 2,2 2,1 2,1 1,3 -1,4 -5,3 -8,4 -2,1 -3,2 -3,3 -1,2 -1,6 0,8 1,4 2,7 3,11 2,6 5,13 8,19 0,1 2,0 1,-1l0 0z"/>
    </g>
   </g>
   <g>
    <g>
     <path class="fil0" d="M916 758c8,-30 6,-63 -6,-92 0,0 1,-1 1,0 12,29 14,62 6,92 -1,1 -2,1 -1,0z"/>
    </g>
    <g>
     <path class="fil0" d="M916 685c4,-7 7,-15 9,-23 0,-1 0,-2 0,-3 0,-2 -1,-3 -3,-3 -1,-1 -3,-1 -4,-1 -1,-1 -3,-2 -3,-4 1,-2 3,-3 5,-4 3,-2 6,-5 6,-9 -1,-4 -3,-7 -5,-11 -1,-1 -2,-2 -3,-2 -2,-1 -3,-1 -4,-1 -3,1 -5,1 -7,1 0,0 -1,0 -1,0 -1,-5 6,-7 8,-11 1,-3 -1,-5 -3,-6 -2,-2 -4,-4 -6,-6 -3,-4 -7,-7 -10,-11 -7,-6 -16,-13 -25,-13 -14,-1 -10,15 -7,23 1,6 4,11 6,16 0,2 1,4 2,5 1,2 1,4 3,4 1,1 3,0 5,0 1,0 3,-1 5,-1 0,0 0,0 0,0 1,3 -1,5 -3,7 -1,1 -3,2 -3,4 0,2 4,4 5,6 3,3 4,8 7,11 3,6 8,2 12,4 1,0 1,1 0,1 -2,1 -6,4 -7,7 -1,2 5,6 7,7 5,4 10,8 15,13 1,0 0,1 0,1 -8,-7 -16,-13 -23,-20 0,0 0,0 0,0 1,-4 4,-7 8,-9 0,0 0,1 0,1 -4,-2 -9,1 -12,-2 -4,-4 -4,-10 -8,-14 -2,-2 -6,-4 -5,-7 2,-3 7,-5 6,-9 0,0 1,0 1,0 -2,0 -5,1 -7,1 -1,0 -3,1 -4,0 -2,0 -2,-2 -3,-4 -1,-2 -2,-4 -3,-6 -3,-9 -7,-18 -8,-27 -1,-7 2,-13 10,-13 7,0 15,4 21,9 7,6 13,13 20,19 2,2 6,5 5,8 0,2 -2,4 -3,5 -1,1 -2,2 -3,2 -1,1 -1,2 -1,2 -1,1 -1,1 -1,1 0,1 0,1 1,1 1,0 3,0 4,0 1,-1 2,-1 3,-1 2,0 4,0 5,1 3,3 5,7 6,11 1,3 1,6 -1,9 -1,1 -2,2 -3,3 -1,1 -2,1 -3,2 0,0 -1,0 -1,1 -1,1 -2,1 -1,2 1,3 4,2 7,3 0,1 1,1 2,2 1,2 0,4 0,6 -1,3 -2,6 -2,8 -2,5 -4,10 -7,14 0,1 -1,0 -1,0l0 0z"/>
    </g>
   </g>
  </g>
  <path class="fil1" d="M1018 774c0,15 -228,27 -509,27 -281,0 -509,-12 -509,-27 0,-15 228,-27 509,-27 281,0 509,12 509,27z"/>
  <g id="_868039267568">
   <g>
    <polygon class="fil2" points="621,207 619,205 682,121 738,177 809,70 868,145 944,66 1064,66 1064,69 946,69 868,149 809,75 738,181 682,125 "/>
   </g>
   <g>
    <polygon class="fil3 str0" points="568,206 282,206 282,41 568,41 "/>
    <polygon class="fil4" points="306,206 288,206 288,59 306,59 "/>
    <polygon class="fil4" points="334,206 316,206 316,85 334,85 "/>
    <polygon class="fil4" points="362,206 345,206 345,123 362,123 "/>
    <polygon class="fil4" points="391,206 373,206 373,98 391,98 "/>
    <polygon class="fil4" points="419,206 401,206 401,150 419,150 "/>
    <polygon class="fil4" points="448,206 430,206 430,178 448,178 "/>
    <polygon class="fil4" points="476,206 458,206 458,123 476,123 "/>
    <polygon class="fil4" points="505,206 487,206 487,83 505,83 "/>
    <polygon class="fil4" points="533,206 515,206 515,59 533,59 "/>
    <polygon class="fil4" points="561,206 544,206 544,107 561,107 "/>
   </g>
   <g>
    <path class="fil2" d="M712 27l-6 -5 -5 3c-1,-1 -3,-2 -4,-3l-1 -5 -7 -2 -3 5 0 0c-1,0 -1,0 -2,0 -1,0 -2,0 -3,0l0 0 -3 -5 -7 2 0 6c-2,0 -3,1 -5,2l-5 -2 -5 5 3 5c-1,2 -2,3 -3,5l-6 0 -1 7 4 3c0,1 0,2 0,3 0,1 0,1 0,2l0 0 -4 3 2 8 5 0c1,1 2,3 3,4l-2 5 5 5 5 -2c1,1 3,2 4,2l1 6 7 2 3 -5c1,0 2,0 2,0 1,0 2,0 3,0l3 5 7 -2 1 -6c1,-1 2,-2 4,-3l5 3 5 -5 -2 -5c1,-2 1,-3 2,-5l6 0 2 -7 -5 -4 0 1c0,-1 0,-2 0,-3 0,-1 0,-2 0,-3l4 -3 -2 -7 -5 0c-1,-2 -2,-3 -3,-4l3 -6 0 0zm-12 39l0 0c-8,9 -23,9 -32,1 -9,-9 -9,-24 0,-33 9,-9 23,-9 32,0 9,9 9,23 0,32z"/>
    <g>
     <path class="fil2" d="M712 27c-2,-1 -4,-3 -6,-5 0,0 0,0 0,0 -1,1 -2,1 -3,2 0,0 -1,0 -2,1 0,0 -1,-1 -2,-2 -1,0 -2,0 -2,-1 0,0 0,-1 0,-2 0,-1 0,-2 0,-3 0,0 0,0 0,0 -3,-1 -5,-2 -8,-2 0,0 0,0 0,0 -1,1 -2,3 -3,5 0,0 0,0 0,0 -1,-1 -3,-1 -5,0 0,0 0,0 0,0 -1,-2 -2,-3 -3,-5 0,0 0,0 0,0 -2,1 -5,1 -7,2 0,0 0,0 0,0 0,1 0,2 0,4 -1,0 0,1 -1,1 0,1 -1,1 -2,2 0,0 -1,1 -2,1 0,0 -1,-1 -2,-1 -1,0 -2,-1 -3,-1 0,0 0,0 0,0 -2,1 -3,3 -5,5 0,0 0,0 0,0 0,1 1,2 1,3 1,1 1,1 1,2 0,1 -1,2 -1,2 0,1 -1,2 -1,2 -1,1 -2,0 -2,1 -1,0 -2,0 -4,0 0,0 0,0 0,0 0,2 -1,5 -2,7 0,0 0,0 1,0 1,1 2,2 3,3 1,0 1,0 1,1 0,1 0,3 1,4 0,0 -1,0 -1,0 -1,1 -3,2 -4,3 0,0 0,0 0,0 0,3 1,5 2,8 0,0 0,0 0,0 1,0 2,0 3,0 1,0 2,0 2,0 1,0 1,2 1,2 1,1 2,2 2,2 0,1 -1,2 -1,2 -1,1 -1,2 -2,3 0,0 0,0 0,0 2,2 4,4 6,6 0,0 0,0 0,0 1,-1 2,-1 3,-2 0,0 1,-1 2,-1 0,0 1,1 2,1 1,1 2,1 2,2 0,0 0,1 0,2 0,1 0,2 1,3 0,0 0,0 0,0 2,1 4,1 7,2 0,0 0,0 0,0 1,-1 1,-2 2,-3 0,0 0,-1 1,-2 0,0 2,0 2,0 1,0 2,0 3,0 0,1 1,1 1,2 1,1 1,2 2,3 0,0 0,0 0,0 3,-1 5,-2 7,-2 0,0 0,0 0,0 0,-1 1,-3 1,-4 0,0 0,-1 0,-2 0,0 1,-1 2,-1 0,0 1,-1 2,-1 1,0 1,0 2,1 1,0 2,1 3,1 0,0 0,0 0,0 2,-2 4,-4 5,-5 0,0 0,0 0,0 0,-2 -1,-3 -1,-4 -1,0 -1,-1 -1,-1 0,-1 1,-2 1,-3 0,0 1,-1 1,-2 1,0 2,0 2,0 1,0 3,0 4,0 0,0 0,0 0,0 0,-3 1,-5 2,-7 0,0 0,-1 0,-1 -2,-1 -4,-2 -5,-3 0,0 0,0 0,0 0,-1 0,-2 0,-3 0,-2 0,-1 1,-2 1,-1 2,-2 3,-3 1,0 1,0 1,0 -1,-2 -2,-5 -2,-7 0,0 -1,0 -1,0 -1,0 -2,0 -3,0 -1,0 -2,0 -2,0 -1,-1 -1,-2 -1,-2 -1,-1 -2,-2 -2,-3 0,0 1,-1 1,-1 1,-1 1,-2 2,-3 0,-1 0,-1 0,-1 -1,2 -3,4 -3,5 0,2 2,3 3,5 0,0 0,0 0,0 1,0 5,0 5,0 1,1 1,2 1,3 0,1 1,2 1,3 0,1 0,1 0,2 -1,0 -2,1 -3,2 -2,1 -1,3 -1,6 0,0 0,0 0,0 0,0 4,2 4,3 0,1 0,3 -1,4 0,0 0,2 0,3 -2,1 -5,-1 -6,0 0,0 -3,4 -3,4 0,1 1,1 1,2 1,1 2,2 2,3 0,1 -1,2 -2,2 0,1 -2,3 -3,3 0,1 0,1 -2,0 0,0 -2,-2 -3,-2 -1,0 -2,2 -3,2 0,0 -1,1 -2,1 0,1 0,3 0,4 0,2 0,1 -1,2 -1,0 -3,1 -5,1 -1,1 -1,1 -2,-1 0,-1 -1,-2 -2,-3 0,0 0,0 0,0 -1,0 -4,-1 -5,0 -1,0 -1,2 -2,2 0,1 -1,3 -1,3 -1,0 -3,-1 -4,-1 -1,0 -3,-1 -3,-1 -1,-1 0,-3 0,-4 0,0 0,-1 -1,-2 0,0 -4,-2 -4,-2 -2,0 -4,2 -5,2 -1,0 -5,-4 -5,-5 -1,-1 2,-3 2,-5 0,0 -2,-4 -2,-4 -1,-1 -3,0 -3,0 -2,0 -3,0 -3,-1 -1,-1 -1,-3 -2,-5 0,-1 0,-1 1,-2 0,-1 3,-2 3,-3 0,0 1,0 1,0 0,-1 0,-4 -1,-5 0,0 -1,-1 -1,-1 -1,0 -3,-1 -3,-2 0,0 0,-2 0,-2 1,-1 1,-3 1,-4 1,-1 1,-1 2,-1 1,0 3,0 4,0 1,-1 1,-1 1,-2 0,-1 2,-2 2,-3 0,-1 -2,-2 -2,-3 0,-1 -1,-2 -1,-2 0,-1 3,-2 3,-3 0,0 2,-2 2,-2 1,0 3,1 3,1 1,1 2,1 2,1 1,0 4,-2 5,-2 0,0 0,0 0,0 0,-2 -1,-4 0,-5 0,-1 2,-1 3,-2 2,0 3,-1 4,0 1,0 3,4 3,4 0,0 0,0 0,0 2,0 4,0 5,0 0,0 0,0 0,0 1,0 3,-4 3,-4 1,-1 2,0 4,0 1,0 3,0 3,1 1,2 0,4 1,5 0,1 4,3 4,3 1,0 3,-1 4,-2 2,-1 2,0 3,1 1,1 2,2 3,4 1,0 1,-1 1,-1l0 0z"/>
     <path class="fil2" d="M700 66c-6,7 -17,9 -25,5 -9,-4 -14,-13 -14,-22 1,-10 8,-18 17,-21 9,-2 19,2 25,9 6,9 5,21 -3,29 0,0 0,1 0,0 7,-7 9,-17 5,-25 -4,-9 -14,-15 -24,-13 -9,1 -17,8 -19,17 -3,9 1,19 10,25 9,6 21,4 28,-4 1,0 0,0 0,0l0 0z"/>
    </g>
   </g>
   <g>
    <path class="fil5" d="M901 8l-3 -3 -3 1c-1,0 -2,-1 -3,-1l0 -4 -5 -1 -2 3 0 0c-1,0 -1,0 -2,0 0,0 -1,0 -1,0l0 0 -2 -3 -5 1 0 4c-1,1 -2,1 -3,2l-3 -2 -3 4 1 3c0,1 -1,2 -1,3l-4 0 -1 4 3 3c0,0 0,1 0,1 0,1 0,1 0,2l0 0 -3 2 1 4 4 1c0,0 1,1 2,2l-2 4 3 3 4 -2c1,1 1,1 2,2l1 3 4 2 2 -3c1,0 1,0 2,0 0,0 1,0 2,0l2 3 4 -2 0 -3c1,-1 2,-1 3,-2l3 2 4 -4 -2 -3c1,-1 1,-2 2,-3l3 0 1 -5 -3 -2 0 0c0,0 0,-1 0,-1 0,-1 0,-1 0,-2l3 -2 -1 -5 -4 0c0,-1 -1,-2 -1,-3l1 -3 0 0zm-7 25l0 0c-6,6 -15,6 -21,0 -5,-5 -5,-15 0,-20 6,-6 15,-6 21,-1 6,6 6,15 0,21z"/>
    <g>
     <path class="fil5" d="M901 8c-1,-1 -2,-2 -3,-3 0,0 0,0 0,0 -1,0 -1,0 -2,1 0,0 -1,0 -1,0 -1,0 -1,0 -2,0 0,-1 -1,-1 -1,-1 0,-1 0,-1 0,-1 0,-1 0,-2 0,-3 0,0 0,0 0,0 -2,0 -3,-1 -5,-1 0,0 0,0 0,0 -1,1 -1,2 -2,3 0,0 0,0 0,0 -1,0 -2,0 -3,0 0,0 0,0 0,0 -1,-1 -1,-2 -2,-3 0,0 0,0 0,0 -2,1 -3,1 -5,1 0,0 0,0 0,0 0,1 0,2 0,3 0,0 0,1 0,1 0,0 -1,1 -1,1 -1,0 -1,1 -2,1 0,0 -1,-1 -1,-1 -1,0 -1,-1 -2,-1 0,0 0,0 0,0 -1,1 -2,2 -3,4 0,0 0,0 0,0 0,0 0,1 1,2 0,0 0,0 0,1 0,0 0,1 -1,1 0,1 0,1 0,2 -1,0 -1,0 -2,0 0,0 -1,0 -2,0 0,0 0,0 0,0 0,1 -1,3 -1,4 0,1 0,1 0,1 1,0 1,1 2,1 1,0 1,0 1,1 0,1 0,2 0,3 0,0 0,0 0,0 -1,0 -2,1 -3,2 0,0 0,0 0,0 0,1 1,3 1,4 0,0 0,0 0,0 1,0 2,1 2,1 1,0 1,0 2,0 0,0 0,1 1,1 0,0 0,1 0,1 0,1 0,1 0,2 0,0 -1,1 -1,2 0,0 0,0 0,0 1,1 2,2 3,3 0,0 0,0 0,0 1,0 2,-1 2,-1 1,0 1,-1 2,-1 0,0 1,1 1,1 0,0 1,1 1,1 0,0 0,1 0,1 0,1 1,2 1,2 0,1 0,1 0,1 1,0 3,0 4,1 0,0 0,0 0,0 1,-1 1,-2 2,-2 0,0 0,-1 0,-1 1,0 1,0 2,0 0,0 1,0 2,0 0,0 0,0 0,1 1,0 1,1 2,2 0,0 0,0 0,0 1,-1 3,-1 4,-2 0,0 0,0 0,0 0,-1 0,-1 0,-2 0,0 0,-1 0,-1 1,-1 1,-1 2,-1 0,0 1,-1 1,-1 1,0 1,0 1,1 1,0 2,0 2,1 0,0 0,0 0,0 2,-2 3,-3 4,-4 0,0 0,0 0,0 -1,-1 -1,-1 -1,-2 0,0 -1,-1 -1,-1 0,0 1,-1 1,-1 0,-1 0,-2 1,-2 0,0 1,0 1,0 1,0 2,0 2,0 0,0 0,0 0,0 1,-2 1,-3 2,-5 0,0 0,0 0,0 -2,-1 -3,-1 -4,-2 0,0 0,0 0,0 1,-1 0,-1 0,-2 0,-1 0,-1 1,-1 1,-1 2,-1 2,-2 0,0 0,0 0,0 0,-2 0,-3 -1,-5 0,0 0,0 0,0 -1,0 -1,0 -2,0 0,0 -1,0 -1,0 -1,0 -1,-1 -1,-1 -1,-1 -1,-1 -1,-2 0,0 0,-1 0,-1 1,-1 1,-1 1,-2 0,0 0,0 0,0 0,1 -1,2 -1,3 0,1 1,2 1,3 0,0 0,0 0,0 1,0 4,0 4,0 0,1 0,2 0,2 1,1 1,2 1,2 0,1 0,1 0,1 -1,1 -1,1 -2,2 -1,0 -1,2 -1,3 0,0 0,0 0,0 0,1 3,2 3,2 0,1 0,2 0,3 0,0 -1,2 -1,2 -1,0 -3,-1 -3,0 -1,0 -2,3 -2,3 0,0 0,0 0,1 1,0 2,1 2,2 0,0 -1,1 -1,1 -1,1 -2,2 -2,2 -1,0 -1,0 -2,0 0,0 -1,-1 -2,-1 0,0 -1,1 -2,1 0,0 -1,0 -1,1 0,0 0,2 0,2 0,1 0,1 -1,1 -1,1 -2,1 -3,1 -1,0 0,0 -1,0 0,-1 -1,-2 -1,-3 0,0 0,0 0,0 -1,0 -3,0 -4,0 0,1 0,2 -1,2 0,0 -1,1 -1,1 0,1 -2,0 -2,0 -1,0 -2,0 -2,-1 -1,0 0,-2 0,-2 0,0 0,-1 -1,-1 0,-1 -2,-2 -2,-2 -1,0 -3,2 -4,2 0,0 -3,-3 -3,-3 0,-1 2,-3 2,-4 0,0 -2,-2 -2,-3 0,0 -1,0 -2,0 -1,0 -1,0 -2,0 0,-1 0,-2 -1,-3 0,-1 0,-1 1,-2 0,0 2,-1 2,-1 0,0 0,0 0,0 0,-1 0,-3 0,-4 0,0 -1,0 -1,0 0,0 -2,-1 -2,-2 0,0 0,-1 0,-1 1,-1 1,-2 1,-3 0,0 0,0 1,0 1,0 2,0 3,0 0,0 0,-1 0,-1 1,-1 1,-2 1,-2 0,-1 0,-2 -1,-2 0,-1 0,-1 0,-1 0,-1 1,-2 2,-2 0,-1 1,-2 1,-2 0,0 2,1 2,1 0,0 1,1 1,1 1,0 2,-1 3,-2 0,0 0,0 0,0 0,-1 0,-2 0,-3 1,-1 2,-1 2,-1 1,0 2,-1 3,0 0,0 1,2 2,2 0,0 0,0 0,0 1,0 2,0 3,0 0,0 0,0 0,0 0,0 2,-2 2,-3 0,0 1,1 2,1 1,0 2,0 3,1 0,1 -1,2 0,3 0,0 2,2 3,2 0,0 2,-1 2,-2 1,0 1,0 2,1 1,1 2,2 2,2 0,0 0,0 0,0l0 0z"/>
     <path class="fil5" d="M894 33c-4,4 -11,6 -16,3 -6,-2 -9,-8 -9,-14 0,-6 5,-12 11,-13 6,-2 12,1 16,6 4,5 3,13 -2,18 0,0 0,0 0,0 4,-4 6,-11 3,-16 -3,-6 -9,-10 -15,-9 -6,1 -11,5 -13,11 -1,6 1,13 7,16 6,4 13,3 18,-2 0,0 0,0 0,0z"/>
    </g>
   </g>
   <g>
    <path class="fil6" d="M1012 191l-4 -4 -4 2c-1,-1 -2,-1 -3,-2l0 -4 -5 -1 -2 3 0 0c-1,0 -1,0 -2,0 -1,0 -1,0 -2,0l0 0 -2 -3 -5 1 0 5c-1,0 -2,1 -3,1l-4 -1 -4 3 2 4c-1,1 -1,2 -2,3l-4 0 -1 5 4 3c-1,0 -1,1 -1,1 0,1 1,2 1,2l0 0 -4 2 2 5 4 1c0,1 1,2 1,3l-1 3 3 4 4 -2c1,1 2,1 3,2l1 4 5 1 2 -3c0,0 1,0 2,0 0,0 1,0 1,0l3 3 5 -1 0 -4c1,-1 2,-1 3,-2l4 2 3 -4 -2 -4c1,-1 2,-2 2,-3l4 0 1 -5 -3 -2 0 0c0,-1 0,-2 0,-2 0,-1 0,-1 0,-2l3 -2 -1 -5 -4 -1c-1,-1 -1,-2 -2,-3l2 -3 0 0zm-8 27l0 0c-6,7 -17,7 -23,1 -6,-7 -7,-17 0,-23 6,-7 16,-7 23,-1 6,7 6,17 0,23z"/>
    <g>
     <path class="fil6" d="M1012 191c-1,-1 -3,-3 -4,-4 0,0 0,0 0,0 -1,0 -1,1 -2,1 0,0 -1,1 -1,1 -1,0 -2,-1 -2,-1 0,0 -1,-1 -2,-1 0,0 0,-1 0,-1 0,-1 0,-2 0,-3 0,0 0,0 0,0 -2,0 -3,-1 -5,-1 0,0 0,0 0,0 -1,1 -2,2 -2,3 0,0 0,0 0,0 -1,0 -3,0 -4,0 0,0 0,0 0,0 0,-1 -1,-2 -2,-3 0,0 0,0 0,0 -2,0 -3,1 -5,1 0,0 0,0 0,0 0,1 0,2 0,3 0,0 0,1 0,1 -1,1 -1,1 -2,1 0,0 -1,1 -2,1 0,0 0,0 -1,0 0,-1 -1,-1 -2,-2 0,0 0,0 0,0 -1,2 -3,3 -4,4 0,0 0,0 0,0 1,1 1,2 1,3 0,0 1,0 1,1 0,0 -1,1 -1,1 0,1 0,2 -1,2 0,0 -1,0 -1,0 -1,0 -2,0 -3,0 0,0 0,0 0,0 0,2 -1,4 -1,5 0,0 0,0 0,0 1,1 2,2 3,2 0,1 0,1 0,1 1,1 0,2 1,3 0,0 0,0 -1,0 -1,1 -2,2 -3,2 0,0 0,0 0,0 1,2 1,4 2,6 0,0 0,0 0,0 0,0 1,0 2,0 0,0 1,0 1,0 1,0 1,1 1,1 1,1 1,1 1,2 0,0 0,1 0,1 -1,1 -1,2 -1,2 0,0 0,0 0,0 1,2 2,3 3,4 0,0 0,0 0,0 1,0 2,-1 3,-1 0,0 1,-1 1,-1 0,0 1,1 2,1 0,1 1,1 1,1 0,0 0,1 0,2 0,0 0,1 0,2 0,0 0,0 0,0 2,1 4,1 6,1 0,0 0,0 0,0 0,0 1,-1 1,-2 0,0 0,-1 1,-1 0,0 1,0 2,0 0,0 1,0 1,0 1,0 1,1 1,1 1,1 1,2 2,2 0,0 0,0 0,0 1,0 3,-1 5,-1 0,0 0,0 0,0 0,-1 0,-2 0,-3 0,0 0,-1 0,-1 0,0 1,-1 1,-1 1,0 2,-1 2,-1 0,0 1,1 1,1 1,0 2,0 2,1 1,0 1,0 1,0 1,-2 2,-3 3,-4 0,0 0,0 0,0 0,-1 0,-2 -1,-2 0,-1 0,-1 0,-2 0,0 0,-1 0,-1 1,-1 1,-2 1,-2 1,0 1,0 2,0 1,0 1,0 2,0 0,0 0,0 0,0 1,-2 1,-3 2,-5 0,0 0,0 0,0 -2,-1 -3,-2 -4,-3 0,0 0,0 0,1 0,-1 0,-2 0,-3 0,-1 0,-1 1,-1 1,-1 2,-2 2,-2 0,0 1,0 0,0 0,-2 0,-4 -1,-5 0,0 0,0 0,0 -1,0 -2,0 -3,-1 0,0 -1,1 -1,0 0,0 -1,-1 -1,-1 0,-1 -1,-1 -1,-2 0,0 1,-1 1,-1 0,-1 1,-1 1,-2 0,0 0,0 0,0 -1,1 -2,2 -2,3 0,1 1,2 2,4 0,0 0,0 0,0 1,0 3,-1 4,0 0,0 0,1 0,1 1,1 1,2 1,3 0,1 0,1 0,1 -1,1 -2,1 -2,2 -2,0 -1,2 -1,4 0,0 0,0 0,0 0,0 3,2 3,2 0,1 0,2 0,3 0,0 -1,2 -1,2 -1,0 -3,0 -4,0 0,0 -2,3 -2,3 0,1 1,1 1,1 0,1 1,2 1,3 0,0 -1,1 -1,1 -1,1 -1,2 -2,2 -1,1 -1,0 -2,0 0,0 -1,-1 -2,-1 -1,0 -1,1 -2,1 0,0 -1,0 -1,1 -1,0 0,2 0,3 0,1 0,1 -1,1 -1,0 -2,1 -3,1 -2,0 -1,0 -2,-1 -1,-1 -1,-1 -2,-2 0,0 0,0 0,0 -1,0 -3,-1 -3,0 -1,0 -1,1 -1,1 -1,1 -1,2 -2,2 0,0 -2,0 -2,-1 -1,0 -2,0 -2,0 -1,0 -1,-2 -1,-3 0,0 0,-1 0,-1 0,0 -3,-2 -3,-2 -1,0 -3,2 -4,2 0,0 -3,-3 -3,-4 0,-1 2,-2 2,-3 0,-1 -2,-3 -2,-3 -1,-1 -2,0 -2,-1 -1,0 -2,1 -2,0 -1,-1 -1,-2 -1,-3 -1,-1 -1,-1 0,-2 0,0 3,-2 2,-2 1,0 1,0 1,0 0,-1 0,-3 0,-3 -1,-1 -1,-1 -1,-1 -1,0 -3,-1 -3,-2 0,0 1,-1 1,-1 0,-1 0,-3 0,-3 1,-1 1,-1 2,-1 0,0 2,0 2,0 1,0 1,-1 1,-1 0,-1 1,-2 1,-2 0,-1 -1,-2 -1,-2 0,-1 -1,-1 0,-2 0,0 1,-1 1,-2 1,0 2,-1 2,-1 0,0 2,1 2,1 0,0 1,0 2,0 0,0 2,-1 3,-1 0,0 0,0 0,0 0,-2 0,-3 0,-4 0,-1 1,-1 2,-1 1,0 3,-1 3,-1 1,1 2,3 2,3 0,0 0,1 0,1 1,-1 3,-1 4,-1 0,0 0,0 0,0 0,0 1,-2 2,-3 0,0 1,0 3,1 0,0 2,0 2,1 0,1 0,2 0,3 0,1 3,2 3,2 1,0 3,-1 3,-1 1,-1 1,0 2,0 1,1 2,2 3,3 0,0 0,0 0,0l0 0z"/>
     <path class="fil6" d="M1004 218c-5,5 -12,7 -18,4 -6,-3 -10,-9 -10,-16 1,-7 5,-13 12,-14 7,-2 14,0 18,6 4,6 3,15 -2,20 0,0 0,1 0,0 5,-4 6,-12 3,-18 -3,-6 -10,-10 -17,-9 -6,1 -12,6 -14,12 -1,7 2,14 7,18 7,4 15,3 21,-3 0,0 0,0 0,0z"/>
    </g>
   </g>
   <g>
    <path class="fil7" d="M804 277l-8 -15 0 -60c0,-2 -1,-4 -3,-4l-85 0c-2,0 -4,2 -4,4l0 60c0,2 2,3 4,3l78 0 18 12 0 0z"/>
    <g>
     <path class="fil8" d="M711 215c14,0 29,0 43,0 1,0 1,-1 0,-1 -14,0 -29,0 -43,0 -1,0 -1,1 0,1z"/>
    </g>
    <g>
     <path class="fil8" d="M711 223c14,0 29,0 43,0 1,0 1,-1 0,-1 -14,0 -29,0 -43,0 -1,0 -1,1 0,1z"/>
    </g>
    <g>
     <path class="fil8" d="M711 231c14,0 29,0 43,0 1,0 1,-1 0,-1 -14,0 -29,0 -43,0 -1,0 -1,1 0,1z"/>
    </g>
    <g>
     <path class="fil8" d="M744 244c15,0 29,0 43,0 1,0 1,-2 0,-2 -14,0 -28,0 -43,0 -1,0 -1,2 0,2z"/>
    </g>
    <g>
     <path class="fil8" d="M744 249c15,0 29,0 43,0 1,0 1,-2 0,-2 -14,0 -28,0 -43,0 -1,0 -1,2 0,2z"/>
    </g>
    <g>
     <path class="fil8" d="M744 254c15,0 29,0 43,0 1,0 1,-2 0,-2 -14,0 -28,0 -43,0 -1,0 -1,2 0,2z"/>
    </g>
   </g>
   <g>
    <path class="fil7" d="M377 370l12 -23 0 -94c0,-3 2,-5 5,-5l134 0c3,0 5,2 5,5l0 95c0,3 -2,5 -5,5l-123 0 -28 17z"/>
    <g>
     <path class="fil8" d="M522 274c-22,0 -44,0 -67,0 -1,0 -1,-2 0,-2 23,0 45,0 67,0 2,0 2,2 0,2z"/>
    </g>
    <g>
     <path class="fil8" d="M522 287c-22,0 -44,0 -67,0 -1,0 -1,-3 0,-3 23,0 45,0 67,0 2,0 2,3 0,3z"/>
    </g>
    <g>
     <path class="fil8" d="M522 299c-22,0 -44,0 -67,0 -1,0 -1,-2 0,-2 23,0 45,0 67,0 2,0 2,2 0,2z"/>
    </g>
    <g>
     <path class="fil8" d="M470 319c-22,0 -44,0 -67,0 -1,0 -1,-2 0,-2 23,0 45,0 67,0 2,0 2,2 0,2z"/>
    </g>
    <g>
     <path class="fil8" d="M470 327c-22,0 -44,0 -67,0 -1,0 -1,-2 0,-2 23,0 45,0 67,0 2,0 2,2 0,2z"/>
    </g>
    <g>
     <path class="fil8" d="M470 335c-22,0 -44,0 -67,0 -1,0 -1,-3 0,-3 23,0 45,0 67,0 2,0 2,3 0,3z"/>
    </g>
   </g>
  </g>
  <g id="_868039284176">
   <g>
    <g>
     <g>
      <g>
       <path class="fil9" d="M190 719c1,11 0,23 -2,35 0,1 0,2 0,2 1,1 2,2 3,2 14,7 30,10 47,10 -2,-2 -4,-3 -6,-4 -15,-10 -23,-28 -21,-45l-21 0z"/>
      </g>
      <g>
       <path class="fil10" d="M204 760c3,2 7,3 11,3 4,0 8,-3 8,-7 7,0 12,5 17,8 9,4 19,3 29,5 2,1 4,2 5,4 2,2 2,5 0,6 -1,0 -2,0 -2,0 -21,4 -42,3 -62,-2 -2,0 -4,-1 -6,0 -1,0 -2,1 -4,1 -1,1 -3,1 -5,0 -3,0 -7,-1 -10,-2 -1,0 -2,0 -3,-1 0,0 0,-1 0,-2 -1,-4 1,-8 2,-13 0,-2 2,-6 3,-7 2,-3 3,-1 7,0 3,2 7,5 10,7l0 0z"/>
      </g>
      <g>
       <path class="fil9" d="M264 714c-3,11 -7,23 -13,33 0,1 -1,2 -1,2 1,1 1,2 2,3 12,11 27,19 42,23 -1,-2 -3,-3 -4,-5 -11,-14 -14,-34 -6,-50l-20 -6 0 0z"/>
      </g>
      <g>
       <path class="fil10" d="M262 757c3,3 7,5 11,5 4,0 8,-2 9,-6 6,1 10,7 15,11 8,5 18,5 27,9 2,1 4,2 5,4 1,2 1,5 -1,6 -1,0 -2,0 -2,0 -21,1 -41,-3 -60,-11 -1,0 -3,-1 -5,-1 -2,0 -3,1 -5,1 -1,0 -3,0 -5,-1 -3,-1 -6,-2 -9,-3 -1,0 -2,-1 -3,-2 0,0 0,-1 0,-2 0,-4 3,-8 4,-12 0,-2 2,-6 4,-7 3,-2 3,0 7,2 3,2 5,5 8,7l0 0z"/>
      </g>
     </g>
     <g>
      <path class="fil11" d="M191 411c-9,44 -3,89 -3,134 -1,20 -3,40 -4,59 -2,41 -1,82 4,122 9,1 19,2 29,1 3,-29 6,-58 9,-87 1,-17 3,-33 6,-50 3,-12 6,-23 9,-35 4,-19 6,-39 9,-58 14,31 29,62 43,94 2,4 4,9 5,14 1,6 -1,12 -3,18 -11,36 -24,71 -38,106 7,3 15,7 23,10 1,1 3,1 4,1 2,0 3,-2 3,-4 16,-35 31,-71 46,-106 5,-12 10,-24 8,-36 -1,-9 -2,-17 -5,-28 -3,-11 -8,-25 -11,-35 -10,-43 -25,-81 -35,-124 -1,-2 -2,-5 -4,-7 -2,-2 -4,-3 -6,-3 -24,-6 -49,-10 -74,-10 -3,0 -8,0 -11,2l-4 22 0 0z"/>
     </g>
    </g>
    <g>
     <path class="fil12" d="M252 180c1,5 1,11 0,16 0,3 0,6 -2,8 -2,6 -9,8 -14,11 4,3 7,8 11,11 12,10 30,9 43,1 -8,-5 -10,-17 -5,-24l-33 -23 0 0z"/>
    </g>
    <g>
     <path class="fil9" d="M304 155c1,17 -4,35 -14,49 -3,4 -6,7 -10,8 -2,0 -5,-1 -8,-2 -12,-6 -18,-19 -21,-32 -4,-15 -2,-33 10,-43l43 20z"/>
     <path class="fil9" d="M251 178c-5,-3 -9,-9 -8,-16 0,0 0,-1 1,-2 0,-1 2,-1 3,0 1,0 2,1 2,2l2 16z"/>
     <path class="fil10" d="M246 161c-2,-10 -2,-21 2,-30 4,-8 13,-13 21,-15 9,-2 18,0 26,4 5,3 9,6 14,8 6,1 12,1 16,4 3,3 4,7 4,11 1,14 -9,28 -23,31 -1,0 -3,0 -3,-1 0,-1 0,-1 0,-2 0,-4 2,-9 -1,-11 -10,4 -22,2 -32,-4 -3,-3 -8,-6 -12,-3 -3,2 -3,6 -3,10 -1,3 -3,7 -6,7 -1,-3 -2,-6 -3,-9l0 0z"/>
     <g>
      <path class="fil13" d="M279 170c-3,1 -7,1 -10,-2 -1,-1 -2,0 -1,1 3,3 7,4 12,3 1,0 0,-2 -1,-2z"/>
     </g>
     <g>
      <path class="fil10" d="M267 161c3,0 5,0 8,1 2,0 3,2 5,3 1,0 2,-1 1,-1 -2,-2 -4,-3 -7,-4 -2,-1 -5,-1 -7,0 -1,0 0,2 0,1z"/>
     </g>
     <g>
      <path class="fil10" d="M306 163c-2,-1 -5,-2 -7,-2 -3,0 -5,2 -8,2 -1,1 0,2 1,2 5,-2 8,-3 13,0 1,0 2,-1 1,-2l0 0z"/>
     </g>
     <g>
      <path class="fil13" d="M289 173c1,1 3,2 5,2 3,0 5,-2 7,-3 1,-1 0,-2 -1,-2 -1,1 -3,2 -4,3 -1,0 -5,0 -6,-1 0,-1 -2,0 -1,1z"/>
     </g>
     <path class="fil12" d="M286 171c-1,5 1,9 1,14 0,1 0,2 -1,2 0,0 0,0 -1,0 -2,0 -3,0 -5,0 -1,0 -1,0 -1,0 0,0 0,0 0,0 1,-4 2,-7 3,-10 1,-2 4,-12 4,-6l0 0z"/>
     <path class="fil12" d="M285 194c-2,0 -4,0 -6,0 -1,0 -2,0 -3,0 0,0 -1,0 -1,0 0,1 1,1 1,1 1,0 2,1 3,2 1,0 1,0 2,1 1,0 2,-1 4,-1 0,0 1,-1 1,-1 0,-1 0,-2 -1,-2l0 0 0 0z"/>
    </g>
    <g>
     <g>
      <path class="fil14" d="M240 213c7,12 21,19 34,17 5,-1 10,-3 12,-7 2,2 4,3 6,4 1,1 3,1 4,2 3,2 2,7 2,10 -6,33 -8,67 -10,101 -1,9 -2,18 -2,28 -1,12 -2,24 0,36 0,1 1,3 0,4 -1,1 -3,2 -4,3 -17,4 -35,2 -51,-4 -3,-1 -6,-2 -8,-5 0,-2 0,-5 0,-7 6,-31 3,-63 6,-95 1,-6 1,-13 2,-19 1,-17 0,-34 -4,-51 -1,-2 -1,-5 -1,-8 2,-6 8,-8 14,-9l0 0z"/>
     </g>
     <g>
      <path class="fil2" d="M286 224c-8,24 -6,48 -8,74 0,10 -1,20 -2,30 0,9 0,18 1,27 1,28 2,56 3,83 0,1 0,3 0,4 1,1 2,1 4,1 7,3 16,4 24,3 -1,-24 -3,-49 -6,-73 -1,-5 -1,-11 -1,-16 0,-7 0,-13 1,-20 3,-22 6,-43 12,-65 2,-10 5,-21 1,-31 -4,-8 -11,-9 -19,-13 -3,-2 -7,-3 -10,-4l0 0z"/>
     </g>
     <g>
      <path class="fil15" d="M312 237c-5,4 -4,12 -4,18 -1,14 -1,27 0,41 0,14 1,28 2,42 0,3 0,6 3,8 2,2 6,1 9,0 1,0 3,0 4,-2 0,-1 1,-2 1,-3 4,-24 2,-49 -1,-73 0,-5 -1,-9 -2,-13 -2,-6 -7,-17 -12,-18l0 0z"/>
     </g>
     <g>
      <path class="fil16" d="M223 327c3,1 6,-1 8,-4 8,-8 14,-19 24,-25 2,-1 6,-2 9,0 2,1 3,5 2,8 -1,12 -7,23 -15,32 -9,9 -18,16 -28,23l0 -34z"/>
     </g>
     <g>
      <path class="fil16" d="M223 375c11,-11 22,-22 33,-33 2,-2 5,-5 8,-5 3,1 6,3 6,6 1,2 1,5 0,8 -3,15 -17,24 -29,32 -10,7 -20,14 -30,20l12 -28 0 0z"/>
     </g>
     <g>
      <path class="fil2" d="M236 214c0,10 0,21 1,31 0,7 0,14 1,21 1,8 4,16 4,25 1,8 1,17 0,25 -2,41 -8,81 -8,122 0,1 0,3 0,3 -1,1 -2,1 -4,1 -10,1 -20,-3 -30,0 -5,1 -9,4 -14,4 -1,0 -3,-1 -3,-2 -1,-1 -1,-2 0,-3 4,-22 2,-44 3,-66 2,-29 11,-58 11,-87 0,-9 -1,-19 -2,-28 -1,-9 -2,-19 -2,-28 13,-8 28,-13 43,-18z"/>
     </g>
     <polygon class="fil17" points="271,399 283,297 350,297 341,399 "/>
     <g>
      <path class="fil9" d="M186 346c24,7 49,10 73,9 5,0 9,0 12,-3 3,-3 4,-7 7,-8 1,3 -1,6 1,8 1,1 4,1 6,0 6,-2 12,-4 18,-7 1,0 2,0 3,1 0,0 0,0 0,0 -2,8 -8,13 -15,17 -6,3 -14,4 -21,5 -18,2 -35,5 -53,5 -18,0 -36,-3 -52,-11l21 -16 0 0z"/>
     </g>
     <g>
      <path class="fil15" d="M193 232c10,14 11,34 8,51 -4,18 -11,34 -15,52 -1,4 -1,8 2,11 -8,8 -7,12 -11,22 -1,0 0,1 -2,2 0,1 -6,-2 -7,-3 -7,-5 -12,-7 -12,-16 -1,-14 3,-27 6,-40 7,-23 14,-45 21,-66 2,-6 4,-11 10,-13l0 0z"/>
     </g>
    </g>
   </g>
   <g>
    <g>
     <g>
      <path class="fil9" d="M742 712c-4,7 -1,17 5,23 6,6 14,10 22,13 12,4 23,9 35,13 2,1 4,3 3,5 0,0 -1,1 -2,1 -9,4 -20,1 -30,-1 -19,-4 -38,-4 -57,-1 -5,0 -11,0 -12,-5 0,-1 0,-2 0,-3 3,-19 6,-38 9,-57l27 12z"/>
     </g>
     <g>
      <path class="fil10" d="M755 741c-1,1 -3,4 -4,6 -3,3 -5,2 -8,2 -4,0 -8,-2 -11,-3 -7,-3 -13,-6 -19,-8 -1,0 -3,-1 -4,0 -1,0 -1,2 -2,3 -1,5 -2,10 -3,15 -1,1 -1,3 -1,4 1,1 2,2 2,3 7,5 16,4 24,4 16,-2 33,-1 50,2 10,1 21,4 29,-3 2,-1 3,-3 2,-4 0,-1 -1,-2 -2,-2 -5,-3 -11,-5 -16,-6 -7,-2 -13,-5 -20,-7 -6,-2 -14,-5 -17,-6l0 0z"/>
     </g>
     <g>
      <path class="fil10" d="M708 492c30,2 45,10 50,20 5,10 4,27 4,38 0,56 -9,111 -18,165 0,1 -1,2 -1,3 -1,1 -3,1 -5,1 -8,-1 -15,-2 -23,-3 -1,0 -3,0 -4,-1 -1,-1 -1,-3 -1,-5 -1,-41 -5,-66 -5,-115 1,-25 9,-55 -9,-56 -18,-1 9,-31 21,-40l-9 -7 0 0z"/>
     </g>
    </g>
    <g>
     <g>
      <path class="fil10" d="M602 545c-39,63 -53,137 -66,210 -1,4 6,6 6,1 13,-72 27,-145 65,-208 3,-4 -3,-7 -5,-3l0 0z"/>
     </g>
     <g>
      <path class="fil10" d="M661 545c39,63 53,137 66,210 1,4 -6,6 -7,1 -12,-72 -26,-145 -65,-208 -2,-4 4,-7 6,-3l0 0z"/>
     </g>
     <polygon class="fil2" points="700,545 555,545 555,528 700,528 "/>
    </g>
    <g>
     <path class="fil12" d="M660 269c-3,7 -4,14 -5,22 -1,6 0,13 2,19 3,5 9,10 15,11 -2,3 -5,6 -8,9 -8,7 -19,11 -30,10 -11,-2 -21,-9 -26,-19 7,-1 13,-8 15,-15 1,-8 -1,-16 -4,-23l41 -14z"/>
    </g>
    <g>
     <g>
      <path class="fil2" d="M619 315c11,8 26,10 37,2 1,-1 2,-2 3,-2 1,-1 2,0 4,0 11,3 22,6 33,9 1,0 2,1 3,2 1,0 1,2 1,3 0,43 -9,87 -5,130 0,2 0,4 -1,5 -2,2 -4,3 -6,3 -8,1 -16,1 -23,1 -21,0 -41,-6 -61,-3 -6,1 -12,2 -18,2 -1,0 -2,0 -3,-1 0,-1 0,-1 0,-2 0,-29 -1,-58 -4,-87 -2,-14 -4,-29 -2,-43 0,-2 0,-4 2,-6 1,-1 2,-1 4,-2 12,-4 24,-7 36,-11l0 0z"/>
     </g>
     <g>
      <path class="fil15" d="M698 325c-9,19 -11,42 -6,62 2,8 6,17 9,25 4,7 7,15 10,23 1,0 1,1 1,1 -1,1 -2,2 -3,2 -14,5 -28,7 -43,10 0,0 -1,0 -2,1 0,0 0,1 0,2 1,5 2,10 5,12 2,2 4,2 6,3 21,5 43,3 64,-2 3,-1 7,-2 8,-5 1,-2 0,-4 0,-6 -4,-23 -8,-46 -15,-68 -7,-21 -17,-43 -33,-59 0,-1 -1,-1 -1,-1l0 0z"/>
     </g>
     <g>
      <path class="fil15" d="M580 327c9,19 11,43 6,63 -2,8 -6,16 -10,24 -3,8 -6,16 -9,23 -1,1 -1,2 -1,2 0,1 2,2 3,2 14,4 28,7 43,10 0,0 1,0 2,1 0,0 0,1 0,2 -1,5 -2,10 -5,12 -2,2 -4,2 -6,3 -21,5 -43,2 -64,-2 -3,-1 -7,-2 -8,-5 -1,-2 0,-4 0,-6 4,-23 8,-46 15,-68 7,-22 17,-43 33,-60 0,0 1,-1 1,-1l0 0z"/>
     </g>
    </g>
    <g>
     <path class="fil10" d="M518 506c10,-7 8,-10 31,-15 35,-7 18,-21 28,-25 13,-6 28,2 41,-1 5,-2 10,-2 14,-2 11,0 23,0 34,0 4,0 8,0 12,1 4,1 8,3 12,5 8,6 17,11 26,16 9,6 20,12 24,22 2,4 2,9 1,13 -3,6 -10,8 -16,10 -19,5 -38,8 -57,5 -14,-3 -26,-4 -40,-3 -10,1 -24,3 -36,5 -26,3 -46,5 -70,-6l-4 -25 0 0z"/>
    </g>
    <g>
     <g>
      <path class="fil9" d="M520 712c5,7 2,17 -4,23 -6,6 -14,10 -23,13 -11,4 -23,9 -34,13 -2,1 -5,3 -3,5 0,0 1,1 1,1 10,4 21,1 31,-1 18,-4 38,-4 56,-1 5,0 12,0 13,-5 0,-1 0,-2 0,-3 -4,-19 -7,-38 -10,-57l-27 12 0 0z"/>
     </g>
     <g>
      <path class="fil10" d="M507 741c2,1 4,4 5,6 2,3 4,2 8,2 4,0 7,-2 11,-3 6,-3 13,-6 19,-8 1,0 2,-1 3,0 2,0 2,2 2,3 2,5 3,10 4,15 0,1 1,3 0,4 0,1 -1,2 -2,3 -6,5 -15,4 -23,4 -17,-2 -34,-1 -50,2 -10,1 -22,4 -30,-3 -1,-1 -2,-3 -2,-4 1,-1 2,-2 2,-2 6,-3 11,-5 17,-6 6,-2 13,-5 20,-7 5,-2 13,-5 16,-6l0 0z"/>
     </g>
     <g>
      <path class="fil10" d="M555 492c-31,2 -46,10 -50,20 -5,10 -4,27 -4,38 -1,56 9,111 18,165 0,1 0,2 1,3 1,1 3,1 5,1 7,-1 15,-2 23,-3 1,0 2,0 3,-1 1,-1 1,-3 1,-5 2,-41 6,-66 5,-115 0,-25 -9,-55 10,-56 17,-1 -9,-31 -22,-40l10 -7 0 0z"/>
     </g>
    </g>
    <g>
     <path class="fil17" d="M686 477l-126 0c-6,0 -10,-5 -10,-10l0 -68c0,-5 4,-10 10,-10l126 0c6,0 10,5 10,10l0 68c0,5 -4,10 -10,10z"/>
     <path class="fil18" d="M627 432c0,4 -4,8 -8,8 -4,0 -8,-4 -8,-8 0,-4 4,-8 8,-8 4,0 8,4 8,8z"/>
    </g>
    <g>
     <path class="fil9" d="M614 212c-3,4 -4,9 -5,13 -1,5 0,10 0,15 -1,4 -1,9 -1,13 0,12 4,21 8,32 2,4 4,8 7,11 3,3 7,3 12,2 2,0 8,-4 10,-5 13,-11 17,-22 18,-38 1,-5 0,-10 0,-15 0,-5 0,-10 -2,-15 -1,-4 -4,-9 -9,-11l-38 -2 0 0z"/>
     <path class="fil10" d="M665 256c-1,2 -3,5 -6,4 -1,-1 -1,-2 -1,-3 -1,-4 -2,-8 -3,-11 -2,-4 -5,-7 -8,-8 -7,-2 -14,4 -21,5 -6,1 -13,-1 -19,-4 -4,-2 -9,-5 -10,-9 -1,-5 1,-9 4,-13 4,-7 9,-13 16,-17 7,-5 15,-7 23,-5 5,1 10,4 15,6 2,1 5,1 8,2 6,3 10,9 11,16 2,6 1,13 1,19 -1,10 -2,19 -6,28 -3,6 -6,13 -13,15l9 -25z"/>
     <path class="fil12" d="M623 280c5,0 12,0 16,-1 -1,2 -2,3 -4,4 -2,2 -4,2 -6,2 -1,0 -3,-1 -3,-2 -1,0 -2,-2 -3,-3l0 0z"/>
     <path class="fil12" d="M630 255c-2,6 -3,11 -5,17 0,0 0,1 0,1 0,0 1,0 1,0 2,0 3,0 5,0 0,0 1,0 1,0 1,0 1,-1 0,-1 0,-5 -1,-11 -2,-17l0 0z"/>
     <g>
      <path class="fil10" d="M635 245c5,-1 10,-1 16,1 0,0 1,-1 0,-2 -6,-1 -11,-2 -17,-1 -1,1 0,2 1,2z"/>
     </g>
     <g>
      <path class="fil10" d="M622 244c-4,-1 -8,-1 -13,0 0,0 0,1 1,1 4,-1 8,0 11,0 1,1 2,-1 1,-1z"/>
     </g>
     <g>
      <path class="fil13" d="M637 254c4,2 8,2 12,-1 1,0 0,-2 -1,-1 -3,2 -7,3 -10,1 -1,-1 -2,1 -1,1l0 0z"/>
     </g>
     <g>
      <path class="fil13" d="M621 253c-3,1 -6,0 -8,-2 -1,0 -2,1 -1,2 3,2 7,3 10,1 1,-1 0,-2 -1,-1l0 0z"/>
     </g>
     <path class="fil19 str1" d="M625 254c0,5 -4,8 -8,8 -5,0 -8,-3 -8,-8 0,-4 3,-8 8,-8 4,0 8,4 8,8"/>
     <path class="fil19 str1" d="M651 254c0,5 -4,8 -8,8 -5,0 -8,-3 -8,-8 0,-4 3,-8 8,-8 4,0 8,4 8,8"/>
     <path class="fil19 str1" d="M625 253c0,0 5,-3 9,0"/>
     <path class="fil9" d="M662 260c0,-2 1,-4 3,-6 0,0 1,0 1,0 1,0 1,0 1,1 2,3 1,6 0,9 -1,2 -2,4 -3,5 -1,2 -4,3 -5,2l3 -11z"/>
     <line class="fil19 str1" x1="651" y1="253" x2="661" y2= "253" />
    </g>
   </g>
   <g>
    <g>
     <path class="fil10" d="M614 399c13,26 26,51 38,76 1,1 1,2 2,2 31,0 61,0 92,0 3,0 3,-5 0,-5 -26,0 -51,0 -77,0 -4,0 -10,-1 -14,0 -2,1 0,-1 1,1 -1,-1 -1,-3 -2,-4 -6,-13 -13,-26 -19,-39 -6,-11 -11,-22 -17,-33 -1,-2 -5,0 -4,2l0 0z"/>
    </g>
    <g>
     <g>
      <g>
       <path class="fil20" d="M742 692c4,14 10,27 14,40 3,14 5,28 2,42 -1,5 -3,9 -4,13 0,5 6,-1 8,-3 5,-5 9,-12 11,-19 5,-14 3,-30 10,-43 1,-3 4,-6 5,-10 1,-3 0,-8 -3,-10 -1,-1 -3,-1 -4,-1 -13,-4 -24,-17 -25,-31l-14 22 0 0z"/>
      </g>
      <g>
       <path class="fil16" d="M685 520c-2,15 -5,33 0,47 16,47 38,91 60,135 0,1 -1,0 0,0 0,0 0,0 0,0 8,-2 15,-7 20,-10 -9,-39 -13,-81 -34,-115 -3,-7 -8,-13 -10,-20 -2,-7 -1,-16 4,-20 7,-7 21,-5 26,-14l-66 -3 0 0z"/>
      </g>
     </g>
     <g>
      <path class="fil21" d="M850 296c5,7 6,16 6,24 0,2 -1,4 -1,6 -1,2 -2,4 -2,6 -5,9 -9,18 -14,26 5,1 9,-1 12,-4 6,-3 11,-6 16,-10 8,-5 17,-10 24,-17 -4,-4 -7,-8 -9,-12 -3,-8 -3,-16 -3,-25 1,-8 3,-16 3,-24l-32 30 0 0z"/>
     </g>
     <g>
      <g>
       <path class="fil20" d="M677 706c-1,14 0,28 -2,42 -1,14 -5,28 -13,40 -2,3 -5,7 -8,10 -2,5 6,2 9,0 6,-3 12,-8 17,-14 9,-11 13,-27 24,-37 3,-2 6,-4 8,-7 3,-3 3,-7 1,-10 -1,-1 -2,-2 -3,-3 -11,-8 -16,-24 -12,-37l-21 16 0 0z"/>
      </g>
      <g>
       <path class="fil14" d="M920 464c3,10 6,20 7,31 1,11 -1,22 -6,31 -11,17 -34,22 -55,24 -49,4 -98,-2 -148,-2 -7,0 -15,1 -17,7 -1,4 1,8 2,11 9,22 7,47 3,70 -4,24 -10,47 -8,71 0,2 0,6 -2,8 -1,1 -3,2 -5,2 -5,2 -10,4 -14,5 -6,-59 -9,-118 -11,-177 -1,-7 -1,-15 1,-22 2,-7 6,-14 13,-18 4,-2 15,-4 20,-5 61,-10 99,-13 141,-20 15,-2 31,-7 37,-21l42 5 0 0z"/>
      </g>
     </g>
     <g>
      <path class="fil9" d="M823 460c-9,-1 -19,-2 -28,-3 -17,-1 -31,-1 -48,-1 -4,0 -11,0 -15,0 -12,1 -21,5 -32,8 -3,1 -6,3 -7,5 -1,2 -2,4 -3,6 1,1 2,0 3,-1 1,-1 1,-2 2,-3 1,-1 6,-2 8,-3 5,0 7,0 13,0 2,-1 4,-1 5,-1 4,1 7,3 12,2 2,-1 4,-2 5,-2 4,-4 9,-1 15,1 4,2 9,3 13,3 8,2 16,4 25,6 12,2 25,5 37,5l-5 -22 0 0z"/>
     </g>
     <g>
      <g>
       <path class="fil22" d="M887 320c-8,14 -22,24 -38,27 -2,1 -4,1 -5,2 -1,1 -2,2 -3,4 -2,5 -5,10 -7,15 -3,6 -6,12 -7,18 -1,12 6,23 10,34 6,16 6,35 1,52 0,1 0,3 1,4 0,0 0,0 1,1 11,5 22,7 34,9 9,2 18,4 28,3 6,-1 11,-2 17,-5 -1,-3 -3,-6 -6,-9 -12,-18 -13,-42 -7,-63 3,-8 6,-15 8,-23 2,-13 -1,-26 -6,-37 -6,-12 -13,-22 -21,-32l0 0 0 0z"/>
      </g>
      <g>
       <g>
        <path class="fil23" d="M831 457c-5,1 -9,-3 -14,-3 0,0 0,0 0,0 -1,1 -1,1 -1,2 1,8 0,17 -2,25 0,1 0,1 0,1 0,0 1,1 1,1 5,0 9,1 14,1l2 -27z"/>
       </g>
       <g>
        <path class="fil22" d="M820 457c-1,1 -2,3 -1,4 1,1 3,1 4,-1 0,-1 -1,-3 -3,-3l0 0 0 0z"/>
       </g>
       <g>
        <path class="fil24" d="M882 336c-7,2 -13,9 -16,17 -3,7 -4,16 -4,24 0,10 1,21 0,31 0,8 -1,15 -4,22 -4,9 -12,16 -21,19 -2,1 -4,1 -6,3 -4,4 -3,10 -3,16 0,5 -1,10 -3,15 0,1 -1,3 -1,5 1,1 1,2 2,2 13,13 31,20 48,20 11,0 21,-3 29,-8 10,-7 17,-19 20,-31 3,-11 4,-24 3,-36 -1,-21 -4,-42 -9,-63 -1,-8 -4,-15 -8,-21 -4,-7 -10,-12 -17,-15 -4,-1 -7,-2 -10,0l0 0 0 0z"/>
       </g>
       <g>
        <path class="fil23" d="M837 475c7,0 14,1 21,-1 13,-3 23,-13 30,-25 6,-12 7,-26 7,-39 0,-3 0,-6 1,-9 2,0 3,3 4,5 4,15 6,31 5,46 0,6 -1,11 -2,16 -2,4 -4,9 -7,12 -2,2 -5,3 -7,5 -6,3 -13,5 -19,4 -12,0 -23,-7 -33,-14l0 0 0 0z"/>
       </g>
       <g>
        <path class="fil23" d="M849 456c9,-4 15,-12 19,-20 4,-9 6,-18 8,-28 1,1 1,2 1,4 1,6 2,11 1,17 0,6 -2,12 -6,17 -5,6 -14,10 -23,10l0 0z"/>
       </g>
      </g>
     </g>
     <g>
      <path class="fil9" d="M844 233c-5,3 -9,7 -12,11 -3,4 -5,10 -4,15 0,2 1,4 1,7 0,3 -3,6 -6,9 -1,1 -2,3 -1,4 1,1 2,1 3,2 1,1 1,2 1,3 1,6 2,11 3,17 1,2 1,3 1,4 2,2 7,2 10,1 4,-2 8,-3 12,-4 5,-2 11,-4 16,-7 5,-3 9,-7 12,-12 1,-2 1,-5 2,-7 1,-8 2,-15 0,-23 -2,-7 -7,-13 -14,-16l-24 -4 0 0z"/>
      <path class="fil25" d="M828 291c2,0 3,-1 5,-2 0,0 1,-1 1,-2 -1,0 -2,1 -4,1 -1,0 -2,0 -3,0l1 3 0 0z"/>
      <g>
       <path class="fil13" d="M831 265c4,1 9,0 12,-4 0,-1 -1,-2 -2,-1 -2,4 -6,5 -10,4 -1,-1 -1,1 0,1l0 0z"/>
      </g>
      <g>
       <path class="fil13" d="M830 257c4,-2 9,-5 13,-4 1,1 2,-1 1,-1 -5,-2 -11,1 -14,4 -1,0 0,2 0,1l0 0z"/>
      </g>
      <path class="fil26" d="M852 277c0,3 -3,5 -6,5 -3,0 -5,-2 -5,-5 0,-3 2,-5 5,-5 3,0 6,2 6,5z"/>
      <path class="fil10" d="M878 232c0,-10 4,-20 10,-28 6,-8 15,-13 24,-15 4,-1 9,-1 13,0 9,3 15,12 15,22 0,9 -5,18 -12,25 -7,6 -16,10 -25,13l-25 -17 0 0z"/>
      <path class="fil10" d="M860 266c3,0 6,3 7,6 2,3 2,6 2,10 -1,6 -2,13 -3,20 -1,6 -2,13 -1,20 1,6 5,13 11,16 -4,-4 -6,-10 -6,-15 -1,-6 0,-12 2,-17 1,-2 2,-4 3,-7 3,-8 5,-17 3,-26 -1,-2 -2,-4 -3,-6 -3,-3 -7,-4 -11,-5l-4 4 0 0z"/>
      <path class="fil10" d="M835 241c2,12 9,23 20,28 2,0 3,1 4,0 2,0 3,0 4,0 5,-1 9,3 11,7 1,5 0,10 0,15 -1,7 -1,15 2,23 6,13 21,22 26,36 3,6 3,12 5,18 5,15 19,26 35,27 15,1 30,-7 39,-20 3,-5 6,-10 8,-16 2,-5 3,-11 3,-17 1,-17 -11,-33 -26,-41 -13,-7 -28,-10 -37,-21 -12,-14 -10,-37 -22,-52 -11,-13 -32,-15 -48,-9 -11,3 -22,11 -24,22l0 0z"/>
     </g>
    </g>
    <g>
     <path class="fil20" d="M956 383c-1,-9 -14,-9 -14,0 0,44 -15,90 -44,123 -31,36 -76,42 -121,38 -5,0 -7,3 -7,7 -1,3 0,6 5,7 51,8 119,18 155,-30 30,-39 32,-98 26,-145z"/>
     <g>
      <path class="fil10" d="M829 556c-40,65 -54,141 -67,215 -1,4 6,6 7,2 13,-74 27,-149 66,-213 3,-4 -3,-7 -6,-4z"/>
     </g>
     <g>
      <path class="fil10" d="M890 556c40,65 54,141 67,215 1,4 -6,6 -6,2 -13,-74 -27,-149 -67,-213 -2,-4 4,-7 6,-4z"/>
     </g>
    </g>
   </g>
   <g>
    <g>
     <path class="fil27" d="M776 784c-28,-88 -55,-177 -83,-266 -4,-13 -8,-25 -12,-38 -2,-5 -9,-3 -7,2 28,88 56,177 83,266 4,13 8,26 12,39 2,4 9,2 7,-3l0 0z"/>
    </g>
    <g>
     <path class="fil27" d="M286 787c28,-89 56,-178 84,-267 4,-13 8,-25 12,-38 1,-5 -5,-7 -7,-2 -28,88 -55,177 -83,266 -4,13 -8,26 -12,38 -2,5 5,7 6,3l0 0z"/>
    </g>
    <path class="fil27" d="M766 484l-479 0c-2,0 -4,-2 -4,-4 0,-2 2,-3 4,-3l479 0c2,0 3,1 3,3 0,2 -1,4 -3,4z"/>
   </g>
  </g>
 </g>
</svg>
